G04 #@! TF.GenerationSoftware,KiCad,Pcbnew,5.0.2-bee76a0~70~ubuntu18.10.1*
G04 #@! TF.CreationDate,2019-05-17T12:20:37+02:00*
G04 #@! TF.ProjectId,interruptor,696e7465-7272-4757-9074-6f722e6b6963,rev?*
G04 #@! TF.SameCoordinates,Original*
G04 #@! TF.FileFunction,Copper,L1,Top*
G04 #@! TF.FilePolarity,Positive*
%FSLAX46Y46*%
G04 Gerber Fmt 4.6, Leading zero omitted, Abs format (unit mm)*
G04 Created by KiCad (PCBNEW 5.0.2-bee76a0~70~ubuntu18.10.1) date vie 17 may 2019 12:20:37 CEST*
%MOMM*%
%LPD*%
G01*
G04 APERTURE LIST*
G04 #@! TA.AperFunction,ComponentPad*
%ADD10O,1.600000X1.600000*%
G04 #@! TD*
G04 #@! TA.AperFunction,ComponentPad*
%ADD11R,1.600000X1.600000*%
G04 #@! TD*
G04 #@! TA.AperFunction,Conductor*
%ADD12C,0.100000*%
G04 #@! TD*
G04 #@! TA.AperFunction,SMDPad,CuDef*
%ADD13C,1.425000*%
G04 #@! TD*
G04 #@! TA.AperFunction,SMDPad,CuDef*
%ADD14R,2.000000X3.800000*%
G04 #@! TD*
G04 #@! TA.AperFunction,SMDPad,CuDef*
%ADD15R,2.000000X1.500000*%
G04 #@! TD*
G04 #@! TA.AperFunction,ComponentPad*
%ADD16R,1.100000X2.500000*%
G04 #@! TD*
G04 #@! TA.AperFunction,ComponentPad*
%ADD17O,1.100000X2.500000*%
G04 #@! TD*
G04 #@! TA.AperFunction,ComponentPad*
%ADD18O,1.508000X3.016000*%
G04 #@! TD*
G04 #@! TA.AperFunction,ComponentPad*
%ADD19R,3.000000X3.000000*%
G04 #@! TD*
G04 #@! TA.AperFunction,ComponentPad*
%ADD20C,3.000000*%
G04 #@! TD*
G04 #@! TA.AperFunction,ComponentPad*
%ADD21R,1.700000X1.700000*%
G04 #@! TD*
G04 #@! TA.AperFunction,ComponentPad*
%ADD22O,1.700000X1.700000*%
G04 #@! TD*
G04 #@! TA.AperFunction,ComponentPad*
%ADD23R,1.980000X1.980000*%
G04 #@! TD*
G04 #@! TA.AperFunction,ComponentPad*
%ADD24C,1.935000*%
G04 #@! TD*
G04 #@! TA.AperFunction,ComponentPad*
%ADD25C,1.980000*%
G04 #@! TD*
G04 #@! TA.AperFunction,ComponentPad*
%ADD26R,1.050000X1.500000*%
G04 #@! TD*
G04 #@! TA.AperFunction,ComponentPad*
%ADD27O,1.050000X1.500000*%
G04 #@! TD*
G04 #@! TA.AperFunction,ViaPad*
%ADD28C,0.800000*%
G04 #@! TD*
G04 #@! TA.AperFunction,Conductor*
%ADD29C,0.304800*%
G04 #@! TD*
G04 APERTURE END LIST*
D10*
G04 #@! TO.P,D2,1*
G04 #@! TO.N,Net-(D2-Pad1)*
X135945000Y-92475000D03*
D11*
G04 #@! TO.P,D2,2*
G04 #@! TO.N,Net-(C1-Pad1)*
X128325000Y-92475000D03*
G04 #@! TD*
G04 #@! TO.P,D1,2*
G04 #@! TO.N,Net-(C1-Pad1)*
X110775000Y-92450000D03*
D10*
G04 #@! TO.P,D1,1*
G04 #@! TO.N,Net-(D1-Pad1)*
X118395000Y-92450000D03*
G04 #@! TD*
D12*
G04 #@! TO.N,Net-(C1-Pad1)*
G04 #@! TO.C,C1*
G36*
X89169504Y-107330204D02*
X89193773Y-107333804D01*
X89217571Y-107339765D01*
X89240671Y-107348030D01*
X89262849Y-107358520D01*
X89283893Y-107371133D01*
X89303598Y-107385747D01*
X89321777Y-107402223D01*
X89338253Y-107420402D01*
X89352867Y-107440107D01*
X89365480Y-107461151D01*
X89375970Y-107483329D01*
X89384235Y-107506429D01*
X89390196Y-107530227D01*
X89393796Y-107554496D01*
X89395000Y-107579000D01*
X89395000Y-108829000D01*
X89393796Y-108853504D01*
X89390196Y-108877773D01*
X89384235Y-108901571D01*
X89375970Y-108924671D01*
X89365480Y-108946849D01*
X89352867Y-108967893D01*
X89338253Y-108987598D01*
X89321777Y-109005777D01*
X89303598Y-109022253D01*
X89283893Y-109036867D01*
X89262849Y-109049480D01*
X89240671Y-109059970D01*
X89217571Y-109068235D01*
X89193773Y-109074196D01*
X89169504Y-109077796D01*
X89145000Y-109079000D01*
X88220000Y-109079000D01*
X88195496Y-109077796D01*
X88171227Y-109074196D01*
X88147429Y-109068235D01*
X88124329Y-109059970D01*
X88102151Y-109049480D01*
X88081107Y-109036867D01*
X88061402Y-109022253D01*
X88043223Y-109005777D01*
X88026747Y-108987598D01*
X88012133Y-108967893D01*
X87999520Y-108946849D01*
X87989030Y-108924671D01*
X87980765Y-108901571D01*
X87974804Y-108877773D01*
X87971204Y-108853504D01*
X87970000Y-108829000D01*
X87970000Y-107579000D01*
X87971204Y-107554496D01*
X87974804Y-107530227D01*
X87980765Y-107506429D01*
X87989030Y-107483329D01*
X87999520Y-107461151D01*
X88012133Y-107440107D01*
X88026747Y-107420402D01*
X88043223Y-107402223D01*
X88061402Y-107385747D01*
X88081107Y-107371133D01*
X88102151Y-107358520D01*
X88124329Y-107348030D01*
X88147429Y-107339765D01*
X88171227Y-107333804D01*
X88195496Y-107330204D01*
X88220000Y-107329000D01*
X89145000Y-107329000D01*
X89169504Y-107330204D01*
X89169504Y-107330204D01*
G37*
D13*
G04 #@! TD*
G04 #@! TO.P,C1,1*
G04 #@! TO.N,Net-(C1-Pad1)*
X88682500Y-108204000D03*
D12*
G04 #@! TO.N,GND*
G04 #@! TO.C,C1*
G36*
X92144504Y-107330204D02*
X92168773Y-107333804D01*
X92192571Y-107339765D01*
X92215671Y-107348030D01*
X92237849Y-107358520D01*
X92258893Y-107371133D01*
X92278598Y-107385747D01*
X92296777Y-107402223D01*
X92313253Y-107420402D01*
X92327867Y-107440107D01*
X92340480Y-107461151D01*
X92350970Y-107483329D01*
X92359235Y-107506429D01*
X92365196Y-107530227D01*
X92368796Y-107554496D01*
X92370000Y-107579000D01*
X92370000Y-108829000D01*
X92368796Y-108853504D01*
X92365196Y-108877773D01*
X92359235Y-108901571D01*
X92350970Y-108924671D01*
X92340480Y-108946849D01*
X92327867Y-108967893D01*
X92313253Y-108987598D01*
X92296777Y-109005777D01*
X92278598Y-109022253D01*
X92258893Y-109036867D01*
X92237849Y-109049480D01*
X92215671Y-109059970D01*
X92192571Y-109068235D01*
X92168773Y-109074196D01*
X92144504Y-109077796D01*
X92120000Y-109079000D01*
X91195000Y-109079000D01*
X91170496Y-109077796D01*
X91146227Y-109074196D01*
X91122429Y-109068235D01*
X91099329Y-109059970D01*
X91077151Y-109049480D01*
X91056107Y-109036867D01*
X91036402Y-109022253D01*
X91018223Y-109005777D01*
X91001747Y-108987598D01*
X90987133Y-108967893D01*
X90974520Y-108946849D01*
X90964030Y-108924671D01*
X90955765Y-108901571D01*
X90949804Y-108877773D01*
X90946204Y-108853504D01*
X90945000Y-108829000D01*
X90945000Y-107579000D01*
X90946204Y-107554496D01*
X90949804Y-107530227D01*
X90955765Y-107506429D01*
X90964030Y-107483329D01*
X90974520Y-107461151D01*
X90987133Y-107440107D01*
X91001747Y-107420402D01*
X91018223Y-107402223D01*
X91036402Y-107385747D01*
X91056107Y-107371133D01*
X91077151Y-107358520D01*
X91099329Y-107348030D01*
X91122429Y-107339765D01*
X91146227Y-107333804D01*
X91170496Y-107330204D01*
X91195000Y-107329000D01*
X92120000Y-107329000D01*
X92144504Y-107330204D01*
X92144504Y-107330204D01*
G37*
D13*
G04 #@! TD*
G04 #@! TO.P,C1,2*
G04 #@! TO.N,GND*
X91657500Y-108204000D03*
D12*
G04 #@! TO.N,GND*
G04 #@! TO.C,C2*
G36*
X91927004Y-119776204D02*
X91951273Y-119779804D01*
X91975071Y-119785765D01*
X91998171Y-119794030D01*
X92020349Y-119804520D01*
X92041393Y-119817133D01*
X92061098Y-119831747D01*
X92079277Y-119848223D01*
X92095753Y-119866402D01*
X92110367Y-119886107D01*
X92122980Y-119907151D01*
X92133470Y-119929329D01*
X92141735Y-119952429D01*
X92147696Y-119976227D01*
X92151296Y-120000496D01*
X92152500Y-120025000D01*
X92152500Y-121275000D01*
X92151296Y-121299504D01*
X92147696Y-121323773D01*
X92141735Y-121347571D01*
X92133470Y-121370671D01*
X92122980Y-121392849D01*
X92110367Y-121413893D01*
X92095753Y-121433598D01*
X92079277Y-121451777D01*
X92061098Y-121468253D01*
X92041393Y-121482867D01*
X92020349Y-121495480D01*
X91998171Y-121505970D01*
X91975071Y-121514235D01*
X91951273Y-121520196D01*
X91927004Y-121523796D01*
X91902500Y-121525000D01*
X90977500Y-121525000D01*
X90952996Y-121523796D01*
X90928727Y-121520196D01*
X90904929Y-121514235D01*
X90881829Y-121505970D01*
X90859651Y-121495480D01*
X90838607Y-121482867D01*
X90818902Y-121468253D01*
X90800723Y-121451777D01*
X90784247Y-121433598D01*
X90769633Y-121413893D01*
X90757020Y-121392849D01*
X90746530Y-121370671D01*
X90738265Y-121347571D01*
X90732304Y-121323773D01*
X90728704Y-121299504D01*
X90727500Y-121275000D01*
X90727500Y-120025000D01*
X90728704Y-120000496D01*
X90732304Y-119976227D01*
X90738265Y-119952429D01*
X90746530Y-119929329D01*
X90757020Y-119907151D01*
X90769633Y-119886107D01*
X90784247Y-119866402D01*
X90800723Y-119848223D01*
X90818902Y-119831747D01*
X90838607Y-119817133D01*
X90859651Y-119804520D01*
X90881829Y-119794030D01*
X90904929Y-119785765D01*
X90928727Y-119779804D01*
X90952996Y-119776204D01*
X90977500Y-119775000D01*
X91902500Y-119775000D01*
X91927004Y-119776204D01*
X91927004Y-119776204D01*
G37*
D13*
G04 #@! TD*
G04 #@! TO.P,C2,2*
G04 #@! TO.N,GND*
X91440000Y-120650000D03*
D12*
G04 #@! TO.N,vcc*
G04 #@! TO.C,C2*
G36*
X88952004Y-119776204D02*
X88976273Y-119779804D01*
X89000071Y-119785765D01*
X89023171Y-119794030D01*
X89045349Y-119804520D01*
X89066393Y-119817133D01*
X89086098Y-119831747D01*
X89104277Y-119848223D01*
X89120753Y-119866402D01*
X89135367Y-119886107D01*
X89147980Y-119907151D01*
X89158470Y-119929329D01*
X89166735Y-119952429D01*
X89172696Y-119976227D01*
X89176296Y-120000496D01*
X89177500Y-120025000D01*
X89177500Y-121275000D01*
X89176296Y-121299504D01*
X89172696Y-121323773D01*
X89166735Y-121347571D01*
X89158470Y-121370671D01*
X89147980Y-121392849D01*
X89135367Y-121413893D01*
X89120753Y-121433598D01*
X89104277Y-121451777D01*
X89086098Y-121468253D01*
X89066393Y-121482867D01*
X89045349Y-121495480D01*
X89023171Y-121505970D01*
X89000071Y-121514235D01*
X88976273Y-121520196D01*
X88952004Y-121523796D01*
X88927500Y-121525000D01*
X88002500Y-121525000D01*
X87977996Y-121523796D01*
X87953727Y-121520196D01*
X87929929Y-121514235D01*
X87906829Y-121505970D01*
X87884651Y-121495480D01*
X87863607Y-121482867D01*
X87843902Y-121468253D01*
X87825723Y-121451777D01*
X87809247Y-121433598D01*
X87794633Y-121413893D01*
X87782020Y-121392849D01*
X87771530Y-121370671D01*
X87763265Y-121347571D01*
X87757304Y-121323773D01*
X87753704Y-121299504D01*
X87752500Y-121275000D01*
X87752500Y-120025000D01*
X87753704Y-120000496D01*
X87757304Y-119976227D01*
X87763265Y-119952429D01*
X87771530Y-119929329D01*
X87782020Y-119907151D01*
X87794633Y-119886107D01*
X87809247Y-119866402D01*
X87825723Y-119848223D01*
X87843902Y-119831747D01*
X87863607Y-119817133D01*
X87884651Y-119804520D01*
X87906829Y-119794030D01*
X87929929Y-119785765D01*
X87953727Y-119779804D01*
X87977996Y-119776204D01*
X88002500Y-119775000D01*
X88927500Y-119775000D01*
X88952004Y-119776204D01*
X88952004Y-119776204D01*
G37*
D13*
G04 #@! TD*
G04 #@! TO.P,C2,1*
G04 #@! TO.N,vcc*
X88465000Y-120650000D03*
D14*
G04 #@! TO.P,U2,4*
G04 #@! TO.N,N/C*
X87020000Y-114300000D03*
D15*
G04 #@! TO.P,U2,2*
G04 #@! TO.N,vcc*
X93320000Y-114300000D03*
G04 #@! TO.P,U2,3*
G04 #@! TO.N,Net-(C1-Pad1)*
X93320000Y-112000000D03*
G04 #@! TO.P,U2,1*
G04 #@! TO.N,GND*
X93320000Y-116600000D03*
G04 #@! TD*
D16*
G04 #@! TO.P,U3,1*
G04 #@! TO.N,N/C*
X134620000Y-105980000D03*
D17*
G04 #@! TO.P,U3,2*
X132620000Y-105980000D03*
G04 #@! TO.P,U3,3*
G04 #@! TO.N,Net-(R1-Pad1)*
X130620000Y-105980000D03*
G04 #@! TO.P,U3,4*
G04 #@! TO.N,int_1*
X128620000Y-105980000D03*
G04 #@! TO.P,U3,5*
G04 #@! TO.N,Relay_2*
X126620000Y-105980000D03*
G04 #@! TO.P,U3,6*
G04 #@! TO.N,Relay_1*
X124620000Y-105980000D03*
G04 #@! TO.P,U3,7*
G04 #@! TO.N,int_2*
X122620000Y-105980000D03*
G04 #@! TO.P,U3,8*
G04 #@! TO.N,vcc*
X120620000Y-105980000D03*
G04 #@! TO.P,U3,9*
G04 #@! TO.N,GND*
X120620000Y-121380000D03*
G04 #@! TO.P,U3,10*
G04 #@! TO.N,Net-(R2-Pad1)*
X122620000Y-121280000D03*
G04 #@! TO.P,U3,11*
G04 #@! TO.N,N/C*
X124620000Y-121380000D03*
G04 #@! TO.P,U3,12*
G04 #@! TO.N,Net-(J7-Pad2)*
X126620000Y-121380000D03*
G04 #@! TO.P,U3,13*
G04 #@! TO.N,N/C*
X128620000Y-121380000D03*
G04 #@! TO.P,U3,14*
X130620000Y-121380000D03*
G04 #@! TO.P,U3,15*
G04 #@! TO.N,Net-(R3-Pad2)*
X132620000Y-121380000D03*
G04 #@! TO.P,U3,16*
G04 #@! TO.N,Net-(J2-Pad1)*
X134620000Y-121380000D03*
G04 #@! TD*
D18*
G04 #@! TO.P,U1,P$1*
G04 #@! TO.N,Net-(J1-Pad2)*
X97750000Y-74200000D03*
G04 #@! TO.P,U1,P$2*
G04 #@! TO.N,Net-(J1-Pad1)*
X92750000Y-74200000D03*
G04 #@! TO.P,U1,P$3*
G04 #@! TO.N,GND*
X102950000Y-103600000D03*
G04 #@! TO.P,U1,P$4*
G04 #@! TO.N,Net-(C1-Pad1)*
X87550000Y-103600000D03*
G04 #@! TD*
D19*
G04 #@! TO.P,J1,1*
G04 #@! TO.N,Net-(J1-Pad1)*
X92710000Y-64770000D03*
D20*
G04 #@! TO.P,J1,2*
G04 #@! TO.N,Net-(J1-Pad2)*
X97790000Y-64770000D03*
G04 #@! TD*
D21*
G04 #@! TO.P,J2,1*
G04 #@! TO.N,Net-(J2-Pad1)*
X115570000Y-120650000D03*
D22*
G04 #@! TO.P,J2,2*
G04 #@! TO.N,Net-(J2-Pad2)*
X113030000Y-120650000D03*
G04 #@! TO.P,J2,3*
G04 #@! TO.N,GND*
X110490000Y-120650000D03*
G04 #@! TD*
D23*
G04 #@! TO.P,K1,A1*
G04 #@! TO.N,Net-(C1-Pad1)*
X109570000Y-86110000D03*
D24*
G04 #@! TO.P,K1,COM*
G04 #@! TO.N,Net-(J3-Pad2)*
X115570000Y-88110000D03*
D25*
G04 #@! TO.P,K1,A2*
G04 #@! TO.N,Net-(D1-Pad1)*
X121570000Y-86110000D03*
G04 #@! TO.P,K1,NO*
G04 #@! TO.N,Net-(J3-Pad1)*
X121570000Y-73910000D03*
G04 #@! TO.P,K1,NC*
G04 #@! TO.N,Net-(J3-Pad3)*
X109570000Y-73910000D03*
G04 #@! TD*
D23*
G04 #@! TO.P,K2,A1*
G04 #@! TO.N,Net-(C1-Pad1)*
X127350000Y-86110000D03*
D24*
G04 #@! TO.P,K2,COM*
G04 #@! TO.N,Net-(J4-Pad2)*
X133350000Y-88110000D03*
D25*
G04 #@! TO.P,K2,A2*
G04 #@! TO.N,Net-(D2-Pad1)*
X139350000Y-86110000D03*
G04 #@! TO.P,K2,NO*
G04 #@! TO.N,Net-(J4-Pad1)*
X139350000Y-73910000D03*
G04 #@! TO.P,K2,NC*
G04 #@! TO.N,Net-(J4-Pad3)*
X127350000Y-73910000D03*
G04 #@! TD*
D20*
G04 #@! TO.P,J3,3*
G04 #@! TO.N,Net-(J3-Pad3)*
X110490000Y-64770000D03*
G04 #@! TO.P,J3,2*
G04 #@! TO.N,Net-(J3-Pad2)*
X115570000Y-64770000D03*
D19*
G04 #@! TO.P,J3,1*
G04 #@! TO.N,Net-(J3-Pad1)*
X120650000Y-64770000D03*
G04 #@! TD*
G04 #@! TO.P,J4,1*
G04 #@! TO.N,Net-(J4-Pad1)*
X138430000Y-64770000D03*
D20*
G04 #@! TO.P,J4,2*
G04 #@! TO.N,Net-(J4-Pad2)*
X133350000Y-64770000D03*
G04 #@! TO.P,J4,3*
G04 #@! TO.N,Net-(J4-Pad3)*
X128270000Y-64770000D03*
G04 #@! TD*
D12*
G04 #@! TO.N,Net-(Q1-Pad2)*
G04 #@! TO.C,R4*
G36*
X120029504Y-96861204D02*
X120053773Y-96864804D01*
X120077571Y-96870765D01*
X120100671Y-96879030D01*
X120122849Y-96889520D01*
X120143893Y-96902133D01*
X120163598Y-96916747D01*
X120181777Y-96933223D01*
X120198253Y-96951402D01*
X120212867Y-96971107D01*
X120225480Y-96992151D01*
X120235970Y-97014329D01*
X120244235Y-97037429D01*
X120250196Y-97061227D01*
X120253796Y-97085496D01*
X120255000Y-97110000D01*
X120255000Y-98035000D01*
X120253796Y-98059504D01*
X120250196Y-98083773D01*
X120244235Y-98107571D01*
X120235970Y-98130671D01*
X120225480Y-98152849D01*
X120212867Y-98173893D01*
X120198253Y-98193598D01*
X120181777Y-98211777D01*
X120163598Y-98228253D01*
X120143893Y-98242867D01*
X120122849Y-98255480D01*
X120100671Y-98265970D01*
X120077571Y-98274235D01*
X120053773Y-98280196D01*
X120029504Y-98283796D01*
X120005000Y-98285000D01*
X118755000Y-98285000D01*
X118730496Y-98283796D01*
X118706227Y-98280196D01*
X118682429Y-98274235D01*
X118659329Y-98265970D01*
X118637151Y-98255480D01*
X118616107Y-98242867D01*
X118596402Y-98228253D01*
X118578223Y-98211777D01*
X118561747Y-98193598D01*
X118547133Y-98173893D01*
X118534520Y-98152849D01*
X118524030Y-98130671D01*
X118515765Y-98107571D01*
X118509804Y-98083773D01*
X118506204Y-98059504D01*
X118505000Y-98035000D01*
X118505000Y-97110000D01*
X118506204Y-97085496D01*
X118509804Y-97061227D01*
X118515765Y-97037429D01*
X118524030Y-97014329D01*
X118534520Y-96992151D01*
X118547133Y-96971107D01*
X118561747Y-96951402D01*
X118578223Y-96933223D01*
X118596402Y-96916747D01*
X118616107Y-96902133D01*
X118637151Y-96889520D01*
X118659329Y-96879030D01*
X118682429Y-96870765D01*
X118706227Y-96864804D01*
X118730496Y-96861204D01*
X118755000Y-96860000D01*
X120005000Y-96860000D01*
X120029504Y-96861204D01*
X120029504Y-96861204D01*
G37*
D13*
G04 #@! TD*
G04 #@! TO.P,R4,1*
G04 #@! TO.N,Net-(Q1-Pad2)*
X119380000Y-97572500D03*
D12*
G04 #@! TO.N,Relay_1*
G04 #@! TO.C,R4*
G36*
X120029504Y-99836204D02*
X120053773Y-99839804D01*
X120077571Y-99845765D01*
X120100671Y-99854030D01*
X120122849Y-99864520D01*
X120143893Y-99877133D01*
X120163598Y-99891747D01*
X120181777Y-99908223D01*
X120198253Y-99926402D01*
X120212867Y-99946107D01*
X120225480Y-99967151D01*
X120235970Y-99989329D01*
X120244235Y-100012429D01*
X120250196Y-100036227D01*
X120253796Y-100060496D01*
X120255000Y-100085000D01*
X120255000Y-101010000D01*
X120253796Y-101034504D01*
X120250196Y-101058773D01*
X120244235Y-101082571D01*
X120235970Y-101105671D01*
X120225480Y-101127849D01*
X120212867Y-101148893D01*
X120198253Y-101168598D01*
X120181777Y-101186777D01*
X120163598Y-101203253D01*
X120143893Y-101217867D01*
X120122849Y-101230480D01*
X120100671Y-101240970D01*
X120077571Y-101249235D01*
X120053773Y-101255196D01*
X120029504Y-101258796D01*
X120005000Y-101260000D01*
X118755000Y-101260000D01*
X118730496Y-101258796D01*
X118706227Y-101255196D01*
X118682429Y-101249235D01*
X118659329Y-101240970D01*
X118637151Y-101230480D01*
X118616107Y-101217867D01*
X118596402Y-101203253D01*
X118578223Y-101186777D01*
X118561747Y-101168598D01*
X118547133Y-101148893D01*
X118534520Y-101127849D01*
X118524030Y-101105671D01*
X118515765Y-101082571D01*
X118509804Y-101058773D01*
X118506204Y-101034504D01*
X118505000Y-101010000D01*
X118505000Y-100085000D01*
X118506204Y-100060496D01*
X118509804Y-100036227D01*
X118515765Y-100012429D01*
X118524030Y-99989329D01*
X118534520Y-99967151D01*
X118547133Y-99946107D01*
X118561747Y-99926402D01*
X118578223Y-99908223D01*
X118596402Y-99891747D01*
X118616107Y-99877133D01*
X118637151Y-99864520D01*
X118659329Y-99854030D01*
X118682429Y-99845765D01*
X118706227Y-99839804D01*
X118730496Y-99836204D01*
X118755000Y-99835000D01*
X120005000Y-99835000D01*
X120029504Y-99836204D01*
X120029504Y-99836204D01*
G37*
D13*
G04 #@! TD*
G04 #@! TO.P,R4,2*
G04 #@! TO.N,Relay_1*
X119380000Y-100547500D03*
D12*
G04 #@! TO.N,Relay_2*
G04 #@! TO.C,R5*
G36*
X126379504Y-99836204D02*
X126403773Y-99839804D01*
X126427571Y-99845765D01*
X126450671Y-99854030D01*
X126472849Y-99864520D01*
X126493893Y-99877133D01*
X126513598Y-99891747D01*
X126531777Y-99908223D01*
X126548253Y-99926402D01*
X126562867Y-99946107D01*
X126575480Y-99967151D01*
X126585970Y-99989329D01*
X126594235Y-100012429D01*
X126600196Y-100036227D01*
X126603796Y-100060496D01*
X126605000Y-100085000D01*
X126605000Y-101010000D01*
X126603796Y-101034504D01*
X126600196Y-101058773D01*
X126594235Y-101082571D01*
X126585970Y-101105671D01*
X126575480Y-101127849D01*
X126562867Y-101148893D01*
X126548253Y-101168598D01*
X126531777Y-101186777D01*
X126513598Y-101203253D01*
X126493893Y-101217867D01*
X126472849Y-101230480D01*
X126450671Y-101240970D01*
X126427571Y-101249235D01*
X126403773Y-101255196D01*
X126379504Y-101258796D01*
X126355000Y-101260000D01*
X125105000Y-101260000D01*
X125080496Y-101258796D01*
X125056227Y-101255196D01*
X125032429Y-101249235D01*
X125009329Y-101240970D01*
X124987151Y-101230480D01*
X124966107Y-101217867D01*
X124946402Y-101203253D01*
X124928223Y-101186777D01*
X124911747Y-101168598D01*
X124897133Y-101148893D01*
X124884520Y-101127849D01*
X124874030Y-101105671D01*
X124865765Y-101082571D01*
X124859804Y-101058773D01*
X124856204Y-101034504D01*
X124855000Y-101010000D01*
X124855000Y-100085000D01*
X124856204Y-100060496D01*
X124859804Y-100036227D01*
X124865765Y-100012429D01*
X124874030Y-99989329D01*
X124884520Y-99967151D01*
X124897133Y-99946107D01*
X124911747Y-99926402D01*
X124928223Y-99908223D01*
X124946402Y-99891747D01*
X124966107Y-99877133D01*
X124987151Y-99864520D01*
X125009329Y-99854030D01*
X125032429Y-99845765D01*
X125056227Y-99839804D01*
X125080496Y-99836204D01*
X125105000Y-99835000D01*
X126355000Y-99835000D01*
X126379504Y-99836204D01*
X126379504Y-99836204D01*
G37*
D13*
G04 #@! TD*
G04 #@! TO.P,R5,2*
G04 #@! TO.N,Relay_2*
X125730000Y-100547500D03*
D12*
G04 #@! TO.N,Net-(Q2-Pad2)*
G04 #@! TO.C,R5*
G36*
X126379504Y-96861204D02*
X126403773Y-96864804D01*
X126427571Y-96870765D01*
X126450671Y-96879030D01*
X126472849Y-96889520D01*
X126493893Y-96902133D01*
X126513598Y-96916747D01*
X126531777Y-96933223D01*
X126548253Y-96951402D01*
X126562867Y-96971107D01*
X126575480Y-96992151D01*
X126585970Y-97014329D01*
X126594235Y-97037429D01*
X126600196Y-97061227D01*
X126603796Y-97085496D01*
X126605000Y-97110000D01*
X126605000Y-98035000D01*
X126603796Y-98059504D01*
X126600196Y-98083773D01*
X126594235Y-98107571D01*
X126585970Y-98130671D01*
X126575480Y-98152849D01*
X126562867Y-98173893D01*
X126548253Y-98193598D01*
X126531777Y-98211777D01*
X126513598Y-98228253D01*
X126493893Y-98242867D01*
X126472849Y-98255480D01*
X126450671Y-98265970D01*
X126427571Y-98274235D01*
X126403773Y-98280196D01*
X126379504Y-98283796D01*
X126355000Y-98285000D01*
X125105000Y-98285000D01*
X125080496Y-98283796D01*
X125056227Y-98280196D01*
X125032429Y-98274235D01*
X125009329Y-98265970D01*
X124987151Y-98255480D01*
X124966107Y-98242867D01*
X124946402Y-98228253D01*
X124928223Y-98211777D01*
X124911747Y-98193598D01*
X124897133Y-98173893D01*
X124884520Y-98152849D01*
X124874030Y-98130671D01*
X124865765Y-98107571D01*
X124859804Y-98083773D01*
X124856204Y-98059504D01*
X124855000Y-98035000D01*
X124855000Y-97110000D01*
X124856204Y-97085496D01*
X124859804Y-97061227D01*
X124865765Y-97037429D01*
X124874030Y-97014329D01*
X124884520Y-96992151D01*
X124897133Y-96971107D01*
X124911747Y-96951402D01*
X124928223Y-96933223D01*
X124946402Y-96916747D01*
X124966107Y-96902133D01*
X124987151Y-96889520D01*
X125009329Y-96879030D01*
X125032429Y-96870765D01*
X125056227Y-96864804D01*
X125080496Y-96861204D01*
X125105000Y-96860000D01*
X126355000Y-96860000D01*
X126379504Y-96861204D01*
X126379504Y-96861204D01*
G37*
D13*
G04 #@! TD*
G04 #@! TO.P,R5,1*
G04 #@! TO.N,Net-(Q2-Pad2)*
X125730000Y-97572500D03*
D21*
G04 #@! TO.P,J5,1*
G04 #@! TO.N,vcc*
X102870000Y-120650000D03*
D22*
G04 #@! TO.P,J5,2*
G04 #@! TO.N,int_1*
X100330000Y-120650000D03*
G04 #@! TO.P,J5,3*
G04 #@! TO.N,GND*
X97790000Y-120650000D03*
G04 #@! TD*
D26*
G04 #@! TO.P,Q1,1*
G04 #@! TO.N,GND*
X111760000Y-99060000D03*
D27*
G04 #@! TO.P,Q1,3*
G04 #@! TO.N,Net-(D1-Pad1)*
X114300000Y-99060000D03*
G04 #@! TO.P,Q1,2*
G04 #@! TO.N,Net-(Q1-Pad2)*
X113030000Y-99060000D03*
G04 #@! TD*
G04 #@! TO.P,Q2,2*
G04 #@! TO.N,Net-(Q2-Pad2)*
X132080000Y-99060000D03*
G04 #@! TO.P,Q2,3*
G04 #@! TO.N,Net-(D2-Pad1)*
X133350000Y-99060000D03*
D26*
G04 #@! TO.P,Q2,1*
G04 #@! TO.N,GND*
X130810000Y-99060000D03*
G04 #@! TD*
D22*
G04 #@! TO.P,J6,3*
G04 #@! TO.N,GND*
X97790000Y-116332000D03*
G04 #@! TO.P,J6,2*
G04 #@! TO.N,int_2*
X100330000Y-116332000D03*
D21*
G04 #@! TO.P,J6,1*
G04 #@! TO.N,vcc*
X102870000Y-116332000D03*
G04 #@! TD*
G04 #@! TO.P,J7,1*
G04 #@! TO.N,N/C*
X112268000Y-110236000D03*
D22*
G04 #@! TO.P,J7,2*
G04 #@! TO.N,Net-(J7-Pad2)*
X112268000Y-112776000D03*
G04 #@! TO.P,J7,3*
G04 #@! TO.N,GND*
X112268000Y-115316000D03*
G04 #@! TD*
D28*
G04 #@! TO.N,Net-(C1-Pad1)*
X88900000Y-109220000D03*
X91948000Y-111760000D03*
X121158000Y-94996000D03*
X107442000Y-93980000D03*
G04 #@! TO.N,GND*
X92964000Y-108204000D03*
X104902000Y-108204000D03*
X108712000Y-114046000D03*
X121194500Y-116840000D03*
G04 #@! TO.N,Net-(R1-Pad1)*
X126492000Y-111252000D03*
G04 #@! TO.N,Net-(R2-Pad1)*
X124206000Y-117856000D03*
G04 #@! TO.N,Net-(J2-Pad1)*
X125984000Y-115570000D03*
X117348000Y-115824000D03*
G04 #@! TO.N,Net-(J2-Pad2)*
X119126000Y-114046000D03*
G04 #@! TO.N,vcc*
X91694000Y-114300000D03*
X88392000Y-119380000D03*
X121158000Y-109982000D03*
X105410000Y-111506000D03*
X110719972Y-106147972D03*
G04 #@! TO.N,Net-(Q1-Pad2)*
X116332000Y-101346000D03*
G04 #@! TO.N,int_1*
X113030000Y-104902000D03*
X121412000Y-103378000D03*
G04 #@! TO.N,Net-(J7-Pad2)*
X119380000Y-119380000D03*
X117602000Y-117348000D03*
G04 #@! TD*
D29*
G04 #@! TO.N,Net-(C1-Pad1)*
X88682500Y-107229000D02*
X88682500Y-108204000D01*
X88682500Y-103673700D02*
X88682500Y-107229000D01*
X88608800Y-103600000D02*
X88682500Y-103673700D01*
X87550000Y-103600000D02*
X88608800Y-103600000D01*
X88682500Y-108204000D02*
X88682500Y-109002500D01*
X88682500Y-109002500D02*
X88900000Y-109220000D01*
X93080000Y-111760000D02*
X93320000Y-112000000D01*
X91948000Y-111760000D02*
X93080000Y-111760000D01*
X121158000Y-94996000D02*
X120142000Y-93980000D01*
X120142000Y-93980000D02*
X107442000Y-93980000D01*
G04 #@! TO.N,GND*
X92964000Y-108204000D02*
X91657500Y-108204000D01*
X97522000Y-116600000D02*
X97790000Y-116332000D01*
X93320000Y-116600000D02*
X97522000Y-116600000D01*
X91657500Y-109179000D02*
X90678000Y-110158500D01*
X91657500Y-108204000D02*
X91657500Y-109179000D01*
X90678000Y-110158500D02*
X90678000Y-115824000D01*
X91454000Y-116600000D02*
X93320000Y-116600000D01*
X90678000Y-115824000D02*
X91454000Y-116600000D01*
X93320000Y-118770000D02*
X91440000Y-120650000D01*
X93320000Y-116600000D02*
X93320000Y-118770000D01*
X104902000Y-108204000D02*
X108712000Y-112014000D01*
X108712000Y-112014000D02*
X108712000Y-114046000D01*
X120620000Y-120680000D02*
X120620000Y-117414500D01*
X120620000Y-117414500D02*
X121194500Y-116840000D01*
G04 #@! TO.N,Net-(R1-Pad1)*
X130620000Y-106680000D02*
X130620000Y-107124000D01*
X130620000Y-107124000D02*
X126492000Y-111252000D01*
G04 #@! TO.N,Net-(R2-Pad1)*
X122620000Y-120680000D02*
X122620000Y-119442000D01*
X122620000Y-119442000D02*
X124206000Y-117856000D01*
G04 #@! TO.N,Relay_1*
X124620000Y-104812500D02*
X124620000Y-106680000D01*
X120355000Y-100547500D02*
X124620000Y-104812500D01*
X119380000Y-100547500D02*
X120355000Y-100547500D01*
G04 #@! TO.N,Relay_2*
X126501347Y-106561347D02*
X126620000Y-106680000D01*
X126501347Y-101318847D02*
X126501347Y-106561347D01*
X125730000Y-100547500D02*
X126501347Y-101318847D01*
G04 #@! TO.N,Net-(J2-Pad1)*
X134620000Y-120680000D02*
X134620000Y-119888000D01*
X134620000Y-119888000D02*
X130302000Y-115570000D01*
X130302000Y-115570000D02*
X125984000Y-115570000D01*
X115570000Y-117602000D02*
X115570000Y-120650000D01*
X117348000Y-115824000D02*
X115570000Y-117602000D01*
G04 #@! TO.N,Net-(J2-Pad2)*
X113030000Y-117602000D02*
X113030000Y-120650000D01*
X119126000Y-114046000D02*
X116586000Y-114046000D01*
X116586000Y-114046000D02*
X113030000Y-117602000D01*
G04 #@! TO.N,vcc*
X93320000Y-114300000D02*
X91694000Y-114300000D01*
X88392000Y-120577000D02*
X88465000Y-120650000D01*
X88392000Y-119380000D02*
X88392000Y-120577000D01*
X120620000Y-106680000D02*
X120620000Y-109444000D01*
X120620000Y-109444000D02*
X121158000Y-109982000D01*
X102870000Y-117486800D02*
X102870000Y-120650000D01*
X102870000Y-116332000D02*
X102870000Y-117486800D01*
X94624800Y-114300000D02*
X97164800Y-111760000D01*
X93320000Y-114300000D02*
X94624800Y-114300000D01*
X97164800Y-111760000D02*
X101092000Y-111760000D01*
X101092000Y-111760000D02*
X102870000Y-113538000D01*
X103124000Y-113792000D02*
X105410000Y-111506000D01*
X102870000Y-113792000D02*
X103124000Y-113792000D01*
X102870000Y-113792000D02*
X102870000Y-116332000D01*
X102870000Y-113538000D02*
X102870000Y-113792000D01*
X120087972Y-106147972D02*
X120620000Y-106680000D01*
X110719972Y-106147972D02*
X120087972Y-106147972D01*
G04 #@! TO.N,Net-(Q1-Pad2)*
X116332000Y-101346000D02*
X116840000Y-100838000D01*
X116840000Y-100112500D02*
X119380000Y-97572500D01*
X116840000Y-100838000D02*
X116840000Y-100112500D01*
G04 #@! TO.N,Net-(Q2-Pad2)*
X130875953Y-96801153D02*
X132080000Y-98005200D01*
X126501347Y-96801153D02*
X130875953Y-96801153D01*
X132080000Y-98005200D02*
X132080000Y-99060000D01*
X125730000Y-97572500D02*
X126501347Y-96801153D01*
G04 #@! TO.N,int_1*
X113030000Y-104902000D02*
X114554000Y-103378000D01*
X114554000Y-103378000D02*
X121412000Y-103378000D01*
G04 #@! TO.N,Net-(J7-Pad2)*
X119380000Y-119380000D02*
X119380000Y-119126000D01*
X119380000Y-119126000D02*
X117602000Y-117348000D01*
G04 #@! TD*
M02*
