M48
;DRILL file {KiCad 5.0.2-bee76a0~70~ubuntu18.10.1} date vie 17 may 2019 12:20:32 CEST
;FORMAT={-:-/ absolute / inch / decimal}
FMAT,2
INCH,TZ
T1C0.0157
T2C0.0256
T3C0.0295
T4C0.0315
T5C0.0394
T6C0.0508
T7C0.0520
T8C0.0598
%
G90
G05
T1
X3.48Y-4.7
X3.5Y-4.3
X3.61Y-4.5
X3.62Y-4.4
X3.66Y-4.26
X4.13Y-4.26
X4.15Y-4.39
X4.23Y-3.7
X4.28Y-4.49
X4.3591Y-4.1791
X4.45Y-4.13
X4.58Y-3.99
X4.62Y-4.56
X4.63Y-4.62
X4.69Y-4.49
X4.7Y-4.7
X4.77Y-3.74
X4.77Y-4.33
X4.7714Y-4.6
X4.78Y-4.07
X4.89Y-4.64
X4.96Y-4.55
X4.98Y-4.38
T2
X4.7488Y-4.2
X4.7488Y-4.7512
X4.8276Y-4.2
X4.8276Y-4.7512
X4.9063Y-4.2
X4.9063Y-4.7512
X4.985Y-4.2
X4.985Y-4.7512
X5.0638Y-4.2
X5.0638Y-4.7512
X5.1425Y-4.2
X5.1425Y-4.7512
X5.2213Y-4.2
X5.2213Y-4.7512
X5.3Y-4.2
X5.3Y-4.7512
T3
X5.15Y-3.9
X5.2Y-3.9
X5.25Y-3.9
X4.4Y-3.9
X4.45Y-3.9
X4.5Y-3.9
T4
X4.3612Y-3.6398
X4.6612Y-3.6398
X5.0522Y-3.6407
X5.3522Y-3.6407
T5
X3.4469Y-4.0787
X3.6516Y-2.9213
X3.8484Y-2.9213
X4.0531Y-4.0787
X4.42Y-4.34
X4.42Y-4.44
X4.42Y-4.54
X3.85Y-4.58
X3.95Y-4.58
X4.05Y-4.58
X4.35Y-4.75
X4.45Y-4.75
X4.55Y-4.75
X3.85Y-4.75
X3.95Y-4.75
X4.05Y-4.75
T6
X5.25Y-3.4689
X4.55Y-3.4689
T7
X5.0138Y-2.9098
X5.0138Y-3.3902
X5.4862Y-2.9098
X5.4862Y-3.3902
X4.3138Y-2.9098
X4.3138Y-3.3902
X4.7862Y-2.9098
X4.7862Y-3.3902
T8
X4.35Y-2.55
X4.55Y-2.55
X4.75Y-2.55
X5.05Y-2.55
X5.25Y-2.55
X5.45Y-2.55
X3.65Y-2.55
X3.85Y-2.55
T0
M30
