G04 #@! TF.GenerationSoftware,KiCad,Pcbnew,5.0.2-bee76a0~70~ubuntu18.10.1*
G04 #@! TF.CreationDate,2019-05-17T12:20:37+02:00*
G04 #@! TF.ProjectId,interruptor,696e7465-7272-4757-9074-6f722e6b6963,rev?*
G04 #@! TF.SameCoordinates,Original*
G04 #@! TF.FileFunction,Soldermask,Top*
G04 #@! TF.FilePolarity,Negative*
%FSLAX46Y46*%
G04 Gerber Fmt 4.6, Leading zero omitted, Abs format (unit mm)*
G04 Created by KiCad (PCBNEW 5.0.2-bee76a0~70~ubuntu18.10.1) date vie 17 may 2019 12:20:37 CEST*
%MOMM*%
%LPD*%
G01*
G04 APERTURE LIST*
%ADD10C,0.100000*%
G04 APERTURE END LIST*
D10*
G36*
X120737818Y-120087696D02*
X120851105Y-120122062D01*
X120955513Y-120177869D01*
X121047027Y-120252973D01*
X121122131Y-120344487D01*
X121177938Y-120448895D01*
X121212304Y-120562182D01*
X121221000Y-120650481D01*
X121221000Y-122109519D01*
X121212304Y-122197818D01*
X121177938Y-122311105D01*
X121126666Y-122407027D01*
X121122130Y-122415513D01*
X121047027Y-122507027D01*
X121009362Y-122537937D01*
X120955512Y-122582131D01*
X120851104Y-122637938D01*
X120737817Y-122672304D01*
X120620000Y-122683907D01*
X120502182Y-122672304D01*
X120388895Y-122637938D01*
X120284488Y-122582131D01*
X120270572Y-122570711D01*
X120192973Y-122507027D01*
X120159120Y-122465776D01*
X120117869Y-122415512D01*
X120062062Y-122311104D01*
X120027696Y-122197817D01*
X120019000Y-122109518D01*
X120019001Y-120650481D01*
X120027697Y-120562182D01*
X120062063Y-120448895D01*
X120117870Y-120344487D01*
X120192974Y-120252973D01*
X120284488Y-120177869D01*
X120388896Y-120122062D01*
X120502183Y-120087696D01*
X120620000Y-120076093D01*
X120737818Y-120087696D01*
X120737818Y-120087696D01*
G37*
G36*
X124737818Y-120087696D02*
X124851105Y-120122062D01*
X124955513Y-120177869D01*
X125047027Y-120252973D01*
X125122131Y-120344487D01*
X125177938Y-120448895D01*
X125212304Y-120562182D01*
X125221000Y-120650481D01*
X125221000Y-122109519D01*
X125212304Y-122197818D01*
X125177938Y-122311105D01*
X125126666Y-122407027D01*
X125122130Y-122415513D01*
X125047027Y-122507027D01*
X125009362Y-122537937D01*
X124955512Y-122582131D01*
X124851104Y-122637938D01*
X124737817Y-122672304D01*
X124620000Y-122683907D01*
X124502182Y-122672304D01*
X124388895Y-122637938D01*
X124284488Y-122582131D01*
X124270572Y-122570711D01*
X124192973Y-122507027D01*
X124159120Y-122465776D01*
X124117869Y-122415512D01*
X124062062Y-122311104D01*
X124027696Y-122197817D01*
X124019000Y-122109518D01*
X124019001Y-120650481D01*
X124027697Y-120562182D01*
X124062063Y-120448895D01*
X124117870Y-120344487D01*
X124192974Y-120252973D01*
X124284488Y-120177869D01*
X124388896Y-120122062D01*
X124502183Y-120087696D01*
X124620000Y-120076093D01*
X124737818Y-120087696D01*
X124737818Y-120087696D01*
G37*
G36*
X134737818Y-120087696D02*
X134851105Y-120122062D01*
X134955513Y-120177869D01*
X135047027Y-120252973D01*
X135122131Y-120344487D01*
X135177938Y-120448895D01*
X135212304Y-120562182D01*
X135221000Y-120650481D01*
X135221000Y-122109519D01*
X135212304Y-122197818D01*
X135177938Y-122311105D01*
X135126666Y-122407027D01*
X135122130Y-122415513D01*
X135047027Y-122507027D01*
X135009362Y-122537937D01*
X134955512Y-122582131D01*
X134851104Y-122637938D01*
X134737817Y-122672304D01*
X134620000Y-122683907D01*
X134502182Y-122672304D01*
X134388895Y-122637938D01*
X134284488Y-122582131D01*
X134270572Y-122570711D01*
X134192973Y-122507027D01*
X134159120Y-122465776D01*
X134117869Y-122415512D01*
X134062062Y-122311104D01*
X134027696Y-122197817D01*
X134019000Y-122109518D01*
X134019001Y-120650481D01*
X134027697Y-120562182D01*
X134062063Y-120448895D01*
X134117870Y-120344487D01*
X134192974Y-120252973D01*
X134284488Y-120177869D01*
X134388896Y-120122062D01*
X134502183Y-120087696D01*
X134620000Y-120076093D01*
X134737818Y-120087696D01*
X134737818Y-120087696D01*
G37*
G36*
X132737818Y-120087696D02*
X132851105Y-120122062D01*
X132955513Y-120177869D01*
X133047027Y-120252973D01*
X133122131Y-120344487D01*
X133177938Y-120448895D01*
X133212304Y-120562182D01*
X133221000Y-120650481D01*
X133221000Y-122109519D01*
X133212304Y-122197818D01*
X133177938Y-122311105D01*
X133126666Y-122407027D01*
X133122130Y-122415513D01*
X133047027Y-122507027D01*
X133009362Y-122537937D01*
X132955512Y-122582131D01*
X132851104Y-122637938D01*
X132737817Y-122672304D01*
X132620000Y-122683907D01*
X132502182Y-122672304D01*
X132388895Y-122637938D01*
X132284488Y-122582131D01*
X132270572Y-122570711D01*
X132192973Y-122507027D01*
X132159120Y-122465776D01*
X132117869Y-122415512D01*
X132062062Y-122311104D01*
X132027696Y-122197817D01*
X132019000Y-122109518D01*
X132019001Y-120650481D01*
X132027697Y-120562182D01*
X132062063Y-120448895D01*
X132117870Y-120344487D01*
X132192974Y-120252973D01*
X132284488Y-120177869D01*
X132388896Y-120122062D01*
X132502183Y-120087696D01*
X132620000Y-120076093D01*
X132737818Y-120087696D01*
X132737818Y-120087696D01*
G37*
G36*
X128737818Y-120087696D02*
X128851105Y-120122062D01*
X128955513Y-120177869D01*
X129047027Y-120252973D01*
X129122131Y-120344487D01*
X129177938Y-120448895D01*
X129212304Y-120562182D01*
X129221000Y-120650481D01*
X129221000Y-122109519D01*
X129212304Y-122197818D01*
X129177938Y-122311105D01*
X129126666Y-122407027D01*
X129122130Y-122415513D01*
X129047027Y-122507027D01*
X129009362Y-122537937D01*
X128955512Y-122582131D01*
X128851104Y-122637938D01*
X128737817Y-122672304D01*
X128620000Y-122683907D01*
X128502182Y-122672304D01*
X128388895Y-122637938D01*
X128284488Y-122582131D01*
X128270572Y-122570711D01*
X128192973Y-122507027D01*
X128159120Y-122465776D01*
X128117869Y-122415512D01*
X128062062Y-122311104D01*
X128027696Y-122197817D01*
X128019000Y-122109518D01*
X128019001Y-120650481D01*
X128027697Y-120562182D01*
X128062063Y-120448895D01*
X128117870Y-120344487D01*
X128192974Y-120252973D01*
X128284488Y-120177869D01*
X128388896Y-120122062D01*
X128502183Y-120087696D01*
X128620000Y-120076093D01*
X128737818Y-120087696D01*
X128737818Y-120087696D01*
G37*
G36*
X130737818Y-120087696D02*
X130851105Y-120122062D01*
X130955513Y-120177869D01*
X131047027Y-120252973D01*
X131122131Y-120344487D01*
X131177938Y-120448895D01*
X131212304Y-120562182D01*
X131221000Y-120650481D01*
X131221000Y-122109519D01*
X131212304Y-122197818D01*
X131177938Y-122311105D01*
X131126666Y-122407027D01*
X131122130Y-122415513D01*
X131047027Y-122507027D01*
X131009362Y-122537937D01*
X130955512Y-122582131D01*
X130851104Y-122637938D01*
X130737817Y-122672304D01*
X130620000Y-122683907D01*
X130502182Y-122672304D01*
X130388895Y-122637938D01*
X130284488Y-122582131D01*
X130270572Y-122570711D01*
X130192973Y-122507027D01*
X130159120Y-122465776D01*
X130117869Y-122415512D01*
X130062062Y-122311104D01*
X130027696Y-122197817D01*
X130019000Y-122109518D01*
X130019001Y-120650481D01*
X130027697Y-120562182D01*
X130062063Y-120448895D01*
X130117870Y-120344487D01*
X130192974Y-120252973D01*
X130284488Y-120177869D01*
X130388896Y-120122062D01*
X130502183Y-120087696D01*
X130620000Y-120076093D01*
X130737818Y-120087696D01*
X130737818Y-120087696D01*
G37*
G36*
X126737818Y-120087696D02*
X126851105Y-120122062D01*
X126955513Y-120177869D01*
X127047027Y-120252973D01*
X127122131Y-120344487D01*
X127177938Y-120448895D01*
X127212304Y-120562182D01*
X127221000Y-120650481D01*
X127221000Y-122109519D01*
X127212304Y-122197818D01*
X127177938Y-122311105D01*
X127126666Y-122407027D01*
X127122130Y-122415513D01*
X127047027Y-122507027D01*
X127009362Y-122537937D01*
X126955512Y-122582131D01*
X126851104Y-122637938D01*
X126737817Y-122672304D01*
X126620000Y-122683907D01*
X126502182Y-122672304D01*
X126388895Y-122637938D01*
X126284488Y-122582131D01*
X126270572Y-122570711D01*
X126192973Y-122507027D01*
X126159120Y-122465776D01*
X126117869Y-122415512D01*
X126062062Y-122311104D01*
X126027696Y-122197817D01*
X126019000Y-122109518D01*
X126019001Y-120650481D01*
X126027697Y-120562182D01*
X126062063Y-120448895D01*
X126117870Y-120344487D01*
X126192974Y-120252973D01*
X126284488Y-120177869D01*
X126388896Y-120122062D01*
X126502183Y-120087696D01*
X126620000Y-120076093D01*
X126737818Y-120087696D01*
X126737818Y-120087696D01*
G37*
G36*
X122737818Y-119987696D02*
X122851105Y-120022062D01*
X122955513Y-120077869D01*
X123047027Y-120152973D01*
X123122131Y-120244487D01*
X123177938Y-120348895D01*
X123212304Y-120462182D01*
X123221000Y-120550481D01*
X123221000Y-122009519D01*
X123212304Y-122097818D01*
X123177938Y-122211105D01*
X123122131Y-122315512D01*
X123122130Y-122315513D01*
X123047027Y-122407027D01*
X123005776Y-122440880D01*
X122955512Y-122482131D01*
X122851104Y-122537938D01*
X122737817Y-122572304D01*
X122620000Y-122583907D01*
X122502182Y-122572304D01*
X122388895Y-122537938D01*
X122284488Y-122482131D01*
X122270572Y-122470711D01*
X122192973Y-122407027D01*
X122159120Y-122365776D01*
X122117869Y-122315512D01*
X122062062Y-122211104D01*
X122027696Y-122097817D01*
X122019000Y-122009518D01*
X122019001Y-120550481D01*
X122027697Y-120462182D01*
X122062063Y-120348895D01*
X122117870Y-120244487D01*
X122192974Y-120152973D01*
X122284488Y-120077869D01*
X122388896Y-120022062D01*
X122502183Y-119987696D01*
X122620000Y-119976093D01*
X122737818Y-119987696D01*
X122737818Y-119987696D01*
G37*
G36*
X92053062Y-119728181D02*
X92087977Y-119738773D01*
X92120165Y-119755978D01*
X92148373Y-119779127D01*
X92171522Y-119807335D01*
X92188727Y-119839523D01*
X92199319Y-119874438D01*
X92203500Y-119916895D01*
X92203500Y-121383105D01*
X92199319Y-121425562D01*
X92188727Y-121460477D01*
X92171522Y-121492665D01*
X92148373Y-121520873D01*
X92120165Y-121544022D01*
X92087977Y-121561227D01*
X92053062Y-121571819D01*
X92010605Y-121576000D01*
X90869395Y-121576000D01*
X90826938Y-121571819D01*
X90792023Y-121561227D01*
X90759835Y-121544022D01*
X90731627Y-121520873D01*
X90708478Y-121492665D01*
X90691273Y-121460477D01*
X90680681Y-121425562D01*
X90676500Y-121383105D01*
X90676500Y-119916895D01*
X90680681Y-119874438D01*
X90691273Y-119839523D01*
X90708478Y-119807335D01*
X90731627Y-119779127D01*
X90759835Y-119755978D01*
X90792023Y-119738773D01*
X90826938Y-119728181D01*
X90869395Y-119724000D01*
X92010605Y-119724000D01*
X92053062Y-119728181D01*
X92053062Y-119728181D01*
G37*
G36*
X89078062Y-119728181D02*
X89112977Y-119738773D01*
X89145165Y-119755978D01*
X89173373Y-119779127D01*
X89196522Y-119807335D01*
X89213727Y-119839523D01*
X89224319Y-119874438D01*
X89228500Y-119916895D01*
X89228500Y-121383105D01*
X89224319Y-121425562D01*
X89213727Y-121460477D01*
X89196522Y-121492665D01*
X89173373Y-121520873D01*
X89145165Y-121544022D01*
X89112977Y-121561227D01*
X89078062Y-121571819D01*
X89035605Y-121576000D01*
X87894395Y-121576000D01*
X87851938Y-121571819D01*
X87817023Y-121561227D01*
X87784835Y-121544022D01*
X87756627Y-121520873D01*
X87733478Y-121492665D01*
X87716273Y-121460477D01*
X87705681Y-121425562D01*
X87701500Y-121383105D01*
X87701500Y-119916895D01*
X87705681Y-119874438D01*
X87716273Y-119839523D01*
X87733478Y-119807335D01*
X87756627Y-119779127D01*
X87784835Y-119755978D01*
X87817023Y-119738773D01*
X87851938Y-119728181D01*
X87894395Y-119724000D01*
X89035605Y-119724000D01*
X89078062Y-119728181D01*
X89078062Y-119728181D01*
G37*
G36*
X100440442Y-119755518D02*
X100506627Y-119762037D01*
X100619853Y-119796384D01*
X100676467Y-119813557D01*
X100815087Y-119887652D01*
X100832991Y-119897222D01*
X100856962Y-119916895D01*
X100970186Y-120009814D01*
X101026036Y-120077869D01*
X101082778Y-120147009D01*
X101082779Y-120147011D01*
X101166443Y-120303533D01*
X101166443Y-120303534D01*
X101217963Y-120473373D01*
X101235359Y-120650000D01*
X101217963Y-120826627D01*
X101183616Y-120939853D01*
X101166443Y-120996467D01*
X101092348Y-121135087D01*
X101082778Y-121152991D01*
X101053448Y-121188729D01*
X100970186Y-121290186D01*
X100868729Y-121373448D01*
X100832991Y-121402778D01*
X100832989Y-121402779D01*
X100676467Y-121486443D01*
X100655955Y-121492665D01*
X100506627Y-121537963D01*
X100445108Y-121544022D01*
X100374260Y-121551000D01*
X100285740Y-121551000D01*
X100214892Y-121544022D01*
X100153373Y-121537963D01*
X100004045Y-121492665D01*
X99983533Y-121486443D01*
X99827011Y-121402779D01*
X99827009Y-121402778D01*
X99791271Y-121373448D01*
X99689814Y-121290186D01*
X99606552Y-121188729D01*
X99577222Y-121152991D01*
X99567652Y-121135087D01*
X99493557Y-120996467D01*
X99476384Y-120939853D01*
X99442037Y-120826627D01*
X99424641Y-120650000D01*
X99442037Y-120473373D01*
X99493557Y-120303534D01*
X99493557Y-120303533D01*
X99577221Y-120147011D01*
X99577222Y-120147009D01*
X99633964Y-120077869D01*
X99689814Y-120009814D01*
X99803038Y-119916895D01*
X99827009Y-119897222D01*
X99844913Y-119887652D01*
X99983533Y-119813557D01*
X100040147Y-119796384D01*
X100153373Y-119762037D01*
X100219558Y-119755518D01*
X100285740Y-119749000D01*
X100374260Y-119749000D01*
X100440442Y-119755518D01*
X100440442Y-119755518D01*
G37*
G36*
X116471000Y-121551000D02*
X114669000Y-121551000D01*
X114669000Y-119749000D01*
X116471000Y-119749000D01*
X116471000Y-121551000D01*
X116471000Y-121551000D01*
G37*
G36*
X113140442Y-119755518D02*
X113206627Y-119762037D01*
X113319853Y-119796384D01*
X113376467Y-119813557D01*
X113515087Y-119887652D01*
X113532991Y-119897222D01*
X113556962Y-119916895D01*
X113670186Y-120009814D01*
X113726036Y-120077869D01*
X113782778Y-120147009D01*
X113782779Y-120147011D01*
X113866443Y-120303533D01*
X113866443Y-120303534D01*
X113917963Y-120473373D01*
X113935359Y-120650000D01*
X113917963Y-120826627D01*
X113883616Y-120939853D01*
X113866443Y-120996467D01*
X113792348Y-121135087D01*
X113782778Y-121152991D01*
X113753448Y-121188729D01*
X113670186Y-121290186D01*
X113568729Y-121373448D01*
X113532991Y-121402778D01*
X113532989Y-121402779D01*
X113376467Y-121486443D01*
X113355955Y-121492665D01*
X113206627Y-121537963D01*
X113145108Y-121544022D01*
X113074260Y-121551000D01*
X112985740Y-121551000D01*
X112914892Y-121544022D01*
X112853373Y-121537963D01*
X112704045Y-121492665D01*
X112683533Y-121486443D01*
X112527011Y-121402779D01*
X112527009Y-121402778D01*
X112491271Y-121373448D01*
X112389814Y-121290186D01*
X112306552Y-121188729D01*
X112277222Y-121152991D01*
X112267652Y-121135087D01*
X112193557Y-120996467D01*
X112176384Y-120939853D01*
X112142037Y-120826627D01*
X112124641Y-120650000D01*
X112142037Y-120473373D01*
X112193557Y-120303534D01*
X112193557Y-120303533D01*
X112277221Y-120147011D01*
X112277222Y-120147009D01*
X112333964Y-120077869D01*
X112389814Y-120009814D01*
X112503038Y-119916895D01*
X112527009Y-119897222D01*
X112544913Y-119887652D01*
X112683533Y-119813557D01*
X112740147Y-119796384D01*
X112853373Y-119762037D01*
X112919558Y-119755518D01*
X112985740Y-119749000D01*
X113074260Y-119749000D01*
X113140442Y-119755518D01*
X113140442Y-119755518D01*
G37*
G36*
X110600442Y-119755518D02*
X110666627Y-119762037D01*
X110779853Y-119796384D01*
X110836467Y-119813557D01*
X110975087Y-119887652D01*
X110992991Y-119897222D01*
X111016962Y-119916895D01*
X111130186Y-120009814D01*
X111186036Y-120077869D01*
X111242778Y-120147009D01*
X111242779Y-120147011D01*
X111326443Y-120303533D01*
X111326443Y-120303534D01*
X111377963Y-120473373D01*
X111395359Y-120650000D01*
X111377963Y-120826627D01*
X111343616Y-120939853D01*
X111326443Y-120996467D01*
X111252348Y-121135087D01*
X111242778Y-121152991D01*
X111213448Y-121188729D01*
X111130186Y-121290186D01*
X111028729Y-121373448D01*
X110992991Y-121402778D01*
X110992989Y-121402779D01*
X110836467Y-121486443D01*
X110815955Y-121492665D01*
X110666627Y-121537963D01*
X110605108Y-121544022D01*
X110534260Y-121551000D01*
X110445740Y-121551000D01*
X110374892Y-121544022D01*
X110313373Y-121537963D01*
X110164045Y-121492665D01*
X110143533Y-121486443D01*
X109987011Y-121402779D01*
X109987009Y-121402778D01*
X109951271Y-121373448D01*
X109849814Y-121290186D01*
X109766552Y-121188729D01*
X109737222Y-121152991D01*
X109727652Y-121135087D01*
X109653557Y-120996467D01*
X109636384Y-120939853D01*
X109602037Y-120826627D01*
X109584641Y-120650000D01*
X109602037Y-120473373D01*
X109653557Y-120303534D01*
X109653557Y-120303533D01*
X109737221Y-120147011D01*
X109737222Y-120147009D01*
X109793964Y-120077869D01*
X109849814Y-120009814D01*
X109963038Y-119916895D01*
X109987009Y-119897222D01*
X110004913Y-119887652D01*
X110143533Y-119813557D01*
X110200147Y-119796384D01*
X110313373Y-119762037D01*
X110379558Y-119755518D01*
X110445740Y-119749000D01*
X110534260Y-119749000D01*
X110600442Y-119755518D01*
X110600442Y-119755518D01*
G37*
G36*
X103771000Y-121551000D02*
X101969000Y-121551000D01*
X101969000Y-119749000D01*
X103771000Y-119749000D01*
X103771000Y-121551000D01*
X103771000Y-121551000D01*
G37*
G36*
X97900442Y-119755518D02*
X97966627Y-119762037D01*
X98079853Y-119796384D01*
X98136467Y-119813557D01*
X98275087Y-119887652D01*
X98292991Y-119897222D01*
X98316962Y-119916895D01*
X98430186Y-120009814D01*
X98486036Y-120077869D01*
X98542778Y-120147009D01*
X98542779Y-120147011D01*
X98626443Y-120303533D01*
X98626443Y-120303534D01*
X98677963Y-120473373D01*
X98695359Y-120650000D01*
X98677963Y-120826627D01*
X98643616Y-120939853D01*
X98626443Y-120996467D01*
X98552348Y-121135087D01*
X98542778Y-121152991D01*
X98513448Y-121188729D01*
X98430186Y-121290186D01*
X98328729Y-121373448D01*
X98292991Y-121402778D01*
X98292989Y-121402779D01*
X98136467Y-121486443D01*
X98115955Y-121492665D01*
X97966627Y-121537963D01*
X97905108Y-121544022D01*
X97834260Y-121551000D01*
X97745740Y-121551000D01*
X97674892Y-121544022D01*
X97613373Y-121537963D01*
X97464045Y-121492665D01*
X97443533Y-121486443D01*
X97287011Y-121402779D01*
X97287009Y-121402778D01*
X97251271Y-121373448D01*
X97149814Y-121290186D01*
X97066552Y-121188729D01*
X97037222Y-121152991D01*
X97027652Y-121135087D01*
X96953557Y-120996467D01*
X96936384Y-120939853D01*
X96902037Y-120826627D01*
X96884641Y-120650000D01*
X96902037Y-120473373D01*
X96953557Y-120303534D01*
X96953557Y-120303533D01*
X97037221Y-120147011D01*
X97037222Y-120147009D01*
X97093964Y-120077869D01*
X97149814Y-120009814D01*
X97263038Y-119916895D01*
X97287009Y-119897222D01*
X97304913Y-119887652D01*
X97443533Y-119813557D01*
X97500147Y-119796384D01*
X97613373Y-119762037D01*
X97679558Y-119755518D01*
X97745740Y-119749000D01*
X97834260Y-119749000D01*
X97900442Y-119755518D01*
X97900442Y-119755518D01*
G37*
G36*
X94371000Y-117401000D02*
X92269000Y-117401000D01*
X92269000Y-115799000D01*
X94371000Y-115799000D01*
X94371000Y-117401000D01*
X94371000Y-117401000D01*
G37*
G36*
X103771000Y-117233000D02*
X101969000Y-117233000D01*
X101969000Y-115431000D01*
X103771000Y-115431000D01*
X103771000Y-117233000D01*
X103771000Y-117233000D01*
G37*
G36*
X100440442Y-115437518D02*
X100506627Y-115444037D01*
X100619853Y-115478384D01*
X100676467Y-115495557D01*
X100815087Y-115569652D01*
X100832991Y-115579222D01*
X100868729Y-115608552D01*
X100970186Y-115691814D01*
X101053448Y-115793271D01*
X101082778Y-115829009D01*
X101082779Y-115829011D01*
X101166443Y-115985533D01*
X101166443Y-115985534D01*
X101217963Y-116155373D01*
X101235359Y-116332000D01*
X101217963Y-116508627D01*
X101183616Y-116621853D01*
X101166443Y-116678467D01*
X101092348Y-116817087D01*
X101082778Y-116834991D01*
X101053448Y-116870729D01*
X100970186Y-116972186D01*
X100868729Y-117055448D01*
X100832991Y-117084778D01*
X100832989Y-117084779D01*
X100676467Y-117168443D01*
X100619853Y-117185616D01*
X100506627Y-117219963D01*
X100440442Y-117226482D01*
X100374260Y-117233000D01*
X100285740Y-117233000D01*
X100219558Y-117226482D01*
X100153373Y-117219963D01*
X100040147Y-117185616D01*
X99983533Y-117168443D01*
X99827011Y-117084779D01*
X99827009Y-117084778D01*
X99791271Y-117055448D01*
X99689814Y-116972186D01*
X99606552Y-116870729D01*
X99577222Y-116834991D01*
X99567652Y-116817087D01*
X99493557Y-116678467D01*
X99476384Y-116621853D01*
X99442037Y-116508627D01*
X99424641Y-116332000D01*
X99442037Y-116155373D01*
X99493557Y-115985534D01*
X99493557Y-115985533D01*
X99577221Y-115829011D01*
X99577222Y-115829009D01*
X99606552Y-115793271D01*
X99689814Y-115691814D01*
X99791271Y-115608552D01*
X99827009Y-115579222D01*
X99844913Y-115569652D01*
X99983533Y-115495557D01*
X100040147Y-115478384D01*
X100153373Y-115444037D01*
X100219558Y-115437518D01*
X100285740Y-115431000D01*
X100374260Y-115431000D01*
X100440442Y-115437518D01*
X100440442Y-115437518D01*
G37*
G36*
X97900442Y-115437518D02*
X97966627Y-115444037D01*
X98079853Y-115478384D01*
X98136467Y-115495557D01*
X98275087Y-115569652D01*
X98292991Y-115579222D01*
X98328729Y-115608552D01*
X98430186Y-115691814D01*
X98513448Y-115793271D01*
X98542778Y-115829009D01*
X98542779Y-115829011D01*
X98626443Y-115985533D01*
X98626443Y-115985534D01*
X98677963Y-116155373D01*
X98695359Y-116332000D01*
X98677963Y-116508627D01*
X98643616Y-116621853D01*
X98626443Y-116678467D01*
X98552348Y-116817087D01*
X98542778Y-116834991D01*
X98513448Y-116870729D01*
X98430186Y-116972186D01*
X98328729Y-117055448D01*
X98292991Y-117084778D01*
X98292989Y-117084779D01*
X98136467Y-117168443D01*
X98079853Y-117185616D01*
X97966627Y-117219963D01*
X97900442Y-117226482D01*
X97834260Y-117233000D01*
X97745740Y-117233000D01*
X97679558Y-117226482D01*
X97613373Y-117219963D01*
X97500147Y-117185616D01*
X97443533Y-117168443D01*
X97287011Y-117084779D01*
X97287009Y-117084778D01*
X97251271Y-117055448D01*
X97149814Y-116972186D01*
X97066552Y-116870729D01*
X97037222Y-116834991D01*
X97027652Y-116817087D01*
X96953557Y-116678467D01*
X96936384Y-116621853D01*
X96902037Y-116508627D01*
X96884641Y-116332000D01*
X96902037Y-116155373D01*
X96953557Y-115985534D01*
X96953557Y-115985533D01*
X97037221Y-115829011D01*
X97037222Y-115829009D01*
X97066552Y-115793271D01*
X97149814Y-115691814D01*
X97251271Y-115608552D01*
X97287009Y-115579222D01*
X97304913Y-115569652D01*
X97443533Y-115495557D01*
X97500147Y-115478384D01*
X97613373Y-115444037D01*
X97679558Y-115437518D01*
X97745740Y-115431000D01*
X97834260Y-115431000D01*
X97900442Y-115437518D01*
X97900442Y-115437518D01*
G37*
G36*
X88071000Y-116251000D02*
X85969000Y-116251000D01*
X85969000Y-112349000D01*
X88071000Y-112349000D01*
X88071000Y-116251000D01*
X88071000Y-116251000D01*
G37*
G36*
X112378442Y-114421518D02*
X112444627Y-114428037D01*
X112557853Y-114462384D01*
X112614467Y-114479557D01*
X112753087Y-114553652D01*
X112770991Y-114563222D01*
X112806729Y-114592552D01*
X112908186Y-114675814D01*
X112991448Y-114777271D01*
X113020778Y-114813009D01*
X113020779Y-114813011D01*
X113104443Y-114969533D01*
X113104443Y-114969534D01*
X113155963Y-115139373D01*
X113173359Y-115316000D01*
X113155963Y-115492627D01*
X113155074Y-115495557D01*
X113104443Y-115662467D01*
X113030348Y-115801087D01*
X113020778Y-115818991D01*
X112991448Y-115854729D01*
X112908186Y-115956186D01*
X112806729Y-116039448D01*
X112770991Y-116068778D01*
X112770989Y-116068779D01*
X112614467Y-116152443D01*
X112557853Y-116169616D01*
X112444627Y-116203963D01*
X112378443Y-116210481D01*
X112312260Y-116217000D01*
X112223740Y-116217000D01*
X112157557Y-116210481D01*
X112091373Y-116203963D01*
X111978147Y-116169616D01*
X111921533Y-116152443D01*
X111765011Y-116068779D01*
X111765009Y-116068778D01*
X111729271Y-116039448D01*
X111627814Y-115956186D01*
X111544552Y-115854729D01*
X111515222Y-115818991D01*
X111505652Y-115801087D01*
X111431557Y-115662467D01*
X111380926Y-115495557D01*
X111380037Y-115492627D01*
X111362641Y-115316000D01*
X111380037Y-115139373D01*
X111431557Y-114969534D01*
X111431557Y-114969533D01*
X111515221Y-114813011D01*
X111515222Y-114813009D01*
X111544552Y-114777271D01*
X111627814Y-114675814D01*
X111729271Y-114592552D01*
X111765009Y-114563222D01*
X111782913Y-114553652D01*
X111921533Y-114479557D01*
X111978147Y-114462384D01*
X112091373Y-114428037D01*
X112157558Y-114421518D01*
X112223740Y-114415000D01*
X112312260Y-114415000D01*
X112378442Y-114421518D01*
X112378442Y-114421518D01*
G37*
G36*
X94371000Y-115101000D02*
X92269000Y-115101000D01*
X92269000Y-113499000D01*
X94371000Y-113499000D01*
X94371000Y-115101000D01*
X94371000Y-115101000D01*
G37*
G36*
X112378442Y-111881518D02*
X112444627Y-111888037D01*
X112557853Y-111922384D01*
X112614467Y-111939557D01*
X112753087Y-112013652D01*
X112770991Y-112023222D01*
X112806729Y-112052552D01*
X112908186Y-112135814D01*
X112991448Y-112237271D01*
X113020778Y-112273009D01*
X113020779Y-112273011D01*
X113104443Y-112429533D01*
X113104443Y-112429534D01*
X113155963Y-112599373D01*
X113173359Y-112776000D01*
X113155963Y-112952627D01*
X113121616Y-113065853D01*
X113104443Y-113122467D01*
X113030348Y-113261087D01*
X113020778Y-113278991D01*
X112991448Y-113314729D01*
X112908186Y-113416186D01*
X112807275Y-113499000D01*
X112770991Y-113528778D01*
X112770989Y-113528779D01*
X112614467Y-113612443D01*
X112557853Y-113629616D01*
X112444627Y-113663963D01*
X112378443Y-113670481D01*
X112312260Y-113677000D01*
X112223740Y-113677000D01*
X112157557Y-113670481D01*
X112091373Y-113663963D01*
X111978147Y-113629616D01*
X111921533Y-113612443D01*
X111765011Y-113528779D01*
X111765009Y-113528778D01*
X111728725Y-113499000D01*
X111627814Y-113416186D01*
X111544552Y-113314729D01*
X111515222Y-113278991D01*
X111505652Y-113261087D01*
X111431557Y-113122467D01*
X111414384Y-113065853D01*
X111380037Y-112952627D01*
X111362641Y-112776000D01*
X111380037Y-112599373D01*
X111431557Y-112429534D01*
X111431557Y-112429533D01*
X111515221Y-112273011D01*
X111515222Y-112273009D01*
X111544552Y-112237271D01*
X111627814Y-112135814D01*
X111729271Y-112052552D01*
X111765009Y-112023222D01*
X111782913Y-112013652D01*
X111921533Y-111939557D01*
X111978147Y-111922384D01*
X112091373Y-111888037D01*
X112157558Y-111881518D01*
X112223740Y-111875000D01*
X112312260Y-111875000D01*
X112378442Y-111881518D01*
X112378442Y-111881518D01*
G37*
G36*
X94371000Y-112801000D02*
X92269000Y-112801000D01*
X92269000Y-111199000D01*
X94371000Y-111199000D01*
X94371000Y-112801000D01*
X94371000Y-112801000D01*
G37*
G36*
X113169000Y-111137000D02*
X111367000Y-111137000D01*
X111367000Y-109335000D01*
X113169000Y-109335000D01*
X113169000Y-111137000D01*
X113169000Y-111137000D01*
G37*
G36*
X89295562Y-107282181D02*
X89330477Y-107292773D01*
X89362665Y-107309978D01*
X89390873Y-107333127D01*
X89414022Y-107361335D01*
X89431227Y-107393523D01*
X89441819Y-107428438D01*
X89446000Y-107470895D01*
X89446000Y-108937105D01*
X89441819Y-108979562D01*
X89431227Y-109014477D01*
X89414022Y-109046665D01*
X89390873Y-109074873D01*
X89362665Y-109098022D01*
X89330477Y-109115227D01*
X89295562Y-109125819D01*
X89253105Y-109130000D01*
X88111895Y-109130000D01*
X88069438Y-109125819D01*
X88034523Y-109115227D01*
X88002335Y-109098022D01*
X87974127Y-109074873D01*
X87950978Y-109046665D01*
X87933773Y-109014477D01*
X87923181Y-108979562D01*
X87919000Y-108937105D01*
X87919000Y-107470895D01*
X87923181Y-107428438D01*
X87933773Y-107393523D01*
X87950978Y-107361335D01*
X87974127Y-107333127D01*
X88002335Y-107309978D01*
X88034523Y-107292773D01*
X88069438Y-107282181D01*
X88111895Y-107278000D01*
X89253105Y-107278000D01*
X89295562Y-107282181D01*
X89295562Y-107282181D01*
G37*
G36*
X92270562Y-107282181D02*
X92305477Y-107292773D01*
X92337665Y-107309978D01*
X92365873Y-107333127D01*
X92389022Y-107361335D01*
X92406227Y-107393523D01*
X92416819Y-107428438D01*
X92421000Y-107470895D01*
X92421000Y-108937105D01*
X92416819Y-108979562D01*
X92406227Y-109014477D01*
X92389022Y-109046665D01*
X92365873Y-109074873D01*
X92337665Y-109098022D01*
X92305477Y-109115227D01*
X92270562Y-109125819D01*
X92228105Y-109130000D01*
X91086895Y-109130000D01*
X91044438Y-109125819D01*
X91009523Y-109115227D01*
X90977335Y-109098022D01*
X90949127Y-109074873D01*
X90925978Y-109046665D01*
X90908773Y-109014477D01*
X90898181Y-108979562D01*
X90894000Y-108937105D01*
X90894000Y-107470895D01*
X90898181Y-107428438D01*
X90908773Y-107393523D01*
X90925978Y-107361335D01*
X90949127Y-107333127D01*
X90977335Y-107309978D01*
X91009523Y-107292773D01*
X91044438Y-107282181D01*
X91086895Y-107278000D01*
X92228105Y-107278000D01*
X92270562Y-107282181D01*
X92270562Y-107282181D01*
G37*
G36*
X126737818Y-104687696D02*
X126851105Y-104722062D01*
X126955513Y-104777869D01*
X127047027Y-104852973D01*
X127122131Y-104944487D01*
X127177938Y-105048895D01*
X127212304Y-105162182D01*
X127221000Y-105250481D01*
X127221000Y-106709519D01*
X127212304Y-106797818D01*
X127177938Y-106911105D01*
X127122131Y-107015512D01*
X127122130Y-107015513D01*
X127047027Y-107107027D01*
X127005776Y-107140880D01*
X126955512Y-107182131D01*
X126851104Y-107237938D01*
X126737817Y-107272304D01*
X126620000Y-107283907D01*
X126502182Y-107272304D01*
X126388895Y-107237938D01*
X126284488Y-107182131D01*
X126270572Y-107170711D01*
X126192973Y-107107027D01*
X126159120Y-107065776D01*
X126117869Y-107015512D01*
X126062062Y-106911104D01*
X126027696Y-106797817D01*
X126019000Y-106709518D01*
X126019001Y-105250481D01*
X126027697Y-105162182D01*
X126062063Y-105048895D01*
X126117870Y-104944487D01*
X126192974Y-104852973D01*
X126284488Y-104777869D01*
X126388896Y-104722062D01*
X126502183Y-104687696D01*
X126620000Y-104676093D01*
X126737818Y-104687696D01*
X126737818Y-104687696D01*
G37*
G36*
X120737818Y-104687696D02*
X120851105Y-104722062D01*
X120955513Y-104777869D01*
X121047027Y-104852973D01*
X121122131Y-104944487D01*
X121177938Y-105048895D01*
X121212304Y-105162182D01*
X121221000Y-105250481D01*
X121221000Y-106709519D01*
X121212304Y-106797818D01*
X121177938Y-106911105D01*
X121122131Y-107015512D01*
X121122130Y-107015513D01*
X121047027Y-107107027D01*
X121005776Y-107140880D01*
X120955512Y-107182131D01*
X120851104Y-107237938D01*
X120737817Y-107272304D01*
X120620000Y-107283907D01*
X120502182Y-107272304D01*
X120388895Y-107237938D01*
X120284488Y-107182131D01*
X120270572Y-107170711D01*
X120192973Y-107107027D01*
X120159120Y-107065776D01*
X120117869Y-107015512D01*
X120062062Y-106911104D01*
X120027696Y-106797817D01*
X120019000Y-106709518D01*
X120019001Y-105250481D01*
X120027697Y-105162182D01*
X120062063Y-105048895D01*
X120117870Y-104944487D01*
X120192974Y-104852973D01*
X120284488Y-104777869D01*
X120388896Y-104722062D01*
X120502183Y-104687696D01*
X120620000Y-104676093D01*
X120737818Y-104687696D01*
X120737818Y-104687696D01*
G37*
G36*
X132737818Y-104687696D02*
X132851105Y-104722062D01*
X132955513Y-104777869D01*
X133047027Y-104852973D01*
X133122131Y-104944487D01*
X133177938Y-105048895D01*
X133212304Y-105162182D01*
X133221000Y-105250481D01*
X133221000Y-106709519D01*
X133212304Y-106797818D01*
X133177938Y-106911105D01*
X133122131Y-107015512D01*
X133122130Y-107015513D01*
X133047027Y-107107027D01*
X133005776Y-107140880D01*
X132955512Y-107182131D01*
X132851104Y-107237938D01*
X132737817Y-107272304D01*
X132620000Y-107283907D01*
X132502182Y-107272304D01*
X132388895Y-107237938D01*
X132284488Y-107182131D01*
X132270572Y-107170711D01*
X132192973Y-107107027D01*
X132159120Y-107065776D01*
X132117869Y-107015512D01*
X132062062Y-106911104D01*
X132027696Y-106797817D01*
X132019000Y-106709518D01*
X132019001Y-105250481D01*
X132027697Y-105162182D01*
X132062063Y-105048895D01*
X132117870Y-104944487D01*
X132192974Y-104852973D01*
X132284488Y-104777869D01*
X132388896Y-104722062D01*
X132502183Y-104687696D01*
X132620000Y-104676093D01*
X132737818Y-104687696D01*
X132737818Y-104687696D01*
G37*
G36*
X130737818Y-104687696D02*
X130851105Y-104722062D01*
X130955513Y-104777869D01*
X131047027Y-104852973D01*
X131122131Y-104944487D01*
X131177938Y-105048895D01*
X131212304Y-105162182D01*
X131221000Y-105250481D01*
X131221000Y-106709519D01*
X131212304Y-106797818D01*
X131177938Y-106911105D01*
X131122131Y-107015512D01*
X131122130Y-107015513D01*
X131047027Y-107107027D01*
X131005776Y-107140880D01*
X130955512Y-107182131D01*
X130851104Y-107237938D01*
X130737817Y-107272304D01*
X130620000Y-107283907D01*
X130502182Y-107272304D01*
X130388895Y-107237938D01*
X130284488Y-107182131D01*
X130270572Y-107170711D01*
X130192973Y-107107027D01*
X130159120Y-107065776D01*
X130117869Y-107015512D01*
X130062062Y-106911104D01*
X130027696Y-106797817D01*
X130019000Y-106709518D01*
X130019001Y-105250481D01*
X130027697Y-105162182D01*
X130062063Y-105048895D01*
X130117870Y-104944487D01*
X130192974Y-104852973D01*
X130284488Y-104777869D01*
X130388896Y-104722062D01*
X130502183Y-104687696D01*
X130620000Y-104676093D01*
X130737818Y-104687696D01*
X130737818Y-104687696D01*
G37*
G36*
X128737818Y-104687696D02*
X128851105Y-104722062D01*
X128955513Y-104777869D01*
X129047027Y-104852973D01*
X129122131Y-104944487D01*
X129177938Y-105048895D01*
X129212304Y-105162182D01*
X129221000Y-105250481D01*
X129221000Y-106709519D01*
X129212304Y-106797818D01*
X129177938Y-106911105D01*
X129122131Y-107015512D01*
X129122130Y-107015513D01*
X129047027Y-107107027D01*
X129005776Y-107140880D01*
X128955512Y-107182131D01*
X128851104Y-107237938D01*
X128737817Y-107272304D01*
X128620000Y-107283907D01*
X128502182Y-107272304D01*
X128388895Y-107237938D01*
X128284488Y-107182131D01*
X128270572Y-107170711D01*
X128192973Y-107107027D01*
X128159120Y-107065776D01*
X128117869Y-107015512D01*
X128062062Y-106911104D01*
X128027696Y-106797817D01*
X128019000Y-106709518D01*
X128019001Y-105250481D01*
X128027697Y-105162182D01*
X128062063Y-105048895D01*
X128117870Y-104944487D01*
X128192974Y-104852973D01*
X128284488Y-104777869D01*
X128388896Y-104722062D01*
X128502183Y-104687696D01*
X128620000Y-104676093D01*
X128737818Y-104687696D01*
X128737818Y-104687696D01*
G37*
G36*
X124737818Y-104687696D02*
X124851105Y-104722062D01*
X124955513Y-104777869D01*
X125047027Y-104852973D01*
X125122131Y-104944487D01*
X125177938Y-105048895D01*
X125212304Y-105162182D01*
X125221000Y-105250481D01*
X125221000Y-106709519D01*
X125212304Y-106797818D01*
X125177938Y-106911105D01*
X125122131Y-107015512D01*
X125122130Y-107015513D01*
X125047027Y-107107027D01*
X125005776Y-107140880D01*
X124955512Y-107182131D01*
X124851104Y-107237938D01*
X124737817Y-107272304D01*
X124620000Y-107283907D01*
X124502182Y-107272304D01*
X124388895Y-107237938D01*
X124284488Y-107182131D01*
X124270572Y-107170711D01*
X124192973Y-107107027D01*
X124159120Y-107065776D01*
X124117869Y-107015512D01*
X124062062Y-106911104D01*
X124027696Y-106797817D01*
X124019000Y-106709518D01*
X124019001Y-105250481D01*
X124027697Y-105162182D01*
X124062063Y-105048895D01*
X124117870Y-104944487D01*
X124192974Y-104852973D01*
X124284488Y-104777869D01*
X124388896Y-104722062D01*
X124502183Y-104687696D01*
X124620000Y-104676093D01*
X124737818Y-104687696D01*
X124737818Y-104687696D01*
G37*
G36*
X122737818Y-104687696D02*
X122851105Y-104722062D01*
X122955513Y-104777869D01*
X123047027Y-104852973D01*
X123122131Y-104944487D01*
X123177938Y-105048895D01*
X123212304Y-105162182D01*
X123221000Y-105250481D01*
X123221000Y-106709519D01*
X123212304Y-106797818D01*
X123177938Y-106911105D01*
X123122131Y-107015512D01*
X123122130Y-107015513D01*
X123047027Y-107107027D01*
X123005776Y-107140880D01*
X122955512Y-107182131D01*
X122851104Y-107237938D01*
X122737817Y-107272304D01*
X122620000Y-107283907D01*
X122502182Y-107272304D01*
X122388895Y-107237938D01*
X122284488Y-107182131D01*
X122270572Y-107170711D01*
X122192973Y-107107027D01*
X122159120Y-107065776D01*
X122117869Y-107015512D01*
X122062062Y-106911104D01*
X122027696Y-106797817D01*
X122019000Y-106709518D01*
X122019001Y-105250481D01*
X122027697Y-105162182D01*
X122062063Y-105048895D01*
X122117870Y-104944487D01*
X122192974Y-104852973D01*
X122284488Y-104777869D01*
X122388896Y-104722062D01*
X122502183Y-104687696D01*
X122620000Y-104676093D01*
X122737818Y-104687696D01*
X122737818Y-104687696D01*
G37*
G36*
X135221000Y-107281000D02*
X134019000Y-107281000D01*
X134019000Y-104679000D01*
X135221000Y-104679000D01*
X135221000Y-107281000D01*
X135221000Y-107281000D01*
G37*
G36*
X103093660Y-102051254D02*
X103107809Y-102052648D01*
X103133099Y-102060320D01*
X103259551Y-102098678D01*
X103399398Y-102173428D01*
X103521975Y-102274025D01*
X103622572Y-102396602D01*
X103697322Y-102536449D01*
X103743352Y-102688192D01*
X103755000Y-102806454D01*
X103755000Y-104393546D01*
X103743352Y-104511808D01*
X103697322Y-104663551D01*
X103622572Y-104803398D01*
X103572274Y-104864686D01*
X103521978Y-104925972D01*
X103521976Y-104925973D01*
X103521975Y-104925975D01*
X103399397Y-105026572D01*
X103259550Y-105101322D01*
X103133098Y-105139680D01*
X103107808Y-105147352D01*
X103093659Y-105148746D01*
X102950000Y-105162895D01*
X102806340Y-105148746D01*
X102792191Y-105147352D01*
X102766901Y-105139680D01*
X102640449Y-105101322D01*
X102500602Y-105026572D01*
X102439314Y-104976274D01*
X102378028Y-104925978D01*
X102378027Y-104925976D01*
X102378025Y-104925975D01*
X102277428Y-104803397D01*
X102202678Y-104663550D01*
X102164320Y-104537097D01*
X102156648Y-104511808D01*
X102154984Y-104494912D01*
X102145000Y-104393545D01*
X102145001Y-102806454D01*
X102156649Y-102688192D01*
X102202679Y-102536449D01*
X102277429Y-102396602D01*
X102378026Y-102274025D01*
X102500603Y-102173428D01*
X102640450Y-102098678D01*
X102766902Y-102060320D01*
X102792192Y-102052648D01*
X102806341Y-102051254D01*
X102950000Y-102037105D01*
X103093660Y-102051254D01*
X103093660Y-102051254D01*
G37*
G36*
X87693660Y-102051254D02*
X87707809Y-102052648D01*
X87733099Y-102060320D01*
X87859551Y-102098678D01*
X87999398Y-102173428D01*
X88121975Y-102274025D01*
X88222572Y-102396602D01*
X88297322Y-102536449D01*
X88343352Y-102688192D01*
X88355000Y-102806454D01*
X88355000Y-104393546D01*
X88343352Y-104511808D01*
X88297322Y-104663551D01*
X88222572Y-104803398D01*
X88172274Y-104864686D01*
X88121978Y-104925972D01*
X88121976Y-104925973D01*
X88121975Y-104925975D01*
X87999397Y-105026572D01*
X87859550Y-105101322D01*
X87733098Y-105139680D01*
X87707808Y-105147352D01*
X87693659Y-105148746D01*
X87550000Y-105162895D01*
X87406340Y-105148746D01*
X87392191Y-105147352D01*
X87366901Y-105139680D01*
X87240449Y-105101322D01*
X87100602Y-105026572D01*
X87039314Y-104976274D01*
X86978028Y-104925978D01*
X86978027Y-104925976D01*
X86978025Y-104925975D01*
X86877428Y-104803397D01*
X86802678Y-104663550D01*
X86764320Y-104537097D01*
X86756648Y-104511808D01*
X86754984Y-104494912D01*
X86745000Y-104393545D01*
X86745001Y-102806454D01*
X86756649Y-102688192D01*
X86802679Y-102536449D01*
X86877429Y-102396602D01*
X86978026Y-102274025D01*
X87100603Y-102173428D01*
X87240450Y-102098678D01*
X87366902Y-102060320D01*
X87392192Y-102052648D01*
X87406341Y-102051254D01*
X87550000Y-102037105D01*
X87693660Y-102051254D01*
X87693660Y-102051254D01*
G37*
G36*
X126505562Y-99788181D02*
X126540477Y-99798773D01*
X126572665Y-99815978D01*
X126600873Y-99839127D01*
X126624022Y-99867335D01*
X126641227Y-99899523D01*
X126651819Y-99934438D01*
X126656000Y-99976895D01*
X126656000Y-101118105D01*
X126651819Y-101160562D01*
X126641227Y-101195477D01*
X126624022Y-101227665D01*
X126600873Y-101255873D01*
X126572665Y-101279022D01*
X126540477Y-101296227D01*
X126505562Y-101306819D01*
X126463105Y-101311000D01*
X124996895Y-101311000D01*
X124954438Y-101306819D01*
X124919523Y-101296227D01*
X124887335Y-101279022D01*
X124859127Y-101255873D01*
X124835978Y-101227665D01*
X124818773Y-101195477D01*
X124808181Y-101160562D01*
X124804000Y-101118105D01*
X124804000Y-99976895D01*
X124808181Y-99934438D01*
X124818773Y-99899523D01*
X124835978Y-99867335D01*
X124859127Y-99839127D01*
X124887335Y-99815978D01*
X124919523Y-99798773D01*
X124954438Y-99788181D01*
X124996895Y-99784000D01*
X126463105Y-99784000D01*
X126505562Y-99788181D01*
X126505562Y-99788181D01*
G37*
G36*
X120155562Y-99788181D02*
X120190477Y-99798773D01*
X120222665Y-99815978D01*
X120250873Y-99839127D01*
X120274022Y-99867335D01*
X120291227Y-99899523D01*
X120301819Y-99934438D01*
X120306000Y-99976895D01*
X120306000Y-101118105D01*
X120301819Y-101160562D01*
X120291227Y-101195477D01*
X120274022Y-101227665D01*
X120250873Y-101255873D01*
X120222665Y-101279022D01*
X120190477Y-101296227D01*
X120155562Y-101306819D01*
X120113105Y-101311000D01*
X118646895Y-101311000D01*
X118604438Y-101306819D01*
X118569523Y-101296227D01*
X118537335Y-101279022D01*
X118509127Y-101255873D01*
X118485978Y-101227665D01*
X118468773Y-101195477D01*
X118458181Y-101160562D01*
X118454000Y-101118105D01*
X118454000Y-99976895D01*
X118458181Y-99934438D01*
X118468773Y-99899523D01*
X118485978Y-99867335D01*
X118509127Y-99839127D01*
X118537335Y-99815978D01*
X118569523Y-99798773D01*
X118604438Y-99788181D01*
X118646895Y-99784000D01*
X120113105Y-99784000D01*
X120155562Y-99788181D01*
X120155562Y-99788181D01*
G37*
G36*
X114412915Y-98267334D02*
X114521491Y-98300271D01*
X114621556Y-98353756D01*
X114709264Y-98425736D01*
X114781244Y-98513443D01*
X114834729Y-98613508D01*
X114867666Y-98722084D01*
X114876000Y-98806702D01*
X114876000Y-99313297D01*
X114867666Y-99397916D01*
X114834729Y-99506492D01*
X114781244Y-99606557D01*
X114709264Y-99694264D01*
X114621557Y-99766244D01*
X114521492Y-99819729D01*
X114412916Y-99852666D01*
X114300000Y-99863787D01*
X114187085Y-99852666D01*
X114078509Y-99819729D01*
X113978444Y-99766244D01*
X113890737Y-99694264D01*
X113818757Y-99606557D01*
X113775240Y-99525143D01*
X113761627Y-99504768D01*
X113744299Y-99487441D01*
X113723925Y-99473827D01*
X113701286Y-99464450D01*
X113677253Y-99459669D01*
X113652748Y-99459669D01*
X113628715Y-99464449D01*
X113606076Y-99473827D01*
X113585701Y-99487440D01*
X113568374Y-99504768D01*
X113554760Y-99525143D01*
X113511244Y-99606557D01*
X113439264Y-99694264D01*
X113351557Y-99766244D01*
X113251492Y-99819729D01*
X113142916Y-99852666D01*
X113030000Y-99863787D01*
X112917085Y-99852666D01*
X112808509Y-99819729D01*
X112708444Y-99766244D01*
X112620737Y-99694264D01*
X112557626Y-99617364D01*
X112540299Y-99600036D01*
X112519924Y-99586423D01*
X112497285Y-99577045D01*
X112473252Y-99572265D01*
X112448748Y-99572265D01*
X112424714Y-99577046D01*
X112402075Y-99586423D01*
X112381701Y-99600037D01*
X112364373Y-99617364D01*
X112350760Y-99637739D01*
X112341382Y-99660378D01*
X112336000Y-99696663D01*
X112336000Y-99861000D01*
X111184000Y-99861000D01*
X111184000Y-98259000D01*
X112336000Y-98259000D01*
X112336000Y-98423337D01*
X112338402Y-98447723D01*
X112345515Y-98471172D01*
X112357066Y-98492783D01*
X112372612Y-98511725D01*
X112391554Y-98527271D01*
X112413165Y-98538822D01*
X112436614Y-98545935D01*
X112461000Y-98548337D01*
X112485386Y-98545935D01*
X112508835Y-98538822D01*
X112530446Y-98527271D01*
X112557626Y-98502636D01*
X112620734Y-98425739D01*
X112620736Y-98425736D01*
X112708443Y-98353756D01*
X112808508Y-98300271D01*
X112917084Y-98267334D01*
X113030000Y-98256213D01*
X113142915Y-98267334D01*
X113251491Y-98300271D01*
X113351556Y-98353756D01*
X113439264Y-98425736D01*
X113511244Y-98513443D01*
X113554767Y-98594869D01*
X113568373Y-98615232D01*
X113585700Y-98632560D01*
X113606075Y-98646174D01*
X113628713Y-98655551D01*
X113652747Y-98660332D01*
X113677251Y-98660332D01*
X113701285Y-98655552D01*
X113723924Y-98646175D01*
X113744298Y-98632561D01*
X113761626Y-98615234D01*
X113775240Y-98594858D01*
X113818756Y-98513444D01*
X113890734Y-98425739D01*
X113890736Y-98425736D01*
X113978443Y-98353756D01*
X114078508Y-98300271D01*
X114187084Y-98267334D01*
X114300000Y-98256213D01*
X114412915Y-98267334D01*
X114412915Y-98267334D01*
G37*
G36*
X133462915Y-98267334D02*
X133571491Y-98300271D01*
X133671556Y-98353756D01*
X133759264Y-98425736D01*
X133831244Y-98513443D01*
X133884729Y-98613508D01*
X133917666Y-98722084D01*
X133926000Y-98806702D01*
X133926000Y-99313297D01*
X133917666Y-99397916D01*
X133884729Y-99506492D01*
X133831244Y-99606557D01*
X133759264Y-99694264D01*
X133671557Y-99766244D01*
X133571492Y-99819729D01*
X133462916Y-99852666D01*
X133350000Y-99863787D01*
X133237085Y-99852666D01*
X133128509Y-99819729D01*
X133028444Y-99766244D01*
X132940737Y-99694264D01*
X132868757Y-99606557D01*
X132825240Y-99525143D01*
X132811627Y-99504768D01*
X132794299Y-99487441D01*
X132773925Y-99473827D01*
X132751286Y-99464450D01*
X132727253Y-99459669D01*
X132702748Y-99459669D01*
X132678715Y-99464449D01*
X132656076Y-99473827D01*
X132635701Y-99487440D01*
X132618374Y-99504768D01*
X132604760Y-99525143D01*
X132561244Y-99606557D01*
X132489264Y-99694264D01*
X132401557Y-99766244D01*
X132301492Y-99819729D01*
X132192916Y-99852666D01*
X132080000Y-99863787D01*
X131967085Y-99852666D01*
X131858509Y-99819729D01*
X131758444Y-99766244D01*
X131670737Y-99694264D01*
X131607626Y-99617364D01*
X131590299Y-99600036D01*
X131569924Y-99586423D01*
X131547285Y-99577045D01*
X131523252Y-99572265D01*
X131498748Y-99572265D01*
X131474714Y-99577046D01*
X131452075Y-99586423D01*
X131431701Y-99600037D01*
X131414373Y-99617364D01*
X131400760Y-99637739D01*
X131391382Y-99660378D01*
X131386000Y-99696663D01*
X131386000Y-99861000D01*
X130234000Y-99861000D01*
X130234000Y-98259000D01*
X131386000Y-98259000D01*
X131386000Y-98423337D01*
X131388402Y-98447723D01*
X131395515Y-98471172D01*
X131407066Y-98492783D01*
X131422612Y-98511725D01*
X131441554Y-98527271D01*
X131463165Y-98538822D01*
X131486614Y-98545935D01*
X131511000Y-98548337D01*
X131535386Y-98545935D01*
X131558835Y-98538822D01*
X131580446Y-98527271D01*
X131607626Y-98502636D01*
X131670734Y-98425739D01*
X131670736Y-98425736D01*
X131758443Y-98353756D01*
X131858508Y-98300271D01*
X131967084Y-98267334D01*
X132080000Y-98256213D01*
X132192915Y-98267334D01*
X132301491Y-98300271D01*
X132401556Y-98353756D01*
X132489264Y-98425736D01*
X132561244Y-98513443D01*
X132604767Y-98594869D01*
X132618373Y-98615232D01*
X132635700Y-98632560D01*
X132656075Y-98646174D01*
X132678713Y-98655551D01*
X132702747Y-98660332D01*
X132727251Y-98660332D01*
X132751285Y-98655552D01*
X132773924Y-98646175D01*
X132794298Y-98632561D01*
X132811626Y-98615234D01*
X132825240Y-98594858D01*
X132868756Y-98513444D01*
X132940734Y-98425739D01*
X132940736Y-98425736D01*
X133028443Y-98353756D01*
X133128508Y-98300271D01*
X133237084Y-98267334D01*
X133350000Y-98256213D01*
X133462915Y-98267334D01*
X133462915Y-98267334D01*
G37*
G36*
X126505562Y-96813181D02*
X126540477Y-96823773D01*
X126572665Y-96840978D01*
X126600873Y-96864127D01*
X126624022Y-96892335D01*
X126641227Y-96924523D01*
X126651819Y-96959438D01*
X126656000Y-97001895D01*
X126656000Y-98143105D01*
X126651819Y-98185562D01*
X126641227Y-98220477D01*
X126624022Y-98252665D01*
X126600873Y-98280873D01*
X126572665Y-98304022D01*
X126540477Y-98321227D01*
X126505562Y-98331819D01*
X126463105Y-98336000D01*
X124996895Y-98336000D01*
X124954438Y-98331819D01*
X124919523Y-98321227D01*
X124887335Y-98304022D01*
X124859127Y-98280873D01*
X124835978Y-98252665D01*
X124818773Y-98220477D01*
X124808181Y-98185562D01*
X124804000Y-98143105D01*
X124804000Y-97001895D01*
X124808181Y-96959438D01*
X124818773Y-96924523D01*
X124835978Y-96892335D01*
X124859127Y-96864127D01*
X124887335Y-96840978D01*
X124919523Y-96823773D01*
X124954438Y-96813181D01*
X124996895Y-96809000D01*
X126463105Y-96809000D01*
X126505562Y-96813181D01*
X126505562Y-96813181D01*
G37*
G36*
X120155562Y-96813181D02*
X120190477Y-96823773D01*
X120222665Y-96840978D01*
X120250873Y-96864127D01*
X120274022Y-96892335D01*
X120291227Y-96924523D01*
X120301819Y-96959438D01*
X120306000Y-97001895D01*
X120306000Y-98143105D01*
X120301819Y-98185562D01*
X120291227Y-98220477D01*
X120274022Y-98252665D01*
X120250873Y-98280873D01*
X120222665Y-98304022D01*
X120190477Y-98321227D01*
X120155562Y-98331819D01*
X120113105Y-98336000D01*
X118646895Y-98336000D01*
X118604438Y-98331819D01*
X118569523Y-98321227D01*
X118537335Y-98304022D01*
X118509127Y-98280873D01*
X118485978Y-98252665D01*
X118468773Y-98220477D01*
X118458181Y-98185562D01*
X118454000Y-98143105D01*
X118454000Y-97001895D01*
X118458181Y-96959438D01*
X118468773Y-96924523D01*
X118485978Y-96892335D01*
X118509127Y-96864127D01*
X118537335Y-96840978D01*
X118569523Y-96823773D01*
X118604438Y-96813181D01*
X118646895Y-96809000D01*
X120113105Y-96809000D01*
X120155562Y-96813181D01*
X120155562Y-96813181D01*
G37*
G36*
X136111821Y-91636313D02*
X136111824Y-91636314D01*
X136111825Y-91636314D01*
X136272239Y-91684975D01*
X136272241Y-91684976D01*
X136272244Y-91684977D01*
X136420078Y-91763995D01*
X136549659Y-91870341D01*
X136656005Y-91999922D01*
X136735023Y-92147756D01*
X136735024Y-92147759D01*
X136735025Y-92147761D01*
X136783686Y-92308175D01*
X136783687Y-92308179D01*
X136800117Y-92475000D01*
X136783687Y-92641821D01*
X136783686Y-92641824D01*
X136783686Y-92641825D01*
X136742609Y-92777239D01*
X136735023Y-92802244D01*
X136656005Y-92950078D01*
X136549659Y-93079659D01*
X136420078Y-93186005D01*
X136272244Y-93265023D01*
X136272241Y-93265024D01*
X136272239Y-93265025D01*
X136111825Y-93313686D01*
X136111824Y-93313686D01*
X136111821Y-93313687D01*
X135986804Y-93326000D01*
X135903196Y-93326000D01*
X135778179Y-93313687D01*
X135778176Y-93313686D01*
X135778175Y-93313686D01*
X135617761Y-93265025D01*
X135617759Y-93265024D01*
X135617756Y-93265023D01*
X135469922Y-93186005D01*
X135340341Y-93079659D01*
X135233995Y-92950078D01*
X135154977Y-92802244D01*
X135147392Y-92777239D01*
X135106314Y-92641825D01*
X135106314Y-92641824D01*
X135106313Y-92641821D01*
X135089883Y-92475000D01*
X135106313Y-92308179D01*
X135106314Y-92308175D01*
X135154975Y-92147761D01*
X135154976Y-92147759D01*
X135154977Y-92147756D01*
X135233995Y-91999922D01*
X135340341Y-91870341D01*
X135469922Y-91763995D01*
X135617756Y-91684977D01*
X135617759Y-91684976D01*
X135617761Y-91684975D01*
X135778175Y-91636314D01*
X135778176Y-91636314D01*
X135778179Y-91636313D01*
X135903196Y-91624000D01*
X135986804Y-91624000D01*
X136111821Y-91636313D01*
X136111821Y-91636313D01*
G37*
G36*
X129176000Y-93326000D02*
X127474000Y-93326000D01*
X127474000Y-91624000D01*
X129176000Y-91624000D01*
X129176000Y-93326000D01*
X129176000Y-93326000D01*
G37*
G36*
X118561821Y-91611313D02*
X118561824Y-91611314D01*
X118561825Y-91611314D01*
X118722239Y-91659975D01*
X118722241Y-91659976D01*
X118722244Y-91659977D01*
X118870078Y-91738995D01*
X118999659Y-91845341D01*
X119106005Y-91974922D01*
X119185023Y-92122756D01*
X119185024Y-92122759D01*
X119185025Y-92122761D01*
X119233686Y-92283175D01*
X119233687Y-92283179D01*
X119250117Y-92450000D01*
X119233687Y-92616821D01*
X119233686Y-92616824D01*
X119233686Y-92616825D01*
X119226104Y-92641821D01*
X119185023Y-92777244D01*
X119106005Y-92925078D01*
X118999659Y-93054659D01*
X118870078Y-93161005D01*
X118722244Y-93240023D01*
X118722241Y-93240024D01*
X118722239Y-93240025D01*
X118561825Y-93288686D01*
X118561824Y-93288686D01*
X118561821Y-93288687D01*
X118436804Y-93301000D01*
X118353196Y-93301000D01*
X118228179Y-93288687D01*
X118228176Y-93288686D01*
X118228175Y-93288686D01*
X118067761Y-93240025D01*
X118067759Y-93240024D01*
X118067756Y-93240023D01*
X117919922Y-93161005D01*
X117790341Y-93054659D01*
X117683995Y-92925078D01*
X117604977Y-92777244D01*
X117563897Y-92641821D01*
X117556314Y-92616825D01*
X117556314Y-92616824D01*
X117556313Y-92616821D01*
X117539883Y-92450000D01*
X117556313Y-92283179D01*
X117556314Y-92283175D01*
X117604975Y-92122761D01*
X117604976Y-92122759D01*
X117604977Y-92122756D01*
X117683995Y-91974922D01*
X117790341Y-91845341D01*
X117919922Y-91738995D01*
X118067756Y-91659977D01*
X118067759Y-91659976D01*
X118067761Y-91659975D01*
X118228175Y-91611314D01*
X118228176Y-91611314D01*
X118228179Y-91611313D01*
X118353196Y-91599000D01*
X118436804Y-91599000D01*
X118561821Y-91611313D01*
X118561821Y-91611313D01*
G37*
G36*
X111626000Y-93301000D02*
X109924000Y-93301000D01*
X109924000Y-91599000D01*
X111626000Y-91599000D01*
X111626000Y-93301000D01*
X111626000Y-93301000D01*
G37*
G36*
X133647085Y-87130640D02*
X133832440Y-87207416D01*
X133999259Y-87318881D01*
X134141119Y-87460741D01*
X134252584Y-87627560D01*
X134329360Y-87812915D01*
X134368500Y-88009685D01*
X134368500Y-88210315D01*
X134329360Y-88407085D01*
X134252584Y-88592440D01*
X134141119Y-88759259D01*
X133999259Y-88901119D01*
X133832440Y-89012584D01*
X133647085Y-89089360D01*
X133450315Y-89128500D01*
X133249685Y-89128500D01*
X133052915Y-89089360D01*
X132867560Y-89012584D01*
X132700741Y-88901119D01*
X132558881Y-88759259D01*
X132447416Y-88592440D01*
X132370640Y-88407085D01*
X132331500Y-88210315D01*
X132331500Y-88009685D01*
X132370640Y-87812915D01*
X132447416Y-87627560D01*
X132558881Y-87460741D01*
X132700741Y-87318881D01*
X132867560Y-87207416D01*
X133052915Y-87130640D01*
X133249685Y-87091500D01*
X133450315Y-87091500D01*
X133647085Y-87130640D01*
X133647085Y-87130640D01*
G37*
G36*
X115867085Y-87130640D02*
X116052440Y-87207416D01*
X116219259Y-87318881D01*
X116361119Y-87460741D01*
X116472584Y-87627560D01*
X116549360Y-87812915D01*
X116588500Y-88009685D01*
X116588500Y-88210315D01*
X116549360Y-88407085D01*
X116472584Y-88592440D01*
X116361119Y-88759259D01*
X116219259Y-88901119D01*
X116052440Y-89012584D01*
X115867085Y-89089360D01*
X115670315Y-89128500D01*
X115469685Y-89128500D01*
X115272915Y-89089360D01*
X115087560Y-89012584D01*
X114920741Y-88901119D01*
X114778881Y-88759259D01*
X114667416Y-88592440D01*
X114590640Y-88407085D01*
X114551500Y-88210315D01*
X114551500Y-88009685D01*
X114590640Y-87812915D01*
X114667416Y-87627560D01*
X114778881Y-87460741D01*
X114920741Y-87318881D01*
X115087560Y-87207416D01*
X115272915Y-87130640D01*
X115469685Y-87091500D01*
X115670315Y-87091500D01*
X115867085Y-87130640D01*
X115867085Y-87130640D01*
G37*
G36*
X139553089Y-85089002D02*
X139653649Y-85109005D01*
X139709137Y-85131989D01*
X139843098Y-85187477D01*
X140013602Y-85301404D01*
X140158596Y-85446398D01*
X140272523Y-85616902D01*
X140350995Y-85806352D01*
X140391000Y-86007469D01*
X140391000Y-86212531D01*
X140350995Y-86413648D01*
X140272523Y-86603098D01*
X140158596Y-86773602D01*
X140013602Y-86918596D01*
X139843098Y-87032523D01*
X139709137Y-87088011D01*
X139653649Y-87110995D01*
X139554887Y-87130640D01*
X139452531Y-87151000D01*
X139247469Y-87151000D01*
X139145113Y-87130640D01*
X139046351Y-87110995D01*
X138990863Y-87088011D01*
X138856902Y-87032523D01*
X138686398Y-86918596D01*
X138541404Y-86773602D01*
X138427477Y-86603098D01*
X138349005Y-86413648D01*
X138309000Y-86212531D01*
X138309000Y-86007469D01*
X138349005Y-85806352D01*
X138427477Y-85616902D01*
X138541404Y-85446398D01*
X138686398Y-85301404D01*
X138856902Y-85187477D01*
X138990863Y-85131989D01*
X139046351Y-85109005D01*
X139146910Y-85089003D01*
X139247469Y-85069000D01*
X139452531Y-85069000D01*
X139553089Y-85089002D01*
X139553089Y-85089002D01*
G37*
G36*
X128391000Y-87151000D02*
X126309000Y-87151000D01*
X126309000Y-85069000D01*
X128391000Y-85069000D01*
X128391000Y-87151000D01*
X128391000Y-87151000D01*
G37*
G36*
X121773089Y-85089002D02*
X121873649Y-85109005D01*
X121929137Y-85131989D01*
X122063098Y-85187477D01*
X122233602Y-85301404D01*
X122378596Y-85446398D01*
X122492523Y-85616902D01*
X122570995Y-85806352D01*
X122611000Y-86007469D01*
X122611000Y-86212531D01*
X122570995Y-86413648D01*
X122492523Y-86603098D01*
X122378596Y-86773602D01*
X122233602Y-86918596D01*
X122063098Y-87032523D01*
X121929137Y-87088011D01*
X121873649Y-87110995D01*
X121774887Y-87130640D01*
X121672531Y-87151000D01*
X121467469Y-87151000D01*
X121365113Y-87130640D01*
X121266351Y-87110995D01*
X121210863Y-87088011D01*
X121076902Y-87032523D01*
X120906398Y-86918596D01*
X120761404Y-86773602D01*
X120647477Y-86603098D01*
X120569005Y-86413648D01*
X120529000Y-86212531D01*
X120529000Y-86007469D01*
X120569005Y-85806352D01*
X120647477Y-85616902D01*
X120761404Y-85446398D01*
X120906398Y-85301404D01*
X121076902Y-85187477D01*
X121210863Y-85131989D01*
X121266351Y-85109005D01*
X121366910Y-85089003D01*
X121467469Y-85069000D01*
X121672531Y-85069000D01*
X121773089Y-85089002D01*
X121773089Y-85089002D01*
G37*
G36*
X110611000Y-87151000D02*
X108529000Y-87151000D01*
X108529000Y-85069000D01*
X110611000Y-85069000D01*
X110611000Y-87151000D01*
X110611000Y-87151000D01*
G37*
G36*
X92893660Y-72651254D02*
X92907809Y-72652648D01*
X92933098Y-72660320D01*
X93059551Y-72698678D01*
X93199398Y-72773428D01*
X93321975Y-72874025D01*
X93422572Y-72996602D01*
X93497322Y-73136449D01*
X93543352Y-73288192D01*
X93555000Y-73406454D01*
X93555000Y-74993546D01*
X93543352Y-75111808D01*
X93497322Y-75263551D01*
X93422572Y-75403398D01*
X93372273Y-75464687D01*
X93321978Y-75525972D01*
X93321976Y-75525973D01*
X93321975Y-75525975D01*
X93199397Y-75626572D01*
X93059550Y-75701322D01*
X92933097Y-75739680D01*
X92907808Y-75747352D01*
X92893659Y-75748746D01*
X92750000Y-75762895D01*
X92606340Y-75748746D01*
X92592191Y-75747352D01*
X92566901Y-75739680D01*
X92440449Y-75701322D01*
X92300602Y-75626572D01*
X92239314Y-75576274D01*
X92178028Y-75525978D01*
X92178027Y-75525976D01*
X92178025Y-75525975D01*
X92077428Y-75403397D01*
X92002678Y-75263550D01*
X91964320Y-75137098D01*
X91956648Y-75111808D01*
X91954984Y-75094912D01*
X91945000Y-74993545D01*
X91945001Y-73406454D01*
X91956649Y-73288192D01*
X92002679Y-73136449D01*
X92077429Y-72996602D01*
X92178026Y-72874025D01*
X92300603Y-72773428D01*
X92440450Y-72698678D01*
X92566902Y-72660320D01*
X92592192Y-72652648D01*
X92606341Y-72651254D01*
X92750000Y-72637105D01*
X92893660Y-72651254D01*
X92893660Y-72651254D01*
G37*
G36*
X97893660Y-72651254D02*
X97907809Y-72652648D01*
X97933098Y-72660320D01*
X98059551Y-72698678D01*
X98199398Y-72773428D01*
X98321975Y-72874025D01*
X98422572Y-72996602D01*
X98497322Y-73136449D01*
X98543352Y-73288192D01*
X98555000Y-73406454D01*
X98555000Y-74993546D01*
X98543352Y-75111808D01*
X98497322Y-75263551D01*
X98422572Y-75403398D01*
X98372273Y-75464687D01*
X98321978Y-75525972D01*
X98321976Y-75525973D01*
X98321975Y-75525975D01*
X98199397Y-75626572D01*
X98059550Y-75701322D01*
X97933097Y-75739680D01*
X97907808Y-75747352D01*
X97893659Y-75748746D01*
X97750000Y-75762895D01*
X97606340Y-75748746D01*
X97592191Y-75747352D01*
X97566901Y-75739680D01*
X97440449Y-75701322D01*
X97300602Y-75626572D01*
X97239314Y-75576274D01*
X97178028Y-75525978D01*
X97178027Y-75525976D01*
X97178025Y-75525975D01*
X97077428Y-75403397D01*
X97002678Y-75263550D01*
X96964320Y-75137098D01*
X96956648Y-75111808D01*
X96954984Y-75094912D01*
X96945000Y-74993545D01*
X96945001Y-73406454D01*
X96956649Y-73288192D01*
X97002679Y-73136449D01*
X97077429Y-72996602D01*
X97178026Y-72874025D01*
X97300603Y-72773428D01*
X97440450Y-72698678D01*
X97566902Y-72660320D01*
X97592192Y-72652648D01*
X97606341Y-72651254D01*
X97750000Y-72637105D01*
X97893660Y-72651254D01*
X97893660Y-72651254D01*
G37*
G36*
X127553089Y-72889002D02*
X127653649Y-72909005D01*
X127709137Y-72931989D01*
X127843098Y-72987477D01*
X128013602Y-73101404D01*
X128158596Y-73246398D01*
X128272523Y-73416902D01*
X128350995Y-73606352D01*
X128391000Y-73807469D01*
X128391000Y-74012531D01*
X128350995Y-74213648D01*
X128272523Y-74403098D01*
X128158596Y-74573602D01*
X128013602Y-74718596D01*
X127843098Y-74832523D01*
X127709137Y-74888011D01*
X127653649Y-74910995D01*
X127553089Y-74930998D01*
X127452531Y-74951000D01*
X127247469Y-74951000D01*
X127146911Y-74930998D01*
X127046351Y-74910995D01*
X126990863Y-74888011D01*
X126856902Y-74832523D01*
X126686398Y-74718596D01*
X126541404Y-74573602D01*
X126427477Y-74403098D01*
X126349005Y-74213648D01*
X126309000Y-74012531D01*
X126309000Y-73807469D01*
X126349005Y-73606352D01*
X126427477Y-73416902D01*
X126541404Y-73246398D01*
X126686398Y-73101404D01*
X126856902Y-72987477D01*
X126990863Y-72931989D01*
X127046351Y-72909005D01*
X127146911Y-72889002D01*
X127247469Y-72869000D01*
X127452531Y-72869000D01*
X127553089Y-72889002D01*
X127553089Y-72889002D01*
G37*
G36*
X139553089Y-72889002D02*
X139653649Y-72909005D01*
X139709137Y-72931989D01*
X139843098Y-72987477D01*
X140013602Y-73101404D01*
X140158596Y-73246398D01*
X140272523Y-73416902D01*
X140350995Y-73606352D01*
X140391000Y-73807469D01*
X140391000Y-74012531D01*
X140350995Y-74213648D01*
X140272523Y-74403098D01*
X140158596Y-74573602D01*
X140013602Y-74718596D01*
X139843098Y-74832523D01*
X139709137Y-74888011D01*
X139653649Y-74910995D01*
X139553089Y-74930998D01*
X139452531Y-74951000D01*
X139247469Y-74951000D01*
X139146911Y-74930998D01*
X139046351Y-74910995D01*
X138990863Y-74888011D01*
X138856902Y-74832523D01*
X138686398Y-74718596D01*
X138541404Y-74573602D01*
X138427477Y-74403098D01*
X138349005Y-74213648D01*
X138309000Y-74012531D01*
X138309000Y-73807469D01*
X138349005Y-73606352D01*
X138427477Y-73416902D01*
X138541404Y-73246398D01*
X138686398Y-73101404D01*
X138856902Y-72987477D01*
X138990863Y-72931989D01*
X139046351Y-72909005D01*
X139146911Y-72889002D01*
X139247469Y-72869000D01*
X139452531Y-72869000D01*
X139553089Y-72889002D01*
X139553089Y-72889002D01*
G37*
G36*
X109773089Y-72889002D02*
X109873649Y-72909005D01*
X109929137Y-72931989D01*
X110063098Y-72987477D01*
X110233602Y-73101404D01*
X110378596Y-73246398D01*
X110492523Y-73416902D01*
X110570995Y-73606352D01*
X110611000Y-73807469D01*
X110611000Y-74012531D01*
X110570995Y-74213648D01*
X110492523Y-74403098D01*
X110378596Y-74573602D01*
X110233602Y-74718596D01*
X110063098Y-74832523D01*
X109929137Y-74888011D01*
X109873649Y-74910995D01*
X109773089Y-74930998D01*
X109672531Y-74951000D01*
X109467469Y-74951000D01*
X109366911Y-74930998D01*
X109266351Y-74910995D01*
X109210863Y-74888011D01*
X109076902Y-74832523D01*
X108906398Y-74718596D01*
X108761404Y-74573602D01*
X108647477Y-74403098D01*
X108569005Y-74213648D01*
X108529000Y-74012531D01*
X108529000Y-73807469D01*
X108569005Y-73606352D01*
X108647477Y-73416902D01*
X108761404Y-73246398D01*
X108906398Y-73101404D01*
X109076902Y-72987477D01*
X109210863Y-72931989D01*
X109266351Y-72909005D01*
X109366911Y-72889002D01*
X109467469Y-72869000D01*
X109672531Y-72869000D01*
X109773089Y-72889002D01*
X109773089Y-72889002D01*
G37*
G36*
X121773089Y-72889002D02*
X121873649Y-72909005D01*
X121929137Y-72931989D01*
X122063098Y-72987477D01*
X122233602Y-73101404D01*
X122378596Y-73246398D01*
X122492523Y-73416902D01*
X122570995Y-73606352D01*
X122611000Y-73807469D01*
X122611000Y-74012531D01*
X122570995Y-74213648D01*
X122492523Y-74403098D01*
X122378596Y-74573602D01*
X122233602Y-74718596D01*
X122063098Y-74832523D01*
X121929137Y-74888011D01*
X121873649Y-74910995D01*
X121773089Y-74930998D01*
X121672531Y-74951000D01*
X121467469Y-74951000D01*
X121366911Y-74930998D01*
X121266351Y-74910995D01*
X121210863Y-74888011D01*
X121076902Y-74832523D01*
X120906398Y-74718596D01*
X120761404Y-74573602D01*
X120647477Y-74403098D01*
X120569005Y-74213648D01*
X120529000Y-74012531D01*
X120529000Y-73807469D01*
X120569005Y-73606352D01*
X120647477Y-73416902D01*
X120761404Y-73246398D01*
X120906398Y-73101404D01*
X121076902Y-72987477D01*
X121210863Y-72931989D01*
X121266351Y-72909005D01*
X121366911Y-72889002D01*
X121467469Y-72869000D01*
X121672531Y-72869000D01*
X121773089Y-72889002D01*
X121773089Y-72889002D01*
G37*
G36*
X98142527Y-63258736D02*
X98242410Y-63278604D01*
X98524674Y-63395521D01*
X98778705Y-63565259D01*
X98994741Y-63781295D01*
X99164479Y-64035326D01*
X99281396Y-64317590D01*
X99341000Y-64617240D01*
X99341000Y-64922760D01*
X99281396Y-65222410D01*
X99164479Y-65504674D01*
X98994741Y-65758705D01*
X98778705Y-65974741D01*
X98524674Y-66144479D01*
X98242410Y-66261396D01*
X98142527Y-66281264D01*
X97942762Y-66321000D01*
X97637238Y-66321000D01*
X97437473Y-66281264D01*
X97337590Y-66261396D01*
X97055326Y-66144479D01*
X96801295Y-65974741D01*
X96585259Y-65758705D01*
X96415521Y-65504674D01*
X96298604Y-65222410D01*
X96239000Y-64922760D01*
X96239000Y-64617240D01*
X96298604Y-64317590D01*
X96415521Y-64035326D01*
X96585259Y-63781295D01*
X96801295Y-63565259D01*
X97055326Y-63395521D01*
X97337590Y-63278604D01*
X97437473Y-63258736D01*
X97637238Y-63219000D01*
X97942762Y-63219000D01*
X98142527Y-63258736D01*
X98142527Y-63258736D01*
G37*
G36*
X128622527Y-63258736D02*
X128722410Y-63278604D01*
X129004674Y-63395521D01*
X129258705Y-63565259D01*
X129474741Y-63781295D01*
X129644479Y-64035326D01*
X129761396Y-64317590D01*
X129821000Y-64617240D01*
X129821000Y-64922760D01*
X129761396Y-65222410D01*
X129644479Y-65504674D01*
X129474741Y-65758705D01*
X129258705Y-65974741D01*
X129004674Y-66144479D01*
X128722410Y-66261396D01*
X128622527Y-66281264D01*
X128422762Y-66321000D01*
X128117238Y-66321000D01*
X127917473Y-66281264D01*
X127817590Y-66261396D01*
X127535326Y-66144479D01*
X127281295Y-65974741D01*
X127065259Y-65758705D01*
X126895521Y-65504674D01*
X126778604Y-65222410D01*
X126719000Y-64922760D01*
X126719000Y-64617240D01*
X126778604Y-64317590D01*
X126895521Y-64035326D01*
X127065259Y-63781295D01*
X127281295Y-63565259D01*
X127535326Y-63395521D01*
X127817590Y-63278604D01*
X127917473Y-63258736D01*
X128117238Y-63219000D01*
X128422762Y-63219000D01*
X128622527Y-63258736D01*
X128622527Y-63258736D01*
G37*
G36*
X133702527Y-63258736D02*
X133802410Y-63278604D01*
X134084674Y-63395521D01*
X134338705Y-63565259D01*
X134554741Y-63781295D01*
X134724479Y-64035326D01*
X134841396Y-64317590D01*
X134901000Y-64617240D01*
X134901000Y-64922760D01*
X134841396Y-65222410D01*
X134724479Y-65504674D01*
X134554741Y-65758705D01*
X134338705Y-65974741D01*
X134084674Y-66144479D01*
X133802410Y-66261396D01*
X133702527Y-66281264D01*
X133502762Y-66321000D01*
X133197238Y-66321000D01*
X132997473Y-66281264D01*
X132897590Y-66261396D01*
X132615326Y-66144479D01*
X132361295Y-65974741D01*
X132145259Y-65758705D01*
X131975521Y-65504674D01*
X131858604Y-65222410D01*
X131799000Y-64922760D01*
X131799000Y-64617240D01*
X131858604Y-64317590D01*
X131975521Y-64035326D01*
X132145259Y-63781295D01*
X132361295Y-63565259D01*
X132615326Y-63395521D01*
X132897590Y-63278604D01*
X132997473Y-63258736D01*
X133197238Y-63219000D01*
X133502762Y-63219000D01*
X133702527Y-63258736D01*
X133702527Y-63258736D01*
G37*
G36*
X139981000Y-66321000D02*
X136879000Y-66321000D01*
X136879000Y-63219000D01*
X139981000Y-63219000D01*
X139981000Y-66321000D01*
X139981000Y-66321000D01*
G37*
G36*
X122201000Y-66321000D02*
X119099000Y-66321000D01*
X119099000Y-63219000D01*
X122201000Y-63219000D01*
X122201000Y-66321000D01*
X122201000Y-66321000D01*
G37*
G36*
X115922527Y-63258736D02*
X116022410Y-63278604D01*
X116304674Y-63395521D01*
X116558705Y-63565259D01*
X116774741Y-63781295D01*
X116944479Y-64035326D01*
X117061396Y-64317590D01*
X117121000Y-64617240D01*
X117121000Y-64922760D01*
X117061396Y-65222410D01*
X116944479Y-65504674D01*
X116774741Y-65758705D01*
X116558705Y-65974741D01*
X116304674Y-66144479D01*
X116022410Y-66261396D01*
X115922527Y-66281264D01*
X115722762Y-66321000D01*
X115417238Y-66321000D01*
X115217473Y-66281264D01*
X115117590Y-66261396D01*
X114835326Y-66144479D01*
X114581295Y-65974741D01*
X114365259Y-65758705D01*
X114195521Y-65504674D01*
X114078604Y-65222410D01*
X114019000Y-64922760D01*
X114019000Y-64617240D01*
X114078604Y-64317590D01*
X114195521Y-64035326D01*
X114365259Y-63781295D01*
X114581295Y-63565259D01*
X114835326Y-63395521D01*
X115117590Y-63278604D01*
X115217473Y-63258736D01*
X115417238Y-63219000D01*
X115722762Y-63219000D01*
X115922527Y-63258736D01*
X115922527Y-63258736D01*
G37*
G36*
X110842527Y-63258736D02*
X110942410Y-63278604D01*
X111224674Y-63395521D01*
X111478705Y-63565259D01*
X111694741Y-63781295D01*
X111864479Y-64035326D01*
X111981396Y-64317590D01*
X112041000Y-64617240D01*
X112041000Y-64922760D01*
X111981396Y-65222410D01*
X111864479Y-65504674D01*
X111694741Y-65758705D01*
X111478705Y-65974741D01*
X111224674Y-66144479D01*
X110942410Y-66261396D01*
X110842527Y-66281264D01*
X110642762Y-66321000D01*
X110337238Y-66321000D01*
X110137473Y-66281264D01*
X110037590Y-66261396D01*
X109755326Y-66144479D01*
X109501295Y-65974741D01*
X109285259Y-65758705D01*
X109115521Y-65504674D01*
X108998604Y-65222410D01*
X108939000Y-64922760D01*
X108939000Y-64617240D01*
X108998604Y-64317590D01*
X109115521Y-64035326D01*
X109285259Y-63781295D01*
X109501295Y-63565259D01*
X109755326Y-63395521D01*
X110037590Y-63278604D01*
X110137473Y-63258736D01*
X110337238Y-63219000D01*
X110642762Y-63219000D01*
X110842527Y-63258736D01*
X110842527Y-63258736D01*
G37*
G36*
X94261000Y-66321000D02*
X91159000Y-66321000D01*
X91159000Y-63219000D01*
X94261000Y-63219000D01*
X94261000Y-66321000D01*
X94261000Y-66321000D01*
G37*
M02*
