G04 #@! TF.GenerationSoftware,KiCad,Pcbnew,5.0.2-bee76a0~70~ubuntu18.10.1*
G04 #@! TF.CreationDate,2019-05-17T12:20:37+02:00*
G04 #@! TF.ProjectId,interruptor,696e7465-7272-4757-9074-6f722e6b6963,rev?*
G04 #@! TF.SameCoordinates,Original*
G04 #@! TF.FileFunction,Paste,Bot*
G04 #@! TF.FilePolarity,Positive*
%FSLAX46Y46*%
G04 Gerber Fmt 4.6, Leading zero omitted, Abs format (unit mm)*
G04 Created by KiCad (PCBNEW 5.0.2-bee76a0~70~ubuntu18.10.1) date vie 17 may 2019 12:20:37 CEST*
%MOMM*%
%LPD*%
G01*
G04 APERTURE LIST*
%ADD10C,0.100000*%
%ADD11C,1.425000*%
G04 APERTURE END LIST*
D10*
G04 #@! TO.C,R1*
G36*
X124656504Y-110378204D02*
X124680773Y-110381804D01*
X124704571Y-110387765D01*
X124727671Y-110396030D01*
X124749849Y-110406520D01*
X124770893Y-110419133D01*
X124790598Y-110433747D01*
X124808777Y-110450223D01*
X124825253Y-110468402D01*
X124839867Y-110488107D01*
X124852480Y-110509151D01*
X124862970Y-110531329D01*
X124871235Y-110554429D01*
X124877196Y-110578227D01*
X124880796Y-110602496D01*
X124882000Y-110627000D01*
X124882000Y-111877000D01*
X124880796Y-111901504D01*
X124877196Y-111925773D01*
X124871235Y-111949571D01*
X124862970Y-111972671D01*
X124852480Y-111994849D01*
X124839867Y-112015893D01*
X124825253Y-112035598D01*
X124808777Y-112053777D01*
X124790598Y-112070253D01*
X124770893Y-112084867D01*
X124749849Y-112097480D01*
X124727671Y-112107970D01*
X124704571Y-112116235D01*
X124680773Y-112122196D01*
X124656504Y-112125796D01*
X124632000Y-112127000D01*
X123707000Y-112127000D01*
X123682496Y-112125796D01*
X123658227Y-112122196D01*
X123634429Y-112116235D01*
X123611329Y-112107970D01*
X123589151Y-112097480D01*
X123568107Y-112084867D01*
X123548402Y-112070253D01*
X123530223Y-112053777D01*
X123513747Y-112035598D01*
X123499133Y-112015893D01*
X123486520Y-111994849D01*
X123476030Y-111972671D01*
X123467765Y-111949571D01*
X123461804Y-111925773D01*
X123458204Y-111901504D01*
X123457000Y-111877000D01*
X123457000Y-110627000D01*
X123458204Y-110602496D01*
X123461804Y-110578227D01*
X123467765Y-110554429D01*
X123476030Y-110531329D01*
X123486520Y-110509151D01*
X123499133Y-110488107D01*
X123513747Y-110468402D01*
X123530223Y-110450223D01*
X123548402Y-110433747D01*
X123568107Y-110419133D01*
X123589151Y-110406520D01*
X123611329Y-110396030D01*
X123634429Y-110387765D01*
X123658227Y-110381804D01*
X123682496Y-110378204D01*
X123707000Y-110377000D01*
X124632000Y-110377000D01*
X124656504Y-110378204D01*
X124656504Y-110378204D01*
G37*
D11*
X124169500Y-111252000D03*
D10*
G36*
X121681504Y-110378204D02*
X121705773Y-110381804D01*
X121729571Y-110387765D01*
X121752671Y-110396030D01*
X121774849Y-110406520D01*
X121795893Y-110419133D01*
X121815598Y-110433747D01*
X121833777Y-110450223D01*
X121850253Y-110468402D01*
X121864867Y-110488107D01*
X121877480Y-110509151D01*
X121887970Y-110531329D01*
X121896235Y-110554429D01*
X121902196Y-110578227D01*
X121905796Y-110602496D01*
X121907000Y-110627000D01*
X121907000Y-111877000D01*
X121905796Y-111901504D01*
X121902196Y-111925773D01*
X121896235Y-111949571D01*
X121887970Y-111972671D01*
X121877480Y-111994849D01*
X121864867Y-112015893D01*
X121850253Y-112035598D01*
X121833777Y-112053777D01*
X121815598Y-112070253D01*
X121795893Y-112084867D01*
X121774849Y-112097480D01*
X121752671Y-112107970D01*
X121729571Y-112116235D01*
X121705773Y-112122196D01*
X121681504Y-112125796D01*
X121657000Y-112127000D01*
X120732000Y-112127000D01*
X120707496Y-112125796D01*
X120683227Y-112122196D01*
X120659429Y-112116235D01*
X120636329Y-112107970D01*
X120614151Y-112097480D01*
X120593107Y-112084867D01*
X120573402Y-112070253D01*
X120555223Y-112053777D01*
X120538747Y-112035598D01*
X120524133Y-112015893D01*
X120511520Y-111994849D01*
X120501030Y-111972671D01*
X120492765Y-111949571D01*
X120486804Y-111925773D01*
X120483204Y-111901504D01*
X120482000Y-111877000D01*
X120482000Y-110627000D01*
X120483204Y-110602496D01*
X120486804Y-110578227D01*
X120492765Y-110554429D01*
X120501030Y-110531329D01*
X120511520Y-110509151D01*
X120524133Y-110488107D01*
X120538747Y-110468402D01*
X120555223Y-110450223D01*
X120573402Y-110433747D01*
X120593107Y-110419133D01*
X120614151Y-110406520D01*
X120636329Y-110396030D01*
X120659429Y-110387765D01*
X120683227Y-110381804D01*
X120707496Y-110378204D01*
X120732000Y-110377000D01*
X121657000Y-110377000D01*
X121681504Y-110378204D01*
X121681504Y-110378204D01*
G37*
D11*
X121194500Y-111252000D03*
G04 #@! TD*
D10*
G04 #@! TO.C,R2*
G36*
X121681504Y-115966204D02*
X121705773Y-115969804D01*
X121729571Y-115975765D01*
X121752671Y-115984030D01*
X121774849Y-115994520D01*
X121795893Y-116007133D01*
X121815598Y-116021747D01*
X121833777Y-116038223D01*
X121850253Y-116056402D01*
X121864867Y-116076107D01*
X121877480Y-116097151D01*
X121887970Y-116119329D01*
X121896235Y-116142429D01*
X121902196Y-116166227D01*
X121905796Y-116190496D01*
X121907000Y-116215000D01*
X121907000Y-117465000D01*
X121905796Y-117489504D01*
X121902196Y-117513773D01*
X121896235Y-117537571D01*
X121887970Y-117560671D01*
X121877480Y-117582849D01*
X121864867Y-117603893D01*
X121850253Y-117623598D01*
X121833777Y-117641777D01*
X121815598Y-117658253D01*
X121795893Y-117672867D01*
X121774849Y-117685480D01*
X121752671Y-117695970D01*
X121729571Y-117704235D01*
X121705773Y-117710196D01*
X121681504Y-117713796D01*
X121657000Y-117715000D01*
X120732000Y-117715000D01*
X120707496Y-117713796D01*
X120683227Y-117710196D01*
X120659429Y-117704235D01*
X120636329Y-117695970D01*
X120614151Y-117685480D01*
X120593107Y-117672867D01*
X120573402Y-117658253D01*
X120555223Y-117641777D01*
X120538747Y-117623598D01*
X120524133Y-117603893D01*
X120511520Y-117582849D01*
X120501030Y-117560671D01*
X120492765Y-117537571D01*
X120486804Y-117513773D01*
X120483204Y-117489504D01*
X120482000Y-117465000D01*
X120482000Y-116215000D01*
X120483204Y-116190496D01*
X120486804Y-116166227D01*
X120492765Y-116142429D01*
X120501030Y-116119329D01*
X120511520Y-116097151D01*
X120524133Y-116076107D01*
X120538747Y-116056402D01*
X120555223Y-116038223D01*
X120573402Y-116021747D01*
X120593107Y-116007133D01*
X120614151Y-115994520D01*
X120636329Y-115984030D01*
X120659429Y-115975765D01*
X120683227Y-115969804D01*
X120707496Y-115966204D01*
X120732000Y-115965000D01*
X121657000Y-115965000D01*
X121681504Y-115966204D01*
X121681504Y-115966204D01*
G37*
D11*
X121194500Y-116840000D03*
D10*
G36*
X124656504Y-115966204D02*
X124680773Y-115969804D01*
X124704571Y-115975765D01*
X124727671Y-115984030D01*
X124749849Y-115994520D01*
X124770893Y-116007133D01*
X124790598Y-116021747D01*
X124808777Y-116038223D01*
X124825253Y-116056402D01*
X124839867Y-116076107D01*
X124852480Y-116097151D01*
X124862970Y-116119329D01*
X124871235Y-116142429D01*
X124877196Y-116166227D01*
X124880796Y-116190496D01*
X124882000Y-116215000D01*
X124882000Y-117465000D01*
X124880796Y-117489504D01*
X124877196Y-117513773D01*
X124871235Y-117537571D01*
X124862970Y-117560671D01*
X124852480Y-117582849D01*
X124839867Y-117603893D01*
X124825253Y-117623598D01*
X124808777Y-117641777D01*
X124790598Y-117658253D01*
X124770893Y-117672867D01*
X124749849Y-117685480D01*
X124727671Y-117695970D01*
X124704571Y-117704235D01*
X124680773Y-117710196D01*
X124656504Y-117713796D01*
X124632000Y-117715000D01*
X123707000Y-117715000D01*
X123682496Y-117713796D01*
X123658227Y-117710196D01*
X123634429Y-117704235D01*
X123611329Y-117695970D01*
X123589151Y-117685480D01*
X123568107Y-117672867D01*
X123548402Y-117658253D01*
X123530223Y-117641777D01*
X123513747Y-117623598D01*
X123499133Y-117603893D01*
X123486520Y-117582849D01*
X123476030Y-117560671D01*
X123467765Y-117537571D01*
X123461804Y-117513773D01*
X123458204Y-117489504D01*
X123457000Y-117465000D01*
X123457000Y-116215000D01*
X123458204Y-116190496D01*
X123461804Y-116166227D01*
X123467765Y-116142429D01*
X123476030Y-116119329D01*
X123486520Y-116097151D01*
X123499133Y-116076107D01*
X123513747Y-116056402D01*
X123530223Y-116038223D01*
X123548402Y-116021747D01*
X123568107Y-116007133D01*
X123589151Y-115994520D01*
X123611329Y-115984030D01*
X123634429Y-115975765D01*
X123658227Y-115969804D01*
X123682496Y-115966204D01*
X123707000Y-115965000D01*
X124632000Y-115965000D01*
X124656504Y-115966204D01*
X124656504Y-115966204D01*
G37*
D11*
X124169500Y-116840000D03*
G04 #@! TD*
D10*
G04 #@! TO.C,R3*
G36*
X121681504Y-113172204D02*
X121705773Y-113175804D01*
X121729571Y-113181765D01*
X121752671Y-113190030D01*
X121774849Y-113200520D01*
X121795893Y-113213133D01*
X121815598Y-113227747D01*
X121833777Y-113244223D01*
X121850253Y-113262402D01*
X121864867Y-113282107D01*
X121877480Y-113303151D01*
X121887970Y-113325329D01*
X121896235Y-113348429D01*
X121902196Y-113372227D01*
X121905796Y-113396496D01*
X121907000Y-113421000D01*
X121907000Y-114671000D01*
X121905796Y-114695504D01*
X121902196Y-114719773D01*
X121896235Y-114743571D01*
X121887970Y-114766671D01*
X121877480Y-114788849D01*
X121864867Y-114809893D01*
X121850253Y-114829598D01*
X121833777Y-114847777D01*
X121815598Y-114864253D01*
X121795893Y-114878867D01*
X121774849Y-114891480D01*
X121752671Y-114901970D01*
X121729571Y-114910235D01*
X121705773Y-114916196D01*
X121681504Y-114919796D01*
X121657000Y-114921000D01*
X120732000Y-114921000D01*
X120707496Y-114919796D01*
X120683227Y-114916196D01*
X120659429Y-114910235D01*
X120636329Y-114901970D01*
X120614151Y-114891480D01*
X120593107Y-114878867D01*
X120573402Y-114864253D01*
X120555223Y-114847777D01*
X120538747Y-114829598D01*
X120524133Y-114809893D01*
X120511520Y-114788849D01*
X120501030Y-114766671D01*
X120492765Y-114743571D01*
X120486804Y-114719773D01*
X120483204Y-114695504D01*
X120482000Y-114671000D01*
X120482000Y-113421000D01*
X120483204Y-113396496D01*
X120486804Y-113372227D01*
X120492765Y-113348429D01*
X120501030Y-113325329D01*
X120511520Y-113303151D01*
X120524133Y-113282107D01*
X120538747Y-113262402D01*
X120555223Y-113244223D01*
X120573402Y-113227747D01*
X120593107Y-113213133D01*
X120614151Y-113200520D01*
X120636329Y-113190030D01*
X120659429Y-113181765D01*
X120683227Y-113175804D01*
X120707496Y-113172204D01*
X120732000Y-113171000D01*
X121657000Y-113171000D01*
X121681504Y-113172204D01*
X121681504Y-113172204D01*
G37*
D11*
X121194500Y-114046000D03*
D10*
G36*
X124656504Y-113172204D02*
X124680773Y-113175804D01*
X124704571Y-113181765D01*
X124727671Y-113190030D01*
X124749849Y-113200520D01*
X124770893Y-113213133D01*
X124790598Y-113227747D01*
X124808777Y-113244223D01*
X124825253Y-113262402D01*
X124839867Y-113282107D01*
X124852480Y-113303151D01*
X124862970Y-113325329D01*
X124871235Y-113348429D01*
X124877196Y-113372227D01*
X124880796Y-113396496D01*
X124882000Y-113421000D01*
X124882000Y-114671000D01*
X124880796Y-114695504D01*
X124877196Y-114719773D01*
X124871235Y-114743571D01*
X124862970Y-114766671D01*
X124852480Y-114788849D01*
X124839867Y-114809893D01*
X124825253Y-114829598D01*
X124808777Y-114847777D01*
X124790598Y-114864253D01*
X124770893Y-114878867D01*
X124749849Y-114891480D01*
X124727671Y-114901970D01*
X124704571Y-114910235D01*
X124680773Y-114916196D01*
X124656504Y-114919796D01*
X124632000Y-114921000D01*
X123707000Y-114921000D01*
X123682496Y-114919796D01*
X123658227Y-114916196D01*
X123634429Y-114910235D01*
X123611329Y-114901970D01*
X123589151Y-114891480D01*
X123568107Y-114878867D01*
X123548402Y-114864253D01*
X123530223Y-114847777D01*
X123513747Y-114829598D01*
X123499133Y-114809893D01*
X123486520Y-114788849D01*
X123476030Y-114766671D01*
X123467765Y-114743571D01*
X123461804Y-114719773D01*
X123458204Y-114695504D01*
X123457000Y-114671000D01*
X123457000Y-113421000D01*
X123458204Y-113396496D01*
X123461804Y-113372227D01*
X123467765Y-113348429D01*
X123476030Y-113325329D01*
X123486520Y-113303151D01*
X123499133Y-113282107D01*
X123513747Y-113262402D01*
X123530223Y-113244223D01*
X123548402Y-113227747D01*
X123568107Y-113213133D01*
X123589151Y-113200520D01*
X123611329Y-113190030D01*
X123634429Y-113181765D01*
X123658227Y-113175804D01*
X123682496Y-113172204D01*
X123707000Y-113171000D01*
X124632000Y-113171000D01*
X124656504Y-113172204D01*
X124656504Y-113172204D01*
G37*
D11*
X124169500Y-114046000D03*
G04 #@! TD*
M02*
