G04 #@! TF.GenerationSoftware,KiCad,Pcbnew,5.0.2-bee76a0~70~ubuntu18.10.1*
G04 #@! TF.CreationDate,2019-05-17T12:20:37+02:00*
G04 #@! TF.ProjectId,interruptor,696e7465-7272-4757-9074-6f722e6b6963,rev?*
G04 #@! TF.SameCoordinates,Original*
G04 #@! TF.FileFunction,Paste,Top*
G04 #@! TF.FilePolarity,Positive*
%FSLAX46Y46*%
G04 Gerber Fmt 4.6, Leading zero omitted, Abs format (unit mm)*
G04 Created by KiCad (PCBNEW 5.0.2-bee76a0~70~ubuntu18.10.1) date vie 17 may 2019 12:20:37 CEST*
%MOMM*%
%LPD*%
G01*
G04 APERTURE LIST*
%ADD10C,0.100000*%
%ADD11C,1.425000*%
%ADD12R,2.000000X3.800000*%
%ADD13R,2.000000X1.500000*%
%ADD14R,1.100000X2.500000*%
%ADD15O,1.100000X2.500000*%
G04 APERTURE END LIST*
D10*
G04 #@! TO.C,C1*
G36*
X89169504Y-107330204D02*
X89193773Y-107333804D01*
X89217571Y-107339765D01*
X89240671Y-107348030D01*
X89262849Y-107358520D01*
X89283893Y-107371133D01*
X89303598Y-107385747D01*
X89321777Y-107402223D01*
X89338253Y-107420402D01*
X89352867Y-107440107D01*
X89365480Y-107461151D01*
X89375970Y-107483329D01*
X89384235Y-107506429D01*
X89390196Y-107530227D01*
X89393796Y-107554496D01*
X89395000Y-107579000D01*
X89395000Y-108829000D01*
X89393796Y-108853504D01*
X89390196Y-108877773D01*
X89384235Y-108901571D01*
X89375970Y-108924671D01*
X89365480Y-108946849D01*
X89352867Y-108967893D01*
X89338253Y-108987598D01*
X89321777Y-109005777D01*
X89303598Y-109022253D01*
X89283893Y-109036867D01*
X89262849Y-109049480D01*
X89240671Y-109059970D01*
X89217571Y-109068235D01*
X89193773Y-109074196D01*
X89169504Y-109077796D01*
X89145000Y-109079000D01*
X88220000Y-109079000D01*
X88195496Y-109077796D01*
X88171227Y-109074196D01*
X88147429Y-109068235D01*
X88124329Y-109059970D01*
X88102151Y-109049480D01*
X88081107Y-109036867D01*
X88061402Y-109022253D01*
X88043223Y-109005777D01*
X88026747Y-108987598D01*
X88012133Y-108967893D01*
X87999520Y-108946849D01*
X87989030Y-108924671D01*
X87980765Y-108901571D01*
X87974804Y-108877773D01*
X87971204Y-108853504D01*
X87970000Y-108829000D01*
X87970000Y-107579000D01*
X87971204Y-107554496D01*
X87974804Y-107530227D01*
X87980765Y-107506429D01*
X87989030Y-107483329D01*
X87999520Y-107461151D01*
X88012133Y-107440107D01*
X88026747Y-107420402D01*
X88043223Y-107402223D01*
X88061402Y-107385747D01*
X88081107Y-107371133D01*
X88102151Y-107358520D01*
X88124329Y-107348030D01*
X88147429Y-107339765D01*
X88171227Y-107333804D01*
X88195496Y-107330204D01*
X88220000Y-107329000D01*
X89145000Y-107329000D01*
X89169504Y-107330204D01*
X89169504Y-107330204D01*
G37*
D11*
X88682500Y-108204000D03*
D10*
G36*
X92144504Y-107330204D02*
X92168773Y-107333804D01*
X92192571Y-107339765D01*
X92215671Y-107348030D01*
X92237849Y-107358520D01*
X92258893Y-107371133D01*
X92278598Y-107385747D01*
X92296777Y-107402223D01*
X92313253Y-107420402D01*
X92327867Y-107440107D01*
X92340480Y-107461151D01*
X92350970Y-107483329D01*
X92359235Y-107506429D01*
X92365196Y-107530227D01*
X92368796Y-107554496D01*
X92370000Y-107579000D01*
X92370000Y-108829000D01*
X92368796Y-108853504D01*
X92365196Y-108877773D01*
X92359235Y-108901571D01*
X92350970Y-108924671D01*
X92340480Y-108946849D01*
X92327867Y-108967893D01*
X92313253Y-108987598D01*
X92296777Y-109005777D01*
X92278598Y-109022253D01*
X92258893Y-109036867D01*
X92237849Y-109049480D01*
X92215671Y-109059970D01*
X92192571Y-109068235D01*
X92168773Y-109074196D01*
X92144504Y-109077796D01*
X92120000Y-109079000D01*
X91195000Y-109079000D01*
X91170496Y-109077796D01*
X91146227Y-109074196D01*
X91122429Y-109068235D01*
X91099329Y-109059970D01*
X91077151Y-109049480D01*
X91056107Y-109036867D01*
X91036402Y-109022253D01*
X91018223Y-109005777D01*
X91001747Y-108987598D01*
X90987133Y-108967893D01*
X90974520Y-108946849D01*
X90964030Y-108924671D01*
X90955765Y-108901571D01*
X90949804Y-108877773D01*
X90946204Y-108853504D01*
X90945000Y-108829000D01*
X90945000Y-107579000D01*
X90946204Y-107554496D01*
X90949804Y-107530227D01*
X90955765Y-107506429D01*
X90964030Y-107483329D01*
X90974520Y-107461151D01*
X90987133Y-107440107D01*
X91001747Y-107420402D01*
X91018223Y-107402223D01*
X91036402Y-107385747D01*
X91056107Y-107371133D01*
X91077151Y-107358520D01*
X91099329Y-107348030D01*
X91122429Y-107339765D01*
X91146227Y-107333804D01*
X91170496Y-107330204D01*
X91195000Y-107329000D01*
X92120000Y-107329000D01*
X92144504Y-107330204D01*
X92144504Y-107330204D01*
G37*
D11*
X91657500Y-108204000D03*
G04 #@! TD*
D10*
G04 #@! TO.C,C2*
G36*
X91927004Y-119776204D02*
X91951273Y-119779804D01*
X91975071Y-119785765D01*
X91998171Y-119794030D01*
X92020349Y-119804520D01*
X92041393Y-119817133D01*
X92061098Y-119831747D01*
X92079277Y-119848223D01*
X92095753Y-119866402D01*
X92110367Y-119886107D01*
X92122980Y-119907151D01*
X92133470Y-119929329D01*
X92141735Y-119952429D01*
X92147696Y-119976227D01*
X92151296Y-120000496D01*
X92152500Y-120025000D01*
X92152500Y-121275000D01*
X92151296Y-121299504D01*
X92147696Y-121323773D01*
X92141735Y-121347571D01*
X92133470Y-121370671D01*
X92122980Y-121392849D01*
X92110367Y-121413893D01*
X92095753Y-121433598D01*
X92079277Y-121451777D01*
X92061098Y-121468253D01*
X92041393Y-121482867D01*
X92020349Y-121495480D01*
X91998171Y-121505970D01*
X91975071Y-121514235D01*
X91951273Y-121520196D01*
X91927004Y-121523796D01*
X91902500Y-121525000D01*
X90977500Y-121525000D01*
X90952996Y-121523796D01*
X90928727Y-121520196D01*
X90904929Y-121514235D01*
X90881829Y-121505970D01*
X90859651Y-121495480D01*
X90838607Y-121482867D01*
X90818902Y-121468253D01*
X90800723Y-121451777D01*
X90784247Y-121433598D01*
X90769633Y-121413893D01*
X90757020Y-121392849D01*
X90746530Y-121370671D01*
X90738265Y-121347571D01*
X90732304Y-121323773D01*
X90728704Y-121299504D01*
X90727500Y-121275000D01*
X90727500Y-120025000D01*
X90728704Y-120000496D01*
X90732304Y-119976227D01*
X90738265Y-119952429D01*
X90746530Y-119929329D01*
X90757020Y-119907151D01*
X90769633Y-119886107D01*
X90784247Y-119866402D01*
X90800723Y-119848223D01*
X90818902Y-119831747D01*
X90838607Y-119817133D01*
X90859651Y-119804520D01*
X90881829Y-119794030D01*
X90904929Y-119785765D01*
X90928727Y-119779804D01*
X90952996Y-119776204D01*
X90977500Y-119775000D01*
X91902500Y-119775000D01*
X91927004Y-119776204D01*
X91927004Y-119776204D01*
G37*
D11*
X91440000Y-120650000D03*
D10*
G36*
X88952004Y-119776204D02*
X88976273Y-119779804D01*
X89000071Y-119785765D01*
X89023171Y-119794030D01*
X89045349Y-119804520D01*
X89066393Y-119817133D01*
X89086098Y-119831747D01*
X89104277Y-119848223D01*
X89120753Y-119866402D01*
X89135367Y-119886107D01*
X89147980Y-119907151D01*
X89158470Y-119929329D01*
X89166735Y-119952429D01*
X89172696Y-119976227D01*
X89176296Y-120000496D01*
X89177500Y-120025000D01*
X89177500Y-121275000D01*
X89176296Y-121299504D01*
X89172696Y-121323773D01*
X89166735Y-121347571D01*
X89158470Y-121370671D01*
X89147980Y-121392849D01*
X89135367Y-121413893D01*
X89120753Y-121433598D01*
X89104277Y-121451777D01*
X89086098Y-121468253D01*
X89066393Y-121482867D01*
X89045349Y-121495480D01*
X89023171Y-121505970D01*
X89000071Y-121514235D01*
X88976273Y-121520196D01*
X88952004Y-121523796D01*
X88927500Y-121525000D01*
X88002500Y-121525000D01*
X87977996Y-121523796D01*
X87953727Y-121520196D01*
X87929929Y-121514235D01*
X87906829Y-121505970D01*
X87884651Y-121495480D01*
X87863607Y-121482867D01*
X87843902Y-121468253D01*
X87825723Y-121451777D01*
X87809247Y-121433598D01*
X87794633Y-121413893D01*
X87782020Y-121392849D01*
X87771530Y-121370671D01*
X87763265Y-121347571D01*
X87757304Y-121323773D01*
X87753704Y-121299504D01*
X87752500Y-121275000D01*
X87752500Y-120025000D01*
X87753704Y-120000496D01*
X87757304Y-119976227D01*
X87763265Y-119952429D01*
X87771530Y-119929329D01*
X87782020Y-119907151D01*
X87794633Y-119886107D01*
X87809247Y-119866402D01*
X87825723Y-119848223D01*
X87843902Y-119831747D01*
X87863607Y-119817133D01*
X87884651Y-119804520D01*
X87906829Y-119794030D01*
X87929929Y-119785765D01*
X87953727Y-119779804D01*
X87977996Y-119776204D01*
X88002500Y-119775000D01*
X88927500Y-119775000D01*
X88952004Y-119776204D01*
X88952004Y-119776204D01*
G37*
D11*
X88465000Y-120650000D03*
G04 #@! TD*
D12*
G04 #@! TO.C,U2*
X87020000Y-114300000D03*
D13*
X93320000Y-114300000D03*
X93320000Y-112000000D03*
X93320000Y-116600000D03*
G04 #@! TD*
D14*
G04 #@! TO.C,U3*
X134620000Y-105980000D03*
D15*
X132620000Y-105980000D03*
X130620000Y-105980000D03*
X128620000Y-105980000D03*
X126620000Y-105980000D03*
X124620000Y-105980000D03*
X122620000Y-105980000D03*
X120620000Y-105980000D03*
X120620000Y-121380000D03*
X122620000Y-121280000D03*
X124620000Y-121380000D03*
X126620000Y-121380000D03*
X128620000Y-121380000D03*
X130620000Y-121380000D03*
X132620000Y-121380000D03*
X134620000Y-121380000D03*
G04 #@! TD*
D10*
G04 #@! TO.C,R4*
G36*
X120029504Y-96861204D02*
X120053773Y-96864804D01*
X120077571Y-96870765D01*
X120100671Y-96879030D01*
X120122849Y-96889520D01*
X120143893Y-96902133D01*
X120163598Y-96916747D01*
X120181777Y-96933223D01*
X120198253Y-96951402D01*
X120212867Y-96971107D01*
X120225480Y-96992151D01*
X120235970Y-97014329D01*
X120244235Y-97037429D01*
X120250196Y-97061227D01*
X120253796Y-97085496D01*
X120255000Y-97110000D01*
X120255000Y-98035000D01*
X120253796Y-98059504D01*
X120250196Y-98083773D01*
X120244235Y-98107571D01*
X120235970Y-98130671D01*
X120225480Y-98152849D01*
X120212867Y-98173893D01*
X120198253Y-98193598D01*
X120181777Y-98211777D01*
X120163598Y-98228253D01*
X120143893Y-98242867D01*
X120122849Y-98255480D01*
X120100671Y-98265970D01*
X120077571Y-98274235D01*
X120053773Y-98280196D01*
X120029504Y-98283796D01*
X120005000Y-98285000D01*
X118755000Y-98285000D01*
X118730496Y-98283796D01*
X118706227Y-98280196D01*
X118682429Y-98274235D01*
X118659329Y-98265970D01*
X118637151Y-98255480D01*
X118616107Y-98242867D01*
X118596402Y-98228253D01*
X118578223Y-98211777D01*
X118561747Y-98193598D01*
X118547133Y-98173893D01*
X118534520Y-98152849D01*
X118524030Y-98130671D01*
X118515765Y-98107571D01*
X118509804Y-98083773D01*
X118506204Y-98059504D01*
X118505000Y-98035000D01*
X118505000Y-97110000D01*
X118506204Y-97085496D01*
X118509804Y-97061227D01*
X118515765Y-97037429D01*
X118524030Y-97014329D01*
X118534520Y-96992151D01*
X118547133Y-96971107D01*
X118561747Y-96951402D01*
X118578223Y-96933223D01*
X118596402Y-96916747D01*
X118616107Y-96902133D01*
X118637151Y-96889520D01*
X118659329Y-96879030D01*
X118682429Y-96870765D01*
X118706227Y-96864804D01*
X118730496Y-96861204D01*
X118755000Y-96860000D01*
X120005000Y-96860000D01*
X120029504Y-96861204D01*
X120029504Y-96861204D01*
G37*
D11*
X119380000Y-97572500D03*
D10*
G36*
X120029504Y-99836204D02*
X120053773Y-99839804D01*
X120077571Y-99845765D01*
X120100671Y-99854030D01*
X120122849Y-99864520D01*
X120143893Y-99877133D01*
X120163598Y-99891747D01*
X120181777Y-99908223D01*
X120198253Y-99926402D01*
X120212867Y-99946107D01*
X120225480Y-99967151D01*
X120235970Y-99989329D01*
X120244235Y-100012429D01*
X120250196Y-100036227D01*
X120253796Y-100060496D01*
X120255000Y-100085000D01*
X120255000Y-101010000D01*
X120253796Y-101034504D01*
X120250196Y-101058773D01*
X120244235Y-101082571D01*
X120235970Y-101105671D01*
X120225480Y-101127849D01*
X120212867Y-101148893D01*
X120198253Y-101168598D01*
X120181777Y-101186777D01*
X120163598Y-101203253D01*
X120143893Y-101217867D01*
X120122849Y-101230480D01*
X120100671Y-101240970D01*
X120077571Y-101249235D01*
X120053773Y-101255196D01*
X120029504Y-101258796D01*
X120005000Y-101260000D01*
X118755000Y-101260000D01*
X118730496Y-101258796D01*
X118706227Y-101255196D01*
X118682429Y-101249235D01*
X118659329Y-101240970D01*
X118637151Y-101230480D01*
X118616107Y-101217867D01*
X118596402Y-101203253D01*
X118578223Y-101186777D01*
X118561747Y-101168598D01*
X118547133Y-101148893D01*
X118534520Y-101127849D01*
X118524030Y-101105671D01*
X118515765Y-101082571D01*
X118509804Y-101058773D01*
X118506204Y-101034504D01*
X118505000Y-101010000D01*
X118505000Y-100085000D01*
X118506204Y-100060496D01*
X118509804Y-100036227D01*
X118515765Y-100012429D01*
X118524030Y-99989329D01*
X118534520Y-99967151D01*
X118547133Y-99946107D01*
X118561747Y-99926402D01*
X118578223Y-99908223D01*
X118596402Y-99891747D01*
X118616107Y-99877133D01*
X118637151Y-99864520D01*
X118659329Y-99854030D01*
X118682429Y-99845765D01*
X118706227Y-99839804D01*
X118730496Y-99836204D01*
X118755000Y-99835000D01*
X120005000Y-99835000D01*
X120029504Y-99836204D01*
X120029504Y-99836204D01*
G37*
D11*
X119380000Y-100547500D03*
G04 #@! TD*
D10*
G04 #@! TO.C,R5*
G36*
X126379504Y-99836204D02*
X126403773Y-99839804D01*
X126427571Y-99845765D01*
X126450671Y-99854030D01*
X126472849Y-99864520D01*
X126493893Y-99877133D01*
X126513598Y-99891747D01*
X126531777Y-99908223D01*
X126548253Y-99926402D01*
X126562867Y-99946107D01*
X126575480Y-99967151D01*
X126585970Y-99989329D01*
X126594235Y-100012429D01*
X126600196Y-100036227D01*
X126603796Y-100060496D01*
X126605000Y-100085000D01*
X126605000Y-101010000D01*
X126603796Y-101034504D01*
X126600196Y-101058773D01*
X126594235Y-101082571D01*
X126585970Y-101105671D01*
X126575480Y-101127849D01*
X126562867Y-101148893D01*
X126548253Y-101168598D01*
X126531777Y-101186777D01*
X126513598Y-101203253D01*
X126493893Y-101217867D01*
X126472849Y-101230480D01*
X126450671Y-101240970D01*
X126427571Y-101249235D01*
X126403773Y-101255196D01*
X126379504Y-101258796D01*
X126355000Y-101260000D01*
X125105000Y-101260000D01*
X125080496Y-101258796D01*
X125056227Y-101255196D01*
X125032429Y-101249235D01*
X125009329Y-101240970D01*
X124987151Y-101230480D01*
X124966107Y-101217867D01*
X124946402Y-101203253D01*
X124928223Y-101186777D01*
X124911747Y-101168598D01*
X124897133Y-101148893D01*
X124884520Y-101127849D01*
X124874030Y-101105671D01*
X124865765Y-101082571D01*
X124859804Y-101058773D01*
X124856204Y-101034504D01*
X124855000Y-101010000D01*
X124855000Y-100085000D01*
X124856204Y-100060496D01*
X124859804Y-100036227D01*
X124865765Y-100012429D01*
X124874030Y-99989329D01*
X124884520Y-99967151D01*
X124897133Y-99946107D01*
X124911747Y-99926402D01*
X124928223Y-99908223D01*
X124946402Y-99891747D01*
X124966107Y-99877133D01*
X124987151Y-99864520D01*
X125009329Y-99854030D01*
X125032429Y-99845765D01*
X125056227Y-99839804D01*
X125080496Y-99836204D01*
X125105000Y-99835000D01*
X126355000Y-99835000D01*
X126379504Y-99836204D01*
X126379504Y-99836204D01*
G37*
D11*
X125730000Y-100547500D03*
D10*
G36*
X126379504Y-96861204D02*
X126403773Y-96864804D01*
X126427571Y-96870765D01*
X126450671Y-96879030D01*
X126472849Y-96889520D01*
X126493893Y-96902133D01*
X126513598Y-96916747D01*
X126531777Y-96933223D01*
X126548253Y-96951402D01*
X126562867Y-96971107D01*
X126575480Y-96992151D01*
X126585970Y-97014329D01*
X126594235Y-97037429D01*
X126600196Y-97061227D01*
X126603796Y-97085496D01*
X126605000Y-97110000D01*
X126605000Y-98035000D01*
X126603796Y-98059504D01*
X126600196Y-98083773D01*
X126594235Y-98107571D01*
X126585970Y-98130671D01*
X126575480Y-98152849D01*
X126562867Y-98173893D01*
X126548253Y-98193598D01*
X126531777Y-98211777D01*
X126513598Y-98228253D01*
X126493893Y-98242867D01*
X126472849Y-98255480D01*
X126450671Y-98265970D01*
X126427571Y-98274235D01*
X126403773Y-98280196D01*
X126379504Y-98283796D01*
X126355000Y-98285000D01*
X125105000Y-98285000D01*
X125080496Y-98283796D01*
X125056227Y-98280196D01*
X125032429Y-98274235D01*
X125009329Y-98265970D01*
X124987151Y-98255480D01*
X124966107Y-98242867D01*
X124946402Y-98228253D01*
X124928223Y-98211777D01*
X124911747Y-98193598D01*
X124897133Y-98173893D01*
X124884520Y-98152849D01*
X124874030Y-98130671D01*
X124865765Y-98107571D01*
X124859804Y-98083773D01*
X124856204Y-98059504D01*
X124855000Y-98035000D01*
X124855000Y-97110000D01*
X124856204Y-97085496D01*
X124859804Y-97061227D01*
X124865765Y-97037429D01*
X124874030Y-97014329D01*
X124884520Y-96992151D01*
X124897133Y-96971107D01*
X124911747Y-96951402D01*
X124928223Y-96933223D01*
X124946402Y-96916747D01*
X124966107Y-96902133D01*
X124987151Y-96889520D01*
X125009329Y-96879030D01*
X125032429Y-96870765D01*
X125056227Y-96864804D01*
X125080496Y-96861204D01*
X125105000Y-96860000D01*
X126355000Y-96860000D01*
X126379504Y-96861204D01*
X126379504Y-96861204D01*
G37*
D11*
X125730000Y-97572500D03*
G04 #@! TD*
M02*
