G04 #@! TF.GenerationSoftware,KiCad,Pcbnew,5.0.2-bee76a0~70~ubuntu18.10.1*
G04 #@! TF.CreationDate,2019-05-17T12:20:37+02:00*
G04 #@! TF.ProjectId,interruptor,696e7465-7272-4757-9074-6f722e6b6963,rev?*
G04 #@! TF.SameCoordinates,Original*
G04 #@! TF.FileFunction,Legend,Top*
G04 #@! TF.FilePolarity,Positive*
%FSLAX46Y46*%
G04 Gerber Fmt 4.6, Leading zero omitted, Abs format (unit mm)*
G04 Created by KiCad (PCBNEW 5.0.2-bee76a0~70~ubuntu18.10.1) date vie 17 may 2019 12:20:37 CEST*
%MOMM*%
%LPD*%
G01*
G04 APERTURE LIST*
%ADD10C,0.100000*%
%ADD11C,0.120000*%
%ADD12C,0.152400*%
%ADD13C,0.127000*%
%ADD14C,0.300000*%
%ADD15C,0.150000*%
%ADD16C,0.050000*%
G04 APERTURE END LIST*
D10*
X115147619Y-117911904D02*
X115604761Y-117911904D01*
X115376190Y-118711904D02*
X115376190Y-117911904D01*
X115795238Y-118711904D02*
X116214285Y-118178571D01*
X115795238Y-118178571D02*
X116214285Y-118711904D01*
X112898809Y-118711904D02*
X112632142Y-118330952D01*
X112441666Y-118711904D02*
X112441666Y-117911904D01*
X112746428Y-117911904D01*
X112822619Y-117950000D01*
X112860714Y-117988095D01*
X112898809Y-118064285D01*
X112898809Y-118178571D01*
X112860714Y-118254761D01*
X112822619Y-118292857D01*
X112746428Y-118330952D01*
X112441666Y-118330952D01*
X113165476Y-118711904D02*
X113584523Y-118178571D01*
X113165476Y-118178571D02*
X113584523Y-118711904D01*
X107347619Y-120453571D02*
X107347619Y-121101190D01*
X107309523Y-121177380D01*
X107271428Y-121215476D01*
X107195238Y-121253571D01*
X107080952Y-121253571D01*
X107004761Y-121215476D01*
X107347619Y-120948809D02*
X107271428Y-120986904D01*
X107119047Y-120986904D01*
X107042857Y-120948809D01*
X107004761Y-120910714D01*
X106966666Y-120834523D01*
X106966666Y-120605952D01*
X107004761Y-120529761D01*
X107042857Y-120491666D01*
X107119047Y-120453571D01*
X107271428Y-120453571D01*
X107347619Y-120491666D01*
X107728571Y-120453571D02*
X107728571Y-120986904D01*
X107728571Y-120529761D02*
X107766666Y-120491666D01*
X107842857Y-120453571D01*
X107957142Y-120453571D01*
X108033333Y-120491666D01*
X108071428Y-120567857D01*
X108071428Y-120986904D01*
X108795238Y-120986904D02*
X108795238Y-120186904D01*
X108795238Y-120948809D02*
X108719047Y-120986904D01*
X108566666Y-120986904D01*
X108490476Y-120948809D01*
X108452380Y-120910714D01*
X108414285Y-120834523D01*
X108414285Y-120605952D01*
X108452380Y-120529761D01*
X108490476Y-120491666D01*
X108566666Y-120453571D01*
X108719047Y-120453571D01*
X108795238Y-120491666D01*
X108707142Y-115686904D02*
X108707142Y-115153571D01*
X108707142Y-115305952D02*
X108745238Y-115229761D01*
X108783333Y-115191666D01*
X108859523Y-115153571D01*
X108935714Y-115153571D01*
X109507142Y-115648809D02*
X109430952Y-115686904D01*
X109278571Y-115686904D01*
X109202380Y-115648809D01*
X109164285Y-115572619D01*
X109164285Y-115267857D01*
X109202380Y-115191666D01*
X109278571Y-115153571D01*
X109430952Y-115153571D01*
X109507142Y-115191666D01*
X109545238Y-115267857D01*
X109545238Y-115344047D01*
X109164285Y-115420238D01*
X110230952Y-115648809D02*
X110154761Y-115686904D01*
X110002380Y-115686904D01*
X109926190Y-115648809D01*
X109888095Y-115610714D01*
X109850000Y-115534523D01*
X109850000Y-115305952D01*
X109888095Y-115229761D01*
X109926190Y-115191666D01*
X110002380Y-115153571D01*
X110154761Y-115153571D01*
X110230952Y-115191666D01*
X99253571Y-114561904D02*
X99253571Y-114028571D01*
X99253571Y-113761904D02*
X99215476Y-113800000D01*
X99253571Y-113838095D01*
X99291666Y-113800000D01*
X99253571Y-113761904D01*
X99253571Y-113838095D01*
X99634523Y-114028571D02*
X99634523Y-114561904D01*
X99634523Y-114104761D02*
X99672619Y-114066666D01*
X99748809Y-114028571D01*
X99863095Y-114028571D01*
X99939285Y-114066666D01*
X99977380Y-114142857D01*
X99977380Y-114561904D01*
X100244047Y-114028571D02*
X100548809Y-114028571D01*
X100358333Y-113761904D02*
X100358333Y-114447619D01*
X100396428Y-114523809D01*
X100472619Y-114561904D01*
X100548809Y-114561904D01*
X100777380Y-113838095D02*
X100815476Y-113800000D01*
X100891666Y-113761904D01*
X101082142Y-113761904D01*
X101158333Y-113800000D01*
X101196428Y-113838095D01*
X101234523Y-113914285D01*
X101234523Y-113990476D01*
X101196428Y-114104761D01*
X100739285Y-114561904D01*
X101234523Y-114561904D01*
X99353571Y-118786904D02*
X99353571Y-118253571D01*
X99353571Y-117986904D02*
X99315476Y-118025000D01*
X99353571Y-118063095D01*
X99391666Y-118025000D01*
X99353571Y-117986904D01*
X99353571Y-118063095D01*
X99734523Y-118253571D02*
X99734523Y-118786904D01*
X99734523Y-118329761D02*
X99772619Y-118291666D01*
X99848809Y-118253571D01*
X99963095Y-118253571D01*
X100039285Y-118291666D01*
X100077380Y-118367857D01*
X100077380Y-118786904D01*
X100344047Y-118253571D02*
X100648809Y-118253571D01*
X100458333Y-117986904D02*
X100458333Y-118672619D01*
X100496428Y-118748809D01*
X100572619Y-118786904D01*
X100648809Y-118786904D01*
X101334523Y-118786904D02*
X100877380Y-118786904D01*
X101105952Y-118786904D02*
X101105952Y-117986904D01*
X101029761Y-118101190D01*
X100953571Y-118177380D01*
X100877380Y-118215476D01*
X102073809Y-118228571D02*
X102264285Y-118761904D01*
X102454761Y-118228571D01*
X103102380Y-118723809D02*
X103026190Y-118761904D01*
X102873809Y-118761904D01*
X102797619Y-118723809D01*
X102759523Y-118685714D01*
X102721428Y-118609523D01*
X102721428Y-118380952D01*
X102759523Y-118304761D01*
X102797619Y-118266666D01*
X102873809Y-118228571D01*
X103026190Y-118228571D01*
X103102380Y-118266666D01*
X103788095Y-118723809D02*
X103711904Y-118761904D01*
X103559523Y-118761904D01*
X103483333Y-118723809D01*
X103445238Y-118685714D01*
X103407142Y-118609523D01*
X103407142Y-118380952D01*
X103445238Y-118304761D01*
X103483333Y-118266666D01*
X103559523Y-118228571D01*
X103711904Y-118228571D01*
X103788095Y-118266666D01*
X96972619Y-118228571D02*
X96972619Y-118876190D01*
X96934523Y-118952380D01*
X96896428Y-118990476D01*
X96820238Y-119028571D01*
X96705952Y-119028571D01*
X96629761Y-118990476D01*
X96972619Y-118723809D02*
X96896428Y-118761904D01*
X96744047Y-118761904D01*
X96667857Y-118723809D01*
X96629761Y-118685714D01*
X96591666Y-118609523D01*
X96591666Y-118380952D01*
X96629761Y-118304761D01*
X96667857Y-118266666D01*
X96744047Y-118228571D01*
X96896428Y-118228571D01*
X96972619Y-118266666D01*
X97353571Y-118228571D02*
X97353571Y-118761904D01*
X97353571Y-118304761D02*
X97391666Y-118266666D01*
X97467857Y-118228571D01*
X97582142Y-118228571D01*
X97658333Y-118266666D01*
X97696428Y-118342857D01*
X97696428Y-118761904D01*
X98420238Y-118761904D02*
X98420238Y-117961904D01*
X98420238Y-118723809D02*
X98344047Y-118761904D01*
X98191666Y-118761904D01*
X98115476Y-118723809D01*
X98077380Y-118685714D01*
X98039285Y-118609523D01*
X98039285Y-118380952D01*
X98077380Y-118304761D01*
X98115476Y-118266666D01*
X98191666Y-118228571D01*
X98344047Y-118228571D01*
X98420238Y-118266666D01*
D11*
G04 #@! TO.C,D2*
X130615000Y-91355000D02*
X130615000Y-93595000D01*
X130855000Y-91355000D02*
X130855000Y-93595000D01*
X130735000Y-91355000D02*
X130735000Y-93595000D01*
X134905000Y-92475000D02*
X134255000Y-92475000D01*
X129365000Y-92475000D02*
X130015000Y-92475000D01*
X134255000Y-91355000D02*
X130015000Y-91355000D01*
X134255000Y-93595000D02*
X134255000Y-91355000D01*
X130015000Y-93595000D02*
X134255000Y-93595000D01*
X130015000Y-91355000D02*
X130015000Y-93595000D01*
G04 #@! TO.C,D1*
X112465000Y-91330000D02*
X112465000Y-93570000D01*
X112465000Y-93570000D02*
X116705000Y-93570000D01*
X116705000Y-93570000D02*
X116705000Y-91330000D01*
X116705000Y-91330000D02*
X112465000Y-91330000D01*
X111815000Y-92450000D02*
X112465000Y-92450000D01*
X117355000Y-92450000D02*
X116705000Y-92450000D01*
X113185000Y-91330000D02*
X113185000Y-93570000D01*
X113305000Y-91330000D02*
X113305000Y-93570000D01*
X113065000Y-91330000D02*
X113065000Y-93570000D01*
G04 #@! TO.C,C1*
X89567936Y-107294000D02*
X90772064Y-107294000D01*
X89567936Y-109114000D02*
X90772064Y-109114000D01*
G04 #@! TO.C,C2*
X89350436Y-121560000D02*
X90554564Y-121560000D01*
X89350436Y-119740000D02*
X90554564Y-119740000D01*
G04 #@! TO.C,U2*
X88260000Y-110890000D02*
X88260000Y-112150000D01*
X88260000Y-117710000D02*
X88260000Y-116450000D01*
X92020000Y-110890000D02*
X88260000Y-110890000D01*
X94270000Y-117710000D02*
X88260000Y-117710000D01*
D12*
G04 #@! TO.C,U3*
X141020000Y-105680000D02*
X141020000Y-121680000D01*
X141020000Y-121680000D02*
X135620000Y-121680000D01*
X141020000Y-105680000D02*
X135620000Y-105680000D01*
X119820000Y-105680000D02*
X119020000Y-105680000D01*
X119020000Y-105680000D02*
X119020000Y-121680000D01*
X119020000Y-121680000D02*
X119820000Y-121680000D01*
X141020000Y-121680000D02*
X137220000Y-105680000D01*
X141020000Y-105680000D02*
X137220000Y-121680000D01*
X137220000Y-105672000D02*
X137220000Y-121672000D01*
D13*
G04 #@! TO.C,U1*
X85150000Y-71900000D02*
X105350000Y-71900000D01*
X85150000Y-105900000D02*
X105350000Y-105900000D01*
X105350000Y-71900000D02*
X105350000Y-105900000D01*
X85150000Y-71900000D02*
X85150000Y-105900000D01*
D11*
G04 #@! TO.C,J1*
X100330000Y-67310000D02*
X90170000Y-67310000D01*
X100330000Y-68580000D02*
X100330000Y-60960000D01*
X100330000Y-60960000D02*
X90170000Y-60960000D01*
X90170000Y-60960000D02*
X90170000Y-68580000D01*
X90170000Y-68580000D02*
X100330000Y-68580000D01*
G04 #@! TO.C,J2*
X109160000Y-119320000D02*
X109160000Y-121980000D01*
X114300000Y-119320000D02*
X109160000Y-119320000D01*
X114300000Y-121980000D02*
X109160000Y-121980000D01*
X114300000Y-119320000D02*
X114300000Y-121980000D01*
X115570000Y-119320000D02*
X116900000Y-119320000D01*
X116900000Y-119320000D02*
X116900000Y-120650000D01*
D13*
G04 #@! TO.C,K1*
X123320000Y-89560000D02*
X107820000Y-89560000D01*
X107820000Y-89560000D02*
X107820000Y-70460000D01*
X107820000Y-70460000D02*
X123320000Y-70460000D01*
X123320000Y-70460000D02*
X123320000Y-89560000D01*
D14*
X109551000Y-90210000D02*
G75*
G03X109551000Y-90210000I-100000J0D01*
G01*
D13*
G04 #@! TO.C,K2*
X141100000Y-89560000D02*
X125600000Y-89560000D01*
X125600000Y-89560000D02*
X125600000Y-70460000D01*
X125600000Y-70460000D02*
X141100000Y-70460000D01*
X141100000Y-70460000D02*
X141100000Y-89560000D01*
D14*
X127331000Y-90210000D02*
G75*
G03X127331000Y-90210000I-100000J0D01*
G01*
D11*
G04 #@! TO.C,J3*
X123190000Y-60960000D02*
X107950000Y-60960000D01*
X123190000Y-68580000D02*
X107950000Y-68580000D01*
X123190000Y-62230000D02*
X107950000Y-62230000D01*
X107950000Y-60960000D02*
X107950000Y-68580000D01*
X123190000Y-60960000D02*
X123190000Y-68580000D01*
G04 #@! TO.C,J4*
X140970000Y-60960000D02*
X140970000Y-68580000D01*
X125730000Y-60960000D02*
X125730000Y-68580000D01*
X140970000Y-62230000D02*
X125730000Y-62230000D01*
X140970000Y-68580000D02*
X125730000Y-68580000D01*
X140970000Y-60960000D02*
X125730000Y-60960000D01*
G04 #@! TO.C,R4*
X120290000Y-98457936D02*
X120290000Y-99662064D01*
X118470000Y-98457936D02*
X118470000Y-99662064D01*
G04 #@! TO.C,R5*
X124820000Y-98457936D02*
X124820000Y-99662064D01*
X126640000Y-98457936D02*
X126640000Y-99662064D01*
G04 #@! TO.C,J5*
X96460000Y-119320000D02*
X96460000Y-121980000D01*
X101600000Y-119320000D02*
X96460000Y-119320000D01*
X101600000Y-121980000D02*
X96460000Y-121980000D01*
X101600000Y-119320000D02*
X101600000Y-121980000D01*
X102870000Y-119320000D02*
X104200000Y-119320000D01*
X104200000Y-119320000D02*
X104200000Y-120650000D01*
G04 #@! TO.C,Q1*
X114868478Y-100898478D02*
G75*
G03X113030000Y-96460000I-1838478J1838478D01*
G01*
X111191522Y-100898478D02*
G75*
G02X113030000Y-96460000I1838478J1838478D01*
G01*
X111230000Y-100910000D02*
X114830000Y-100910000D01*
G04 #@! TO.C,Q2*
X130280000Y-100910000D02*
X133880000Y-100910000D01*
X130241522Y-100898478D02*
G75*
G02X132080000Y-96460000I1838478J1838478D01*
G01*
X133918478Y-100898478D02*
G75*
G03X132080000Y-96460000I-1838478J1838478D01*
G01*
G04 #@! TO.C,J6*
X104200000Y-115002000D02*
X104200000Y-116332000D01*
X102870000Y-115002000D02*
X104200000Y-115002000D01*
X101600000Y-115002000D02*
X101600000Y-117662000D01*
X101600000Y-117662000D02*
X96460000Y-117662000D01*
X101600000Y-115002000D02*
X96460000Y-115002000D01*
X96460000Y-115002000D02*
X96460000Y-117662000D01*
G04 #@! TO.C,J7*
X110938000Y-116646000D02*
X113598000Y-116646000D01*
X110938000Y-111506000D02*
X110938000Y-116646000D01*
X113598000Y-111506000D02*
X113598000Y-116646000D01*
X110938000Y-111506000D02*
X113598000Y-111506000D01*
X110938000Y-110236000D02*
X110938000Y-108906000D01*
X110938000Y-108906000D02*
X112268000Y-108906000D01*
G04 #@! TO.C,D2*
D15*
X131396904Y-90807380D02*
X131396904Y-89807380D01*
X131635000Y-89807380D01*
X131777857Y-89855000D01*
X131873095Y-89950238D01*
X131920714Y-90045476D01*
X131968333Y-90235952D01*
X131968333Y-90378809D01*
X131920714Y-90569285D01*
X131873095Y-90664523D01*
X131777857Y-90759761D01*
X131635000Y-90807380D01*
X131396904Y-90807380D01*
X132349285Y-89902619D02*
X132396904Y-89855000D01*
X132492142Y-89807380D01*
X132730238Y-89807380D01*
X132825476Y-89855000D01*
X132873095Y-89902619D01*
X132920714Y-89997857D01*
X132920714Y-90093095D01*
X132873095Y-90235952D01*
X132301666Y-90807380D01*
X132920714Y-90807380D01*
X128063095Y-91127380D02*
X128063095Y-90127380D01*
X128634523Y-91127380D02*
X128205952Y-90555952D01*
X128634523Y-90127380D02*
X128063095Y-90698809D01*
G04 #@! TO.C,D1*
X113846904Y-90782380D02*
X113846904Y-89782380D01*
X114085000Y-89782380D01*
X114227857Y-89830000D01*
X114323095Y-89925238D01*
X114370714Y-90020476D01*
X114418333Y-90210952D01*
X114418333Y-90353809D01*
X114370714Y-90544285D01*
X114323095Y-90639523D01*
X114227857Y-90734761D01*
X114085000Y-90782380D01*
X113846904Y-90782380D01*
X115370714Y-90782380D02*
X114799285Y-90782380D01*
X115085000Y-90782380D02*
X115085000Y-89782380D01*
X114989761Y-89925238D01*
X114894523Y-90020476D01*
X114799285Y-90068095D01*
X110513095Y-91102380D02*
X110513095Y-90102380D01*
X111084523Y-91102380D02*
X110655952Y-90530952D01*
X111084523Y-90102380D02*
X110513095Y-90673809D01*
G04 #@! TO.C,C1*
X86002857Y-108037333D02*
X85955238Y-107989714D01*
X85907619Y-107846857D01*
X85907619Y-107751619D01*
X85955238Y-107608761D01*
X86050476Y-107513523D01*
X86145714Y-107465904D01*
X86336190Y-107418285D01*
X86479047Y-107418285D01*
X86669523Y-107465904D01*
X86764761Y-107513523D01*
X86860000Y-107608761D01*
X86907619Y-107751619D01*
X86907619Y-107846857D01*
X86860000Y-107989714D01*
X86812380Y-108037333D01*
X85907619Y-108989714D02*
X85907619Y-108418285D01*
X85907619Y-108704000D02*
X86907619Y-108704000D01*
X86764761Y-108608761D01*
X86669523Y-108513523D01*
X86621904Y-108418285D01*
G04 #@! TO.C,C2*
X89785833Y-119187142D02*
X89738214Y-119234761D01*
X89595357Y-119282380D01*
X89500119Y-119282380D01*
X89357261Y-119234761D01*
X89262023Y-119139523D01*
X89214404Y-119044285D01*
X89166785Y-118853809D01*
X89166785Y-118710952D01*
X89214404Y-118520476D01*
X89262023Y-118425238D01*
X89357261Y-118330000D01*
X89500119Y-118282380D01*
X89595357Y-118282380D01*
X89738214Y-118330000D01*
X89785833Y-118377619D01*
X90166785Y-118377619D02*
X90214404Y-118330000D01*
X90309642Y-118282380D01*
X90547738Y-118282380D01*
X90642976Y-118330000D01*
X90690595Y-118377619D01*
X90738214Y-118472857D01*
X90738214Y-118568095D01*
X90690595Y-118710952D01*
X90119166Y-119282380D01*
X90738214Y-119282380D01*
G04 #@! TO.C,U2*
X89408095Y-114452380D02*
X89408095Y-115261904D01*
X89455714Y-115357142D01*
X89503333Y-115404761D01*
X89598571Y-115452380D01*
X89789047Y-115452380D01*
X89884285Y-115404761D01*
X89931904Y-115357142D01*
X89979523Y-115261904D01*
X89979523Y-114452380D01*
X90408095Y-114547619D02*
X90455714Y-114500000D01*
X90550952Y-114452380D01*
X90789047Y-114452380D01*
X90884285Y-114500000D01*
X90931904Y-114547619D01*
X90979523Y-114642857D01*
X90979523Y-114738095D01*
X90931904Y-114880952D01*
X90360476Y-115452380D01*
X90979523Y-115452380D01*
G04 #@! TO.C,U3*
X131452380Y-113761904D02*
X132261904Y-113761904D01*
X132357142Y-113714285D01*
X132404761Y-113666666D01*
X132452380Y-113571428D01*
X132452380Y-113380952D01*
X132404761Y-113285714D01*
X132357142Y-113238095D01*
X132261904Y-113190476D01*
X131452380Y-113190476D01*
X131452380Y-112809523D02*
X131452380Y-112190476D01*
X131833333Y-112523809D01*
X131833333Y-112380952D01*
X131880952Y-112285714D01*
X131928571Y-112238095D01*
X132023809Y-112190476D01*
X132261904Y-112190476D01*
X132357142Y-112238095D01*
X132404761Y-112285714D01*
X132452380Y-112380952D01*
X132452380Y-112666666D01*
X132404761Y-112761904D01*
X132357142Y-112809523D01*
X140472380Y-117286285D02*
X139472380Y-117286285D01*
X140472380Y-116714857D01*
X139472380Y-116714857D01*
X140472380Y-116095809D02*
X140424761Y-116191047D01*
X140377142Y-116238666D01*
X140281904Y-116286285D01*
X139996190Y-116286285D01*
X139900952Y-116238666D01*
X139853333Y-116191047D01*
X139805714Y-116095809D01*
X139805714Y-115952952D01*
X139853333Y-115857714D01*
X139900952Y-115810095D01*
X139996190Y-115762476D01*
X140281904Y-115762476D01*
X140377142Y-115810095D01*
X140424761Y-115857714D01*
X140472380Y-115952952D01*
X140472380Y-116095809D01*
X140377142Y-114000571D02*
X140424761Y-114048190D01*
X140472380Y-114191047D01*
X140472380Y-114286285D01*
X140424761Y-114429142D01*
X140329523Y-114524380D01*
X140234285Y-114572000D01*
X140043809Y-114619619D01*
X139900952Y-114619619D01*
X139710476Y-114572000D01*
X139615238Y-114524380D01*
X139520000Y-114429142D01*
X139472380Y-114286285D01*
X139472380Y-114191047D01*
X139520000Y-114048190D01*
X139567619Y-114000571D01*
X140472380Y-113429142D02*
X140424761Y-113524380D01*
X140377142Y-113572000D01*
X140281904Y-113619619D01*
X139996190Y-113619619D01*
X139900952Y-113572000D01*
X139853333Y-113524380D01*
X139805714Y-113429142D01*
X139805714Y-113286285D01*
X139853333Y-113191047D01*
X139900952Y-113143428D01*
X139996190Y-113095809D01*
X140281904Y-113095809D01*
X140377142Y-113143428D01*
X140424761Y-113191047D01*
X140472380Y-113286285D01*
X140472380Y-113429142D01*
X139805714Y-112667238D02*
X140805714Y-112667238D01*
X139853333Y-112667238D02*
X139805714Y-112572000D01*
X139805714Y-112381523D01*
X139853333Y-112286285D01*
X139900952Y-112238666D01*
X139996190Y-112191047D01*
X140281904Y-112191047D01*
X140377142Y-112238666D01*
X140424761Y-112286285D01*
X140472380Y-112381523D01*
X140472380Y-112572000D01*
X140424761Y-112667238D01*
X139805714Y-111762476D02*
X140805714Y-111762476D01*
X139853333Y-111762476D02*
X139805714Y-111667238D01*
X139805714Y-111476761D01*
X139853333Y-111381523D01*
X139900952Y-111333904D01*
X139996190Y-111286285D01*
X140281904Y-111286285D01*
X140377142Y-111333904D01*
X140424761Y-111381523D01*
X140472380Y-111476761D01*
X140472380Y-111667238D01*
X140424761Y-111762476D01*
X140424761Y-110476761D02*
X140472380Y-110572000D01*
X140472380Y-110762476D01*
X140424761Y-110857714D01*
X140329523Y-110905333D01*
X139948571Y-110905333D01*
X139853333Y-110857714D01*
X139805714Y-110762476D01*
X139805714Y-110572000D01*
X139853333Y-110476761D01*
X139948571Y-110429142D01*
X140043809Y-110429142D01*
X140139047Y-110905333D01*
X140472380Y-110000571D02*
X139805714Y-110000571D01*
X139996190Y-110000571D02*
X139900952Y-109952952D01*
X139853333Y-109905333D01*
X139805714Y-109810095D01*
X139805714Y-109714857D01*
G04 #@! TO.C,U1*
D16*
X92162380Y-89585714D02*
X92971904Y-89585714D01*
X93067142Y-89542857D01*
X93114761Y-89500000D01*
X93162380Y-89414285D01*
X93162380Y-89242857D01*
X93114761Y-89157142D01*
X93067142Y-89114285D01*
X92971904Y-89071428D01*
X92162380Y-89071428D01*
X93162380Y-88171428D02*
X93162380Y-88685714D01*
X93162380Y-88428571D02*
X92162380Y-88428571D01*
X92305238Y-88514285D01*
X92400476Y-88600000D01*
X92448095Y-88685714D01*
X96452380Y-93450000D02*
X95452380Y-93450000D01*
X95928571Y-93450000D02*
X95928571Y-92935714D01*
X96452380Y-92935714D02*
X95452380Y-92935714D01*
X96452380Y-92078571D02*
X96452380Y-92507142D01*
X95452380Y-92507142D01*
X96452380Y-91778571D02*
X95452380Y-91778571D01*
X96452380Y-91264285D02*
X95880952Y-91650000D01*
X95452380Y-91264285D02*
X96023809Y-91778571D01*
X96071428Y-90878571D02*
X96071428Y-90192857D01*
X96452380Y-89764285D02*
X95452380Y-89764285D01*
X95452380Y-89421428D01*
X95500000Y-89335714D01*
X95547619Y-89292857D01*
X95642857Y-89250000D01*
X95785714Y-89250000D01*
X95880952Y-89292857D01*
X95928571Y-89335714D01*
X95976190Y-89421428D01*
X95976190Y-89764285D01*
X96452380Y-88864285D02*
X95452380Y-88864285D01*
X96166666Y-88564285D01*
X95452380Y-88264285D01*
X96452380Y-88264285D01*
X95452380Y-87664285D02*
X95452380Y-87578571D01*
X95500000Y-87492857D01*
X95547619Y-87450000D01*
X95642857Y-87407142D01*
X95833333Y-87364285D01*
X96071428Y-87364285D01*
X96261904Y-87407142D01*
X96357142Y-87450000D01*
X96404761Y-87492857D01*
X96452380Y-87578571D01*
X96452380Y-87664285D01*
X96404761Y-87750000D01*
X96357142Y-87792857D01*
X96261904Y-87835714D01*
X96071428Y-87878571D01*
X95833333Y-87878571D01*
X95642857Y-87835714D01*
X95547619Y-87792857D01*
X95500000Y-87750000D01*
X95452380Y-87664285D01*
X96452380Y-86507142D02*
X96452380Y-87021428D01*
X96452380Y-86764285D02*
X95452380Y-86764285D01*
X95595238Y-86850000D01*
X95690476Y-86935714D01*
X95738095Y-87021428D01*
X94716666Y-73738095D02*
X94716666Y-73261904D01*
X95002380Y-73833333D02*
X94002380Y-73500000D01*
X95002380Y-73166666D01*
X94907142Y-72261904D02*
X94954761Y-72309523D01*
X95002380Y-72452380D01*
X95002380Y-72547619D01*
X94954761Y-72690476D01*
X94859523Y-72785714D01*
X94764285Y-72833333D01*
X94573809Y-72880952D01*
X94430952Y-72880952D01*
X94240476Y-72833333D01*
X94145238Y-72785714D01*
X94050000Y-72690476D01*
X94002380Y-72547619D01*
X94002380Y-72452380D01*
X94050000Y-72309523D01*
X94097619Y-72261904D01*
X89321428Y-102233333D02*
X89321428Y-101471428D01*
X89702380Y-101852380D02*
X88940476Y-101852380D01*
X88702380Y-101138095D02*
X89702380Y-100804761D01*
X88702380Y-100471428D01*
X88702380Y-99947619D02*
X88702380Y-99757142D01*
X88750000Y-99661904D01*
X88845238Y-99566666D01*
X89035714Y-99519047D01*
X89369047Y-99519047D01*
X89559523Y-99566666D01*
X89654761Y-99661904D01*
X89702380Y-99757142D01*
X89702380Y-99947619D01*
X89654761Y-100042857D01*
X89559523Y-100138095D01*
X89369047Y-100185714D01*
X89035714Y-100185714D01*
X88845238Y-100138095D01*
X88750000Y-100042857D01*
X88702380Y-99947619D01*
X100021428Y-102233333D02*
X100021428Y-101471428D01*
X99402380Y-101138095D02*
X100402380Y-100804761D01*
X99402380Y-100471428D01*
X99402380Y-99947619D02*
X99402380Y-99757142D01*
X99450000Y-99661904D01*
X99545238Y-99566666D01*
X99735714Y-99519047D01*
X100069047Y-99519047D01*
X100259523Y-99566666D01*
X100354761Y-99661904D01*
X100402380Y-99757142D01*
X100402380Y-99947619D01*
X100354761Y-100042857D01*
X100259523Y-100138095D01*
X100069047Y-100185714D01*
X99735714Y-100185714D01*
X99545238Y-100138095D01*
X99450000Y-100042857D01*
X99402380Y-99947619D01*
G04 #@! TO.C,J1*
D15*
X94916666Y-59142380D02*
X94916666Y-59856666D01*
X94869047Y-59999523D01*
X94773809Y-60094761D01*
X94630952Y-60142380D01*
X94535714Y-60142380D01*
X95916666Y-60142380D02*
X95345238Y-60142380D01*
X95630952Y-60142380D02*
X95630952Y-59142380D01*
X95535714Y-59285238D01*
X95440476Y-59380476D01*
X95345238Y-59428095D01*
G04 #@! TO.C,J2*
X117352380Y-120983333D02*
X118066666Y-120983333D01*
X118209523Y-121030952D01*
X118304761Y-121126190D01*
X118352380Y-121269047D01*
X118352380Y-121364285D01*
X117447619Y-120554761D02*
X117400000Y-120507142D01*
X117352380Y-120411904D01*
X117352380Y-120173809D01*
X117400000Y-120078571D01*
X117447619Y-120030952D01*
X117542857Y-119983333D01*
X117638095Y-119983333D01*
X117780952Y-120030952D01*
X118352380Y-120602380D01*
X118352380Y-119983333D01*
G04 #@! TO.C,K1*
D16*
X107186581Y-88008851D02*
X106186491Y-88008851D01*
X107186581Y-87437371D02*
X106615101Y-87865981D01*
X106186491Y-87437371D02*
X106757971Y-88008851D01*
X107186581Y-86484905D02*
X107186581Y-87056385D01*
X107186581Y-86770645D02*
X106186491Y-86770645D01*
X106329361Y-86865891D01*
X106424608Y-86961138D01*
X106472231Y-87056385D01*
X117404887Y-85906902D02*
X117452521Y-85764000D01*
X117452521Y-85525831D01*
X117404887Y-85430564D01*
X117357253Y-85382930D01*
X117261985Y-85335296D01*
X117166718Y-85335296D01*
X117071450Y-85382930D01*
X117023816Y-85430564D01*
X116976183Y-85525831D01*
X116928549Y-85716367D01*
X116880915Y-85811634D01*
X116833281Y-85859268D01*
X116738014Y-85906902D01*
X116642746Y-85906902D01*
X116547478Y-85859268D01*
X116499845Y-85811634D01*
X116452211Y-85716367D01*
X116452211Y-85478198D01*
X116499845Y-85335296D01*
X117452521Y-84334986D02*
X116976183Y-84668423D01*
X117452521Y-84906592D02*
X116452211Y-84906592D01*
X116452211Y-84525521D01*
X116499845Y-84430254D01*
X116547478Y-84382620D01*
X116642746Y-84334986D01*
X116785647Y-84334986D01*
X116880915Y-84382620D01*
X116928549Y-84430254D01*
X116976183Y-84525521D01*
X116976183Y-84906592D01*
X117452521Y-83906282D02*
X116452211Y-83906282D01*
X116452211Y-83668113D01*
X116499845Y-83525211D01*
X116595112Y-83429944D01*
X116690380Y-83382310D01*
X116880915Y-83334676D01*
X117023816Y-83334676D01*
X117214352Y-83382310D01*
X117309619Y-83429944D01*
X117404887Y-83525211D01*
X117452521Y-83668113D01*
X117452521Y-83906282D01*
X117071450Y-82905972D02*
X117071450Y-82143831D01*
X116452211Y-81476958D02*
X116452211Y-81381690D01*
X116499845Y-81286422D01*
X116547478Y-81238789D01*
X116642746Y-81191155D01*
X116833281Y-81143521D01*
X117071450Y-81143521D01*
X117261985Y-81191155D01*
X117357253Y-81238789D01*
X117404887Y-81286422D01*
X117452521Y-81381690D01*
X117452521Y-81476958D01*
X117404887Y-81572225D01*
X117357253Y-81619859D01*
X117261985Y-81667493D01*
X117071450Y-81715127D01*
X116833281Y-81715127D01*
X116642746Y-81667493D01*
X116547478Y-81619859D01*
X116499845Y-81572225D01*
X116452211Y-81476958D01*
X116452211Y-80238479D02*
X116452211Y-80714817D01*
X116928549Y-80762450D01*
X116880915Y-80714817D01*
X116833281Y-80619549D01*
X116833281Y-80381380D01*
X116880915Y-80286112D01*
X116928549Y-80238479D01*
X117023816Y-80190845D01*
X117261985Y-80190845D01*
X117357253Y-80238479D01*
X117404887Y-80286112D01*
X117452521Y-80381380D01*
X117452521Y-80619549D01*
X117404887Y-80714817D01*
X117357253Y-80762450D01*
X116452211Y-79905042D02*
X117452521Y-79571605D01*
X116452211Y-79238169D01*
X117452521Y-78904732D02*
X116452211Y-78904732D01*
X116452211Y-78666563D01*
X116499845Y-78523661D01*
X116595112Y-78428394D01*
X116690380Y-78380760D01*
X116880915Y-78333126D01*
X117023816Y-78333126D01*
X117214352Y-78380760D01*
X117309619Y-78428394D01*
X117404887Y-78523661D01*
X117452521Y-78666563D01*
X117452521Y-78904732D01*
X117357253Y-77332816D02*
X117404887Y-77380450D01*
X117452521Y-77523351D01*
X117452521Y-77618619D01*
X117404887Y-77761520D01*
X117309619Y-77856788D01*
X117214352Y-77904422D01*
X117023816Y-77952056D01*
X116880915Y-77952056D01*
X116690380Y-77904422D01*
X116595112Y-77856788D01*
X116499845Y-77761520D01*
X116452211Y-77618619D01*
X116452211Y-77523351D01*
X116499845Y-77380450D01*
X116547478Y-77332816D01*
X117071450Y-76904112D02*
X117071450Y-76141971D01*
X117404887Y-75713267D02*
X117452521Y-75570365D01*
X117452521Y-75332196D01*
X117404887Y-75236929D01*
X117357253Y-75189295D01*
X117261985Y-75141661D01*
X117166718Y-75141661D01*
X117071450Y-75189295D01*
X117023816Y-75236929D01*
X116976183Y-75332196D01*
X116928549Y-75522731D01*
X116880915Y-75617999D01*
X116833281Y-75665633D01*
X116738014Y-75713267D01*
X116642746Y-75713267D01*
X116547478Y-75665633D01*
X116499845Y-75617999D01*
X116452211Y-75522731D01*
X116452211Y-75284562D01*
X116499845Y-75141661D01*
X117452521Y-74236619D02*
X117452521Y-74712957D01*
X116452211Y-74712957D01*
X117071450Y-73903182D02*
X117071450Y-73141041D01*
X117357253Y-72093097D02*
X117404887Y-72140731D01*
X117452521Y-72283632D01*
X117452521Y-72378900D01*
X117404887Y-72521801D01*
X117309619Y-72617069D01*
X117214352Y-72664703D01*
X117023816Y-72712337D01*
X116880915Y-72712337D01*
X116690380Y-72664703D01*
X116595112Y-72617069D01*
X116499845Y-72521801D01*
X116452211Y-72378900D01*
X116452211Y-72283632D01*
X116499845Y-72140731D01*
X116547478Y-72093097D01*
G04 #@! TO.C,K2*
X124966581Y-88008851D02*
X123966491Y-88008851D01*
X124966581Y-87437371D02*
X124395101Y-87865981D01*
X123966491Y-87437371D02*
X124537971Y-88008851D01*
X124061738Y-87056385D02*
X124014115Y-87008761D01*
X123966491Y-86913515D01*
X123966491Y-86675398D01*
X124014115Y-86580151D01*
X124061738Y-86532528D01*
X124156985Y-86484905D01*
X124252231Y-86484905D01*
X124395101Y-86532528D01*
X124966581Y-87104008D01*
X124966581Y-86484905D01*
X136404887Y-85906902D02*
X136452521Y-85764000D01*
X136452521Y-85525831D01*
X136404887Y-85430564D01*
X136357253Y-85382930D01*
X136261985Y-85335296D01*
X136166718Y-85335296D01*
X136071450Y-85382930D01*
X136023816Y-85430564D01*
X135976183Y-85525831D01*
X135928549Y-85716367D01*
X135880915Y-85811634D01*
X135833281Y-85859268D01*
X135738014Y-85906902D01*
X135642746Y-85906902D01*
X135547478Y-85859268D01*
X135499845Y-85811634D01*
X135452211Y-85716367D01*
X135452211Y-85478198D01*
X135499845Y-85335296D01*
X136452521Y-84334986D02*
X135976183Y-84668423D01*
X136452521Y-84906592D02*
X135452211Y-84906592D01*
X135452211Y-84525521D01*
X135499845Y-84430254D01*
X135547478Y-84382620D01*
X135642746Y-84334986D01*
X135785647Y-84334986D01*
X135880915Y-84382620D01*
X135928549Y-84430254D01*
X135976183Y-84525521D01*
X135976183Y-84906592D01*
X136452521Y-83906282D02*
X135452211Y-83906282D01*
X135452211Y-83668113D01*
X135499845Y-83525211D01*
X135595112Y-83429944D01*
X135690380Y-83382310D01*
X135880915Y-83334676D01*
X136023816Y-83334676D01*
X136214352Y-83382310D01*
X136309619Y-83429944D01*
X136404887Y-83525211D01*
X136452521Y-83668113D01*
X136452521Y-83906282D01*
X136071450Y-82905972D02*
X136071450Y-82143831D01*
X135452211Y-81476958D02*
X135452211Y-81381690D01*
X135499845Y-81286422D01*
X135547478Y-81238789D01*
X135642746Y-81191155D01*
X135833281Y-81143521D01*
X136071450Y-81143521D01*
X136261985Y-81191155D01*
X136357253Y-81238789D01*
X136404887Y-81286422D01*
X136452521Y-81381690D01*
X136452521Y-81476958D01*
X136404887Y-81572225D01*
X136357253Y-81619859D01*
X136261985Y-81667493D01*
X136071450Y-81715127D01*
X135833281Y-81715127D01*
X135642746Y-81667493D01*
X135547478Y-81619859D01*
X135499845Y-81572225D01*
X135452211Y-81476958D01*
X135452211Y-80238479D02*
X135452211Y-80714817D01*
X135928549Y-80762450D01*
X135880915Y-80714817D01*
X135833281Y-80619549D01*
X135833281Y-80381380D01*
X135880915Y-80286112D01*
X135928549Y-80238479D01*
X136023816Y-80190845D01*
X136261985Y-80190845D01*
X136357253Y-80238479D01*
X136404887Y-80286112D01*
X136452521Y-80381380D01*
X136452521Y-80619549D01*
X136404887Y-80714817D01*
X136357253Y-80762450D01*
X135452211Y-79905042D02*
X136452521Y-79571605D01*
X135452211Y-79238169D01*
X136452521Y-78904732D02*
X135452211Y-78904732D01*
X135452211Y-78666563D01*
X135499845Y-78523661D01*
X135595112Y-78428394D01*
X135690380Y-78380760D01*
X135880915Y-78333126D01*
X136023816Y-78333126D01*
X136214352Y-78380760D01*
X136309619Y-78428394D01*
X136404887Y-78523661D01*
X136452521Y-78666563D01*
X136452521Y-78904732D01*
X136357253Y-77332816D02*
X136404887Y-77380450D01*
X136452521Y-77523351D01*
X136452521Y-77618619D01*
X136404887Y-77761520D01*
X136309619Y-77856788D01*
X136214352Y-77904422D01*
X136023816Y-77952056D01*
X135880915Y-77952056D01*
X135690380Y-77904422D01*
X135595112Y-77856788D01*
X135499845Y-77761520D01*
X135452211Y-77618619D01*
X135452211Y-77523351D01*
X135499845Y-77380450D01*
X135547478Y-77332816D01*
X136071450Y-76904112D02*
X136071450Y-76141971D01*
X136404887Y-75713267D02*
X136452521Y-75570365D01*
X136452521Y-75332196D01*
X136404887Y-75236929D01*
X136357253Y-75189295D01*
X136261985Y-75141661D01*
X136166718Y-75141661D01*
X136071450Y-75189295D01*
X136023816Y-75236929D01*
X135976183Y-75332196D01*
X135928549Y-75522731D01*
X135880915Y-75617999D01*
X135833281Y-75665633D01*
X135738014Y-75713267D01*
X135642746Y-75713267D01*
X135547478Y-75665633D01*
X135499845Y-75617999D01*
X135452211Y-75522731D01*
X135452211Y-75284562D01*
X135499845Y-75141661D01*
X136452521Y-74236619D02*
X136452521Y-74712957D01*
X135452211Y-74712957D01*
X136071450Y-73903182D02*
X136071450Y-73141041D01*
X136357253Y-72093097D02*
X136404887Y-72140731D01*
X136452521Y-72283632D01*
X136452521Y-72378900D01*
X136404887Y-72521801D01*
X136309619Y-72617069D01*
X136214352Y-72664703D01*
X136023816Y-72712337D01*
X135880915Y-72712337D01*
X135690380Y-72664703D01*
X135595112Y-72617069D01*
X135499845Y-72521801D01*
X135452211Y-72378900D01*
X135452211Y-72283632D01*
X135499845Y-72140731D01*
X135547478Y-72093097D01*
G04 #@! TO.C,J3*
D15*
X115266666Y-68872380D02*
X115266666Y-69586666D01*
X115219047Y-69729523D01*
X115123809Y-69824761D01*
X114980952Y-69872380D01*
X114885714Y-69872380D01*
X115647619Y-68872380D02*
X116266666Y-68872380D01*
X115933333Y-69253333D01*
X116076190Y-69253333D01*
X116171428Y-69300952D01*
X116219047Y-69348571D01*
X116266666Y-69443809D01*
X116266666Y-69681904D01*
X116219047Y-69777142D01*
X116171428Y-69824761D01*
X116076190Y-69872380D01*
X115790476Y-69872380D01*
X115695238Y-69824761D01*
X115647619Y-69777142D01*
G04 #@! TO.C,J4*
X133046666Y-68872380D02*
X133046666Y-69586666D01*
X132999047Y-69729523D01*
X132903809Y-69824761D01*
X132760952Y-69872380D01*
X132665714Y-69872380D01*
X133951428Y-69205714D02*
X133951428Y-69872380D01*
X133713333Y-68824761D02*
X133475238Y-69539047D01*
X134094285Y-69539047D01*
G04 #@! TO.C,R4*
X121652380Y-99226666D02*
X121176190Y-99560000D01*
X121652380Y-99798095D02*
X120652380Y-99798095D01*
X120652380Y-99417142D01*
X120700000Y-99321904D01*
X120747619Y-99274285D01*
X120842857Y-99226666D01*
X120985714Y-99226666D01*
X121080952Y-99274285D01*
X121128571Y-99321904D01*
X121176190Y-99417142D01*
X121176190Y-99798095D01*
X120985714Y-98369523D02*
X121652380Y-98369523D01*
X120604761Y-98607619D02*
X121319047Y-98845714D01*
X121319047Y-98226666D01*
G04 #@! TO.C,R5*
X128002380Y-99226666D02*
X127526190Y-99560000D01*
X128002380Y-99798095D02*
X127002380Y-99798095D01*
X127002380Y-99417142D01*
X127050000Y-99321904D01*
X127097619Y-99274285D01*
X127192857Y-99226666D01*
X127335714Y-99226666D01*
X127430952Y-99274285D01*
X127478571Y-99321904D01*
X127526190Y-99417142D01*
X127526190Y-99798095D01*
X127002380Y-98321904D02*
X127002380Y-98798095D01*
X127478571Y-98845714D01*
X127430952Y-98798095D01*
X127383333Y-98702857D01*
X127383333Y-98464761D01*
X127430952Y-98369523D01*
X127478571Y-98321904D01*
X127573809Y-98274285D01*
X127811904Y-98274285D01*
X127907142Y-98321904D01*
X127954761Y-98369523D01*
X128002380Y-98464761D01*
X128002380Y-98702857D01*
X127954761Y-98798095D01*
X127907142Y-98845714D01*
G04 #@! TO.C,J5*
X104652380Y-120983333D02*
X105366666Y-120983333D01*
X105509523Y-121030952D01*
X105604761Y-121126190D01*
X105652380Y-121269047D01*
X105652380Y-121364285D01*
X104652380Y-120030952D02*
X104652380Y-120507142D01*
X105128571Y-120554761D01*
X105080952Y-120507142D01*
X105033333Y-120411904D01*
X105033333Y-120173809D01*
X105080952Y-120078571D01*
X105128571Y-120030952D01*
X105223809Y-119983333D01*
X105461904Y-119983333D01*
X105557142Y-120030952D01*
X105604761Y-120078571D01*
X105652380Y-120173809D01*
X105652380Y-120411904D01*
X105604761Y-120507142D01*
X105557142Y-120554761D01*
G04 #@! TO.C,Q1*
X108904761Y-99547619D02*
X108809523Y-99500000D01*
X108714285Y-99404761D01*
X108571428Y-99261904D01*
X108476190Y-99214285D01*
X108380952Y-99214285D01*
X108428571Y-99452380D02*
X108333333Y-99404761D01*
X108238095Y-99309523D01*
X108190476Y-99119047D01*
X108190476Y-98785714D01*
X108238095Y-98595238D01*
X108333333Y-98500000D01*
X108428571Y-98452380D01*
X108619047Y-98452380D01*
X108714285Y-98500000D01*
X108809523Y-98595238D01*
X108857142Y-98785714D01*
X108857142Y-99119047D01*
X108809523Y-99309523D01*
X108714285Y-99404761D01*
X108619047Y-99452380D01*
X108428571Y-99452380D01*
X109809523Y-99452380D02*
X109238095Y-99452380D01*
X109523809Y-99452380D02*
X109523809Y-98452380D01*
X109428571Y-98595238D01*
X109333333Y-98690476D01*
X109238095Y-98738095D01*
G04 #@! TO.C,Q2*
X135904761Y-99547619D02*
X135809523Y-99500000D01*
X135714285Y-99404761D01*
X135571428Y-99261904D01*
X135476190Y-99214285D01*
X135380952Y-99214285D01*
X135428571Y-99452380D02*
X135333333Y-99404761D01*
X135238095Y-99309523D01*
X135190476Y-99119047D01*
X135190476Y-98785714D01*
X135238095Y-98595238D01*
X135333333Y-98500000D01*
X135428571Y-98452380D01*
X135619047Y-98452380D01*
X135714285Y-98500000D01*
X135809523Y-98595238D01*
X135857142Y-98785714D01*
X135857142Y-99119047D01*
X135809523Y-99309523D01*
X135714285Y-99404761D01*
X135619047Y-99452380D01*
X135428571Y-99452380D01*
X136238095Y-98547619D02*
X136285714Y-98500000D01*
X136380952Y-98452380D01*
X136619047Y-98452380D01*
X136714285Y-98500000D01*
X136761904Y-98547619D01*
X136809523Y-98642857D01*
X136809523Y-98738095D01*
X136761904Y-98880952D01*
X136190476Y-99452380D01*
X136809523Y-99452380D01*
G04 #@! TO.C,J6*
X104652380Y-116665333D02*
X105366666Y-116665333D01*
X105509523Y-116712952D01*
X105604761Y-116808190D01*
X105652380Y-116951047D01*
X105652380Y-117046285D01*
X104652380Y-115760571D02*
X104652380Y-115951047D01*
X104700000Y-116046285D01*
X104747619Y-116093904D01*
X104890476Y-116189142D01*
X105080952Y-116236761D01*
X105461904Y-116236761D01*
X105557142Y-116189142D01*
X105604761Y-116141523D01*
X105652380Y-116046285D01*
X105652380Y-115855809D01*
X105604761Y-115760571D01*
X105557142Y-115712952D01*
X105461904Y-115665333D01*
X105223809Y-115665333D01*
X105128571Y-115712952D01*
X105080952Y-115760571D01*
X105033333Y-115855809D01*
X105033333Y-116046285D01*
X105080952Y-116141523D01*
X105128571Y-116189142D01*
X105223809Y-116236761D01*
G04 #@! TO.C,J7*
X111934666Y-107358380D02*
X111934666Y-108072666D01*
X111887047Y-108215523D01*
X111791809Y-108310761D01*
X111648952Y-108358380D01*
X111553714Y-108358380D01*
X112315619Y-107358380D02*
X112982285Y-107358380D01*
X112553714Y-108358380D01*
G04 #@! TD*
M02*
